<svg width="310" height="273" viewBox="0 0 310 273" fill="none" xmlns="http://www.w3.org/2000/svg">
<g filter="url(#filter0_d_687_3748)">
<g opacity="0.5">
<path d="M11.0356 111.574C15.5399 116.07 21.6476 118.596 28.0166 118.596C32.8001 118.596 37.4394 117.166 41.3581 114.559L24.26 131.623C19.7558 136.119 17.2244 142.214 17.2244 148.571C17.2244 154.927 19.7558 161.023 24.26 165.518C28.7643 170.014 34.872 172.54 41.241 172.54C46.0245 172.54 50.6639 171.11 54.5826 168.503L45.6101 177.458C41.1059 181.953 38.5745 188.049 38.5745 194.405C38.5745 200.762 41.1059 206.857 45.6101 211.353C50.1144 215.848 56.2221 218.374 62.5911 218.374C67.3746 218.374 72.014 216.945 75.9326 214.338L73.7436 216.522C69.2393 221.018 66.708 227.113 66.708 233.47C66.708 239.826 69.2393 245.922 73.7436 250.417C78.2478 254.912 84.3556 257.439 90.7245 257.439C97.0935 257.439 103.201 254.912 107.706 250.417L130.488 227.716C127.866 231.627 126.443 236.257 126.443 241.031C126.443 247.387 128.975 253.483 133.479 257.978C137.983 262.474 144.091 265 150.46 265C156.829 265 162.936 262.474 167.441 257.978L202.024 223.463C199.403 227.374 197.979 232.004 197.979 236.778C197.979 243.135 200.511 249.23 205.015 253.726C209.519 258.221 215.627 260.747 221.996 260.747C228.365 260.747 234.473 258.221 238.977 253.726L292.821 199.988C297.325 195.493 299.856 189.397 299.856 183.041C299.856 176.685 297.325 170.589 292.821 166.094C288.316 161.598 282.209 159.072 275.84 159.072C271.056 159.072 266.417 160.501 262.498 163.109L273.768 151.861C278.272 147.366 280.803 141.27 280.803 134.914C280.803 128.558 278.272 122.462 273.768 117.967C269.263 113.471 263.156 110.945 256.787 110.945C252.003 110.945 247.364 112.374 243.445 114.982L266.21 92.2623C270.714 87.7669 273.245 81.6712 273.245 75.3148C273.245 68.9584 270.714 62.8628 266.21 58.3674C261.705 53.8721 255.598 51.3457 249.229 51.3457C244.445 51.3457 239.806 52.7752 235.887 55.3825L250.382 40.9165C254.886 36.4212 257.417 30.3255 257.417 23.9691C257.417 17.6127 254.886 11.517 250.382 7.02171C245.877 2.52638 239.77 0 233.401 0C227.032 0 220.924 2.52638 216.42 7.02171L184.133 39.2443C186.755 35.3333 188.178 30.7031 188.178 25.9291C188.178 19.5727 185.647 13.477 181.143 8.98168C176.638 4.48634 170.531 1.95996 164.162 1.95996C157.766 1.95996 151.658 4.47735 147.154 8.97269L101.832 54.2047C104.453 50.2938 105.877 45.6636 105.877 40.8896C105.877 34.5332 103.345 28.4375 98.8412 23.9422C94.3369 19.4468 88.2292 16.9204 81.8602 16.9204C75.4912 16.9204 69.3835 19.4468 64.8792 23.9422L11.0356 77.6704C6.53138 82.1657 4 88.2614 4 94.6178C4 100.974 6.53138 107.079 11.0356 111.574Z" fill="white"/>
<path d="M299.154 213.753L297.497 215.407C296.848 216.055 296.848 217.107 297.497 217.754C298.145 218.401 299.199 218.401 299.848 217.754L301.505 216.1L303.163 217.754C303.812 218.401 304.866 218.401 305.514 217.754C306.163 217.107 306.163 216.055 305.514 215.407L303.857 213.753L305.514 212.099C306.163 211.452 306.163 210.4 305.514 209.752C305.19 209.429 304.767 209.267 304.334 209.267C303.902 209.267 303.478 209.429 303.154 209.752L301.496 211.407L299.839 209.752C299.515 209.429 299.091 209.267 298.659 209.267C298.226 209.267 297.803 209.429 297.479 209.752C296.83 210.4 296.83 211.452 297.479 212.099L299.154 213.753Z" fill="white"/>
<path d="M61.663 249.491L60.0054 251.145C59.3568 251.793 59.3568 252.844 60.0054 253.492C60.6541 254.139 61.7081 254.139 62.3567 253.492L64.0142 251.838L65.6718 253.492C66.3204 254.139 67.3744 254.139 68.023 253.492C68.6716 252.844 68.6716 251.793 68.023 251.145L66.3654 249.491L68.023 247.837C68.6716 247.189 68.6716 246.137 68.023 245.49C67.6987 245.166 67.2753 245.005 66.8429 245.005C66.4105 245.005 65.9871 245.166 65.6628 245.49L64.0052 247.144L62.3476 245.49C62.0233 245.166 61.5999 245.005 61.1675 245.005C60.7441 245.005 60.3117 245.166 59.9874 245.49C59.3388 246.137 59.3388 247.189 59.9874 247.837L61.663 249.491Z" fill="white"/>
<path d="M19.1425 102.467L17.4849 104.121C16.8363 104.768 16.8363 105.82 17.4849 106.467C18.1336 107.115 19.1875 107.115 19.8362 106.467L21.4937 104.813L23.1513 106.467C23.7999 107.115 24.8539 107.115 25.5025 106.467C26.1511 105.82 26.1511 104.768 25.5025 104.121L23.8449 102.467L25.5025 100.812C26.1511 100.165 26.1511 99.1131 25.5025 98.4657C25.1782 98.1421 24.7548 97.9802 24.3224 97.9802C23.899 97.9802 23.4666 98.1421 23.1423 98.4657L21.4847 100.12L19.8271 98.4657C19.5028 98.1421 19.0794 97.9802 18.647 97.9802C18.2236 97.9802 17.7912 98.1421 17.4669 98.4657C16.8183 99.1131 16.8183 100.165 17.4669 100.812L19.1425 102.467Z" fill="white"/>
<path d="M219.176 17.2168L217.518 18.8711C216.87 19.5184 216.87 20.5703 217.518 21.2177C218.167 21.865 219.221 21.865 219.869 21.2177L221.527 19.5634L223.184 21.2177C223.833 21.865 224.887 21.865 225.536 21.2177C226.184 20.5703 226.184 19.5184 225.536 18.8711L223.878 17.2168L225.536 15.5625C226.184 14.9152 226.184 13.8633 225.536 13.216C225.211 12.8923 224.788 12.7305 224.356 12.7305C223.932 12.7305 223.5 12.8923 223.175 13.216L221.518 14.8702L219.86 13.216C219.536 12.8923 219.113 12.7305 218.68 12.7305C218.257 12.7305 217.824 12.8923 217.5 13.216C216.852 13.8633 216.852 14.9152 217.5 15.5625L219.176 17.2168Z" fill="white"/>
<path d="M188.754 251.802C191.43 251.802 193.61 253.978 193.61 256.648C193.61 259.318 191.43 261.494 188.754 261.494C186.079 261.494 183.898 259.318 183.898 256.648C183.889 253.978 186.07 251.802 188.754 251.802ZM188.754 258.185C189.601 258.185 190.285 257.502 190.285 256.657C190.285 255.812 189.601 255.128 188.754 255.128C187.907 255.128 187.223 255.812 187.223 256.657C187.223 257.502 187.907 258.185 188.754 258.185Z" fill="white"/>
<path d="M280.334 97.2791C283.01 97.2791 285.19 99.4548 285.19 102.125C285.19 104.795 283.01 106.971 280.334 106.971C277.659 106.971 275.479 104.795 275.479 102.125C275.47 99.4548 277.65 97.2791 280.334 97.2791ZM280.334 103.653C281.181 103.653 281.866 102.97 281.866 102.125C281.866 101.28 281.181 100.597 280.334 100.597C279.487 100.597 278.803 101.28 278.803 102.125C278.794 102.97 279.487 103.653 280.334 103.653Z" fill="white"/>
<path d="M76.9142 19.447C79.5897 19.447 81.7697 21.6228 81.7697 24.293C81.7697 26.9632 79.5897 29.139 76.9142 29.139C74.2386 29.139 72.0586 26.9632 72.0586 24.293C72.0586 21.6228 74.2386 19.447 76.9142 19.447ZM76.9142 25.8214C77.761 25.8214 78.4456 25.1381 78.4456 24.293C78.4456 23.4479 77.761 22.7646 76.9142 22.7646C76.0674 22.7646 75.3827 23.4479 75.3827 24.293C75.3827 25.1381 76.0674 25.8214 76.9142 25.8214Z" fill="white"/>
<path d="M20.3048 170.859C22.9803 170.859 25.1604 173.035 25.1604 175.705C25.1604 178.375 22.9803 180.551 20.3048 180.551C17.6293 180.551 15.4492 178.375 15.4492 175.705C15.4492 173.035 17.6293 170.859 20.3048 170.859ZM20.3048 177.242C21.1516 177.242 21.8362 176.559 21.8362 175.714C21.8362 174.869 21.1516 174.185 20.3048 174.185C19.458 174.185 18.7733 174.869 18.7733 175.714C18.7733 176.55 19.458 177.242 20.3048 177.242Z" fill="white"/>
<path d="M11.0356 111.574C15.5399 116.07 21.6476 118.596 28.0166 118.596C32.8001 118.596 37.4394 117.166 41.3581 114.559L24.26 131.623C19.7558 136.119 17.2244 142.214 17.2244 148.571C17.2244 154.927 19.7558 161.023 24.26 165.518C28.7643 170.014 34.872 172.54 41.241 172.54C46.0245 172.54 50.6639 171.11 54.5826 168.503L45.6101 177.458C41.1059 181.953 38.5745 188.049 38.5745 194.405C38.5745 200.762 41.1059 206.857 45.6101 211.353C50.1144 215.848 56.2221 218.374 62.5911 218.374C67.3746 218.374 72.014 216.945 75.9326 214.338L73.7436 216.522C69.2393 221.018 66.708 227.113 66.708 233.47C66.708 239.826 69.2393 245.922 73.7436 250.417C78.2478 254.912 84.3556 257.439 90.7245 257.439C97.0935 257.439 103.201 254.912 107.706 250.417L130.488 227.716C127.866 231.627 126.443 236.257 126.443 241.031C126.443 247.387 128.975 253.483 133.479 257.978C137.983 262.474 144.091 265 150.46 265C156.829 265 162.936 262.474 167.441 257.978L202.024 223.463C199.403 227.374 197.979 232.004 197.979 236.778C197.979 243.135 200.511 249.23 205.015 253.726C209.519 258.221 215.627 260.747 221.996 260.747C228.365 260.747 234.473 258.221 238.977 253.726L292.821 199.988C297.325 195.493 299.856 189.397 299.856 183.041C299.856 176.685 297.325 170.589 292.821 166.094C288.316 161.598 282.209 159.072 275.84 159.072C271.056 159.072 266.417 160.501 262.498 163.109L273.768 151.861C278.272 147.366 280.803 141.27 280.803 134.914C280.803 128.558 278.272 122.462 273.768 117.967C269.263 113.471 263.156 110.945 256.787 110.945C252.003 110.945 247.364 112.374 243.445 114.982L266.21 92.2623C270.714 87.7669 273.245 81.6712 273.245 75.3148C273.245 68.9584 270.714 62.8628 266.21 58.3674C261.705 53.8721 255.598 51.3457 249.229 51.3457C244.445 51.3457 239.806 52.7752 235.887 55.3825L250.382 40.9165C254.886 36.4212 257.417 30.3255 257.417 23.9691C257.417 17.6127 254.886 11.517 250.382 7.02171C245.877 2.52638 239.77 0 233.401 0C227.032 0 220.924 2.52638 216.42 7.02171L184.133 39.2443C186.755 35.3333 188.178 30.7031 188.178 25.9291C188.178 19.5727 185.647 13.477 181.143 8.98168C176.638 4.48634 170.531 1.95996 164.162 1.95996C157.766 1.95996 151.658 4.47735 147.154 8.97269L101.832 54.2047C104.453 50.2938 105.877 45.6636 105.877 40.8896C105.877 34.5332 103.345 28.4375 98.8412 23.9422C94.3369 19.4468 88.2292 16.9204 81.8602 16.9204C75.4912 16.9204 69.3835 19.4468 64.8792 23.9422L11.0356 77.6704C6.53138 82.1657 4 88.2614 4 94.6178C4 100.974 6.53138 107.079 11.0356 111.574Z" fill="#1C3D45"/>
<path d="M299.154 213.753L297.497 215.407C296.848 216.055 296.848 217.107 297.497 217.754C298.145 218.401 299.199 218.401 299.848 217.754L301.505 216.1L303.163 217.754C303.812 218.401 304.866 218.401 305.514 217.754C306.163 217.107 306.163 216.055 305.514 215.407L303.857 213.753L305.514 212.099C306.163 211.452 306.163 210.4 305.514 209.752C305.19 209.429 304.767 209.267 304.334 209.267C303.902 209.267 303.478 209.429 303.154 209.752L301.496 211.407L299.839 209.752C299.515 209.429 299.091 209.267 298.659 209.267C298.226 209.267 297.803 209.429 297.479 209.752C296.83 210.4 296.83 211.452 297.479 212.099L299.154 213.753Z" fill="#3D737F"/>
<path d="M61.663 249.491L60.0054 251.145C59.3568 251.793 59.3568 252.844 60.0054 253.492C60.6541 254.139 61.7081 254.139 62.3567 253.492L64.0142 251.838L65.6718 253.492C66.3204 254.139 67.3744 254.139 68.023 253.492C68.6716 252.844 68.6716 251.793 68.023 251.145L66.3654 249.491L68.023 247.837C68.6716 247.189 68.6716 246.137 68.023 245.49C67.6987 245.166 67.2753 245.005 66.8429 245.005C66.4105 245.005 65.9871 245.166 65.6628 245.49L64.0052 247.144L62.3476 245.49C62.0233 245.166 61.5999 245.005 61.1675 245.005C60.7441 245.005 60.3117 245.166 59.9874 245.49C59.3388 246.137 59.3388 247.189 59.9874 247.837L61.663 249.491Z" fill="#3D737F"/>
<path d="M19.1425 102.467L17.4849 104.121C16.8363 104.768 16.8363 105.82 17.4849 106.467C18.1336 107.115 19.1875 107.115 19.8362 106.467L21.4937 104.813L23.1513 106.467C23.7999 107.115 24.8539 107.115 25.5025 106.467C26.1511 105.82 26.1511 104.768 25.5025 104.121L23.8449 102.467L25.5025 100.812C26.1511 100.165 26.1511 99.1131 25.5025 98.4657C25.1782 98.1421 24.7548 97.9802 24.3224 97.9802C23.899 97.9802 23.4666 98.1421 23.1423 98.4657L21.4847 100.12L19.8271 98.4657C19.5028 98.1421 19.0794 97.9802 18.647 97.9802C18.2236 97.9802 17.7912 98.1421 17.4669 98.4657C16.8183 99.1131 16.8183 100.165 17.4669 100.812L19.1425 102.467Z" fill="#3D737F"/>
<path d="M219.176 17.2168L217.518 18.8711C216.87 19.5184 216.87 20.5703 217.518 21.2177C218.167 21.865 219.221 21.865 219.869 21.2177L221.527 19.5634L223.184 21.2177C223.833 21.865 224.887 21.865 225.536 21.2177C226.184 20.5703 226.184 19.5184 225.536 18.8711L223.878 17.2168L225.536 15.5625C226.184 14.9152 226.184 13.8633 225.536 13.216C225.211 12.8923 224.788 12.7305 224.356 12.7305C223.932 12.7305 223.5 12.8923 223.175 13.216L221.518 14.8702L219.86 13.216C219.536 12.8923 219.113 12.7305 218.68 12.7305C218.257 12.7305 217.824 12.8923 217.5 13.216C216.852 13.8633 216.852 14.9152 217.5 15.5625L219.176 17.2168Z" fill="#3D737F"/>
<path d="M188.754 251.802C191.43 251.802 193.61 253.978 193.61 256.648C193.61 259.318 191.43 261.494 188.754 261.494C186.079 261.494 183.898 259.318 183.898 256.648C183.889 253.978 186.07 251.802 188.754 251.802ZM188.754 258.185C189.601 258.185 190.285 257.502 190.285 256.657C190.285 255.812 189.601 255.128 188.754 255.128C187.907 255.128 187.223 255.812 187.223 256.657C187.223 257.502 187.907 258.185 188.754 258.185Z" fill="#3D737F"/>
<path d="M280.334 97.2791C283.01 97.2791 285.19 99.4548 285.19 102.125C285.19 104.795 283.01 106.971 280.334 106.971C277.659 106.971 275.479 104.795 275.479 102.125C275.47 99.4548 277.65 97.2791 280.334 97.2791ZM280.334 103.653C281.181 103.653 281.866 102.97 281.866 102.125C281.866 101.28 281.181 100.597 280.334 100.597C279.487 100.597 278.803 101.28 278.803 102.125C278.794 102.97 279.487 103.653 280.334 103.653Z" fill="#3D737F"/>
<path d="M76.9142 19.447C79.5897 19.447 81.7697 21.6228 81.7697 24.293C81.7697 26.9632 79.5897 29.139 76.9142 29.139C74.2386 29.139 72.0586 26.9632 72.0586 24.293C72.0586 21.6228 74.2386 19.447 76.9142 19.447ZM76.9142 25.8214C77.761 25.8214 78.4456 25.1381 78.4456 24.293C78.4456 23.4479 77.761 22.7646 76.9142 22.7646C76.0674 22.7646 75.3827 23.4479 75.3827 24.293C75.3827 25.1381 76.0674 25.8214 76.9142 25.8214Z" fill="#3D737F"/>
<path d="M20.3048 170.859C22.9803 170.859 25.1604 173.035 25.1604 175.705C25.1604 178.375 22.9803 180.551 20.3048 180.551C17.6293 180.551 15.4492 178.375 15.4492 175.705C15.4492 173.035 17.6293 170.859 20.3048 170.859ZM20.3048 177.242C21.1516 177.242 21.8362 176.559 21.8362 175.714C21.8362 174.869 21.1516 174.185 20.3048 174.185C19.458 174.185 18.7733 174.869 18.7733 175.714C18.7733 176.55 19.458 177.242 20.3048 177.242Z" fill="#3D737F"/>
</g>
<path d="M253.108 74.0306C249.704 66.4649 244.944 59.5879 238.908 53.5481C238.005 52.6368 237.071 51.7573 236.107 50.8884C234.852 49.7546 233.245 49.1188 231.598 49.0977C231.568 49.0977 231.538 49.0977 231.518 49.0977C230.483 49.0977 229.479 49.3308 228.565 49.7758C227.651 50.2209 226.828 50.8672 226.155 51.7043C225.03 53.0924 224.428 54.8302 224.458 56.6528C224.458 56.8117 224.468 56.9707 224.478 57.1402C224.579 58.4329 224.98 59.6621 225.653 60.7111C226.005 61.2727 226.436 61.7814 226.938 62.2264C227.611 62.841 228.274 63.4556 228.907 64.0913C235.675 70.7882 240.425 78.7141 242.855 87.2547C244.1 91.6204 244.743 96.145 244.743 100.754C244.743 115.218 238.416 128.909 226.938 139.272C225.502 140.564 224.639 142.376 224.488 144.358C224.468 144.58 224.468 144.803 224.468 145.025C224.478 146.308 224.8 147.547 225.402 148.649C225.623 149.052 225.874 149.433 226.165 149.783C227.511 151.436 229.469 152.39 231.538 152.39C233.225 152.39 234.852 151.754 236.137 150.599C243.508 143.945 249.222 136.156 253.138 127.446C256.954 118.948 258.892 109.973 258.892 100.744C258.852 91.5038 256.924 82.5182 253.108 74.0306ZM233.687 147.611C233.054 148.183 232.281 148.459 231.508 148.459C230.744 148.459 229.981 148.183 229.369 147.643C229.228 147.516 229.087 147.378 228.957 147.219C228.575 146.742 228.334 146.202 228.224 145.629C227.983 144.411 228.364 143.097 229.328 142.228C241.65 131.102 248.438 116.363 248.438 100.723C248.438 86.0361 242.453 72.1445 231.518 61.2939C230.805 60.5946 230.082 59.9058 229.328 59.2277C228.997 58.931 228.736 58.5707 228.535 58.1892C227.913 56.9495 228.043 55.3812 228.957 54.2474C229.62 53.4315 230.564 53.0077 231.508 53.0077C232.281 53.0077 233.054 53.2832 233.687 53.8554C234.57 54.6607 235.434 55.4766 236.277 56.3137C242.011 62.0357 246.53 68.5523 249.754 75.7048C251.039 78.5764 252.104 81.501 252.927 84.4785C254.403 89.766 255.146 95.2019 255.146 100.733C255.146 109.369 253.329 117.793 249.754 125.761C246.058 133.963 240.656 141.317 233.687 147.611Z" fill="#E5DFD8"/>
<path d="M235.092 84.5104C232.943 79.7209 229.881 75.387 225.994 71.6359C225.633 71.2863 225.251 70.926 224.87 70.5869C223.614 69.4531 222.008 68.8173 220.361 68.7961C220.331 68.7961 220.301 68.7961 220.28 68.7961C219.246 68.7961 218.242 69.0293 217.328 69.4743C216.414 69.9193 215.581 70.5657 214.918 71.4028C213.793 72.7909 213.191 74.5287 213.221 76.3513C213.221 76.5102 213.231 76.6691 213.241 76.8281C213.341 78.1738 213.773 79.4454 214.496 80.5262C214.838 81.0348 215.239 81.501 215.691 81.9143C215.792 81.999 215.882 82.0838 215.972 82.1686C219.467 85.411 221.957 89.2575 223.293 93.4112C224.056 95.7636 224.448 98.2219 224.448 100.723C224.448 107.748 221.335 114.434 215.681 119.542C214.245 120.834 213.382 122.646 213.231 124.628C213.211 124.85 213.211 125.073 213.211 125.295C213.221 126.577 213.542 127.817 214.145 128.919C214.366 129.322 214.617 129.693 214.908 130.053C216.254 131.706 218.212 132.66 220.28 132.66C221.968 132.66 223.594 132.024 224.88 130.869C229.298 126.874 232.733 122.191 235.092 116.945C237.412 111.796 238.587 106.339 238.587 100.723C238.577 95.1278 237.402 89.6707 235.092 84.5104ZM222.46 127.902C221.827 128.474 221.054 128.75 220.28 128.75C219.517 128.75 218.754 128.474 218.142 127.934C218.001 127.807 217.86 127.669 217.73 127.51C217.348 127.033 217.107 126.493 216.997 125.92C216.756 124.702 217.137 123.388 218.101 122.519C224.588 116.659 228.163 108.913 228.163 100.723C228.163 92.7436 224.779 85.1991 218.614 79.403C218.443 79.244 218.272 79.0851 218.101 78.9261C217.81 78.6612 217.569 78.3539 217.388 78.0255C216.685 76.7645 216.776 75.1115 217.73 73.9353C218.393 73.1194 219.337 72.6956 220.28 72.6956C221.054 72.6956 221.827 72.9711 222.46 73.5432C222.771 73.8293 223.082 74.1155 223.383 74.4016C226.958 77.8347 229.77 81.7977 231.738 86.174C232.391 87.6257 232.943 89.0985 233.385 90.5926C234.369 93.8774 234.861 97.2576 234.861 100.712C234.861 105.735 233.807 110.63 231.728 115.25C229.599 120.018 226.476 124.267 222.46 127.902Z" fill="#E5DFD8"/>
<path d="M87.8774 139.251C87.4255 138.848 86.9836 138.435 86.5518 138.011C85.4171 136.919 84.3325 135.796 83.3083 134.641C74.7324 124.977 70.073 113.141 70.073 100.733C70.073 86.2588 76.3994 72.579 87.8774 62.2053C89.3134 60.9126 90.177 59.1006 90.3276 57.1191C90.4682 55.127 89.8757 53.2091 88.6506 51.6938C88.1184 51.0369 87.4958 50.4965 86.8029 50.0832C85.7685 49.458 84.5836 49.1084 83.3685 49.0872C83.3384 49.0872 83.3083 49.0872 83.2781 49.0872C82.4346 49.0872 81.6112 49.2461 80.8279 49.5534C80.0446 49.8607 79.3216 50.3057 78.6789 50.8885C71.3081 57.543 65.5942 65.3312 61.6779 74.0413C57.8619 82.5395 55.9238 91.5145 55.9238 100.744C55.9238 105.491 56.436 110.174 57.4502 114.752C58.4142 119.075 59.8201 123.324 61.6779 127.446C64.57 133.889 68.4562 139.833 73.2663 145.184C74.9533 147.06 76.7609 148.872 78.6689 150.599C79.9543 151.754 81.5811 152.39 83.2681 152.39C85.3367 152.39 87.2949 151.436 88.6406 149.783C89.8657 148.268 90.4682 146.339 90.3176 144.358C90.177 142.355 89.3033 140.554 87.8774 139.251ZM85.4572 59.2278C73.1358 70.3538 66.3474 85.0932 66.3474 100.733C66.3474 104.548 66.7491 108.299 67.5424 111.965C69.5407 121.258 74.0094 129.947 80.6672 137.417C81.6212 138.477 82.6053 139.526 83.6497 140.533C84.2422 141.115 84.8447 141.677 85.4673 142.239C85.6179 142.376 85.7485 142.514 85.869 142.673C86.8932 143.976 86.9033 145.894 85.8288 147.23C85.166 148.045 84.2221 148.469 83.2781 148.469C82.525 148.469 81.7618 148.204 81.1392 147.653C81.1292 147.643 81.1091 147.632 81.099 147.611C79.2513 145.947 77.5241 144.21 75.8973 142.398C71.3885 137.364 67.7533 131.791 65.0419 125.762C61.467 117.793 59.6494 109.38 59.6494 100.733C59.6494 92.0867 61.467 83.6733 65.0419 75.7049C68.7273 67.5034 74.1299 60.1496 81.099 53.8555C81.7317 53.2833 82.5049 53.0078 83.2781 53.0078C83.5091 53.0078 83.73 53.029 83.961 53.0819C84.6639 53.2303 85.3267 53.6223 85.8288 54.2475C85.8388 54.2581 85.8489 54.2793 85.8589 54.2899C87.0238 55.7734 86.8531 57.9668 85.4572 59.2278Z" fill="#E5DFD8"/>
<path d="M99.1044 119.553C98.6123 119.107 98.1504 118.662 97.6985 118.196C97.1763 117.656 96.6843 117.105 96.2123 116.543C92.4064 111.944 90.3478 106.456 90.3478 100.744C90.3478 93.7189 93.4608 87.0327 99.1144 81.9253C100.55 80.6325 101.414 78.8206 101.565 76.8391C101.715 74.847 101.113 72.9291 99.8877 71.4138C99.3554 70.7568 98.7328 70.2164 98.05 69.8032C97.0157 69.178 95.8307 68.8283 94.6156 68.8071C94.5855 68.8071 94.5554 68.8071 94.5253 68.8071C92.8382 68.8071 91.2114 69.4429 89.926 70.5979C85.5076 74.5927 82.0632 79.2762 79.7134 84.5214C77.3937 89.6817 76.2188 95.1388 76.2188 100.744C76.2188 103.393 76.4798 106.021 77.002 108.585C77.5845 111.446 78.4882 114.244 79.7033 116.956C81.3502 120.612 83.5193 124.003 86.1804 127.076C87.3352 128.4 88.5804 129.672 89.916 130.88C91.1913 132.035 92.8282 132.671 94.5152 132.671C96.5839 132.671 98.542 131.717 99.8877 130.064C101.113 128.549 101.715 126.62 101.565 124.639C101.414 122.647 100.54 120.845 99.1044 119.553ZM96.6943 78.9371C90.2072 84.7968 86.6323 92.5427 86.6323 100.734C86.6323 102.45 86.7929 104.146 87.0942 105.809C87.998 110.705 90.2072 115.314 93.5713 119.309C93.9629 119.775 94.3746 120.231 94.7964 120.676C95.3989 121.311 96.0315 121.926 96.6943 122.53C96.8449 122.668 96.9755 122.806 97.096 122.964C98.1203 124.268 98.1404 126.186 97.0558 127.521C96.3931 128.337 95.4491 128.761 94.5052 128.761C93.752 128.761 92.9888 128.496 92.3763 127.945C92.3662 127.934 92.3461 127.924 92.3361 127.902C91.0708 126.758 89.9059 125.561 88.8214 124.31C86.4515 121.566 84.5235 118.535 83.0674 115.282C80.9887 110.652 79.9343 105.767 79.9343 100.744C79.9343 95.7216 80.9887 90.8261 83.0674 86.2061C85.1963 81.459 88.3193 77.2099 92.3461 73.5754C92.9788 73.0032 93.752 72.7277 94.5253 72.7277C94.7562 72.7277 94.9771 72.7489 95.2081 72.8019C95.911 72.9503 96.5738 73.3423 97.0759 73.9675C97.086 73.9781 97.096 73.9993 97.106 74.0099C98.2609 75.4828 98.0801 77.6762 96.6943 78.9371Z" fill="#E5DFD8"/>
<path d="M228.907 147.664C227.38 147.664 225.934 146.965 224.95 145.746C224.046 144.634 223.604 143.214 223.715 141.741C223.825 140.279 224.468 138.944 225.522 137.99C237.422 127.235 243.98 113.025 243.98 97.9785C243.98 82.9318 237.422 68.7223 225.522 57.9671C224.468 57.0134 223.825 55.6783 223.715 54.216C223.604 52.7537 224.046 51.3338 224.95 50.2106C225.944 48.9921 227.38 48.2927 228.907 48.2927C230.152 48.2927 231.347 48.759 232.291 49.6173C239.461 56.0916 245.024 63.6679 248.82 72.1131C252.515 80.3463 254.393 89.0459 254.393 97.9785C254.393 106.911 252.515 115.611 248.82 123.844C245.024 132.3 239.461 139.865 232.291 146.34C231.347 147.198 230.142 147.664 228.907 147.664Z" fill="#E5DFD8"/>
<path d="M217.669 127.965C216.143 127.965 214.697 127.266 213.713 126.048C212.809 124.935 212.367 123.515 212.478 122.042C212.588 120.58 213.231 119.245 214.285 118.291C220.35 112.813 223.694 105.597 223.694 97.9887C223.694 90.3806 220.35 83.1646 214.285 77.6863C213.231 76.7327 212.588 75.3975 212.478 73.9353C212.367 72.473 212.809 71.0531 213.713 69.9299C214.707 68.7113 216.143 68.012 217.669 68.012C218.914 68.012 220.109 68.4782 221.053 69.3365C225.271 73.1511 228.555 77.6122 230.794 82.6136C232.993 87.4984 234.108 92.68 234.108 97.9887C234.108 103.297 232.993 108.479 230.794 113.364C228.545 118.365 225.271 122.826 221.053 126.641C220.109 127.489 218.914 127.965 217.669 127.965Z" fill="#E5DFD8"/>
<path d="M80.6681 147.664C79.4229 147.664 78.2279 147.198 77.284 146.34C70.114 139.865 64.5508 132.289 60.7549 123.844C57.0595 115.611 55.1816 106.911 55.1816 97.9785C55.1816 89.0459 57.0595 80.3463 60.7549 72.1131C64.5508 63.6573 70.114 56.0916 77.284 49.6173C78.2279 48.7696 79.433 48.2927 80.6681 48.2927C82.1945 48.2927 83.6406 48.9921 84.6247 50.2106C86.4925 52.51 86.2414 55.9856 84.0523 57.9671C72.1526 68.7223 65.5952 82.9318 65.5952 97.9785C65.5952 113.025 72.1526 127.235 84.0523 137.99C85.1067 138.944 85.7494 140.279 85.8598 141.741C85.9703 143.203 85.5285 144.623 84.6247 145.746C83.6406 146.965 82.1945 147.664 80.6681 147.664Z" fill="#E5DFD8"/>
<path d="M91.9035 127.965C90.6583 127.965 89.4633 127.499 88.5194 126.641C84.3018 122.826 81.018 118.365 78.7787 113.364C76.5795 108.479 75.4648 103.297 75.4648 97.9887C75.4648 92.68 76.5795 87.4984 78.7787 82.6136C81.0281 77.6122 84.3018 73.1511 88.5194 69.3365C89.4633 68.4888 90.6684 68.012 91.9035 68.012C93.4299 68.012 94.876 68.7113 95.8601 69.9299C96.7638 71.0425 97.2057 72.4624 97.0952 73.9353C96.9848 75.4081 96.3421 76.7327 95.2877 77.6863C89.2223 83.1646 85.8784 90.3806 85.8784 97.9887C85.8784 105.597 89.2223 112.813 95.2877 118.291C96.3421 119.245 96.9848 120.58 97.0952 122.042C97.2057 123.504 96.7638 124.924 95.8601 126.048C94.8659 127.256 93.4299 127.965 91.9035 127.965Z" fill="#E5DFD8"/>
<path d="M205.136 61.8027H104.436V185.768H205.136V61.8027Z" fill="#3D737F"/>
<path d="M114.337 215.713C108.874 215.713 104.436 211.03 104.436 205.265V185.853H205.136V205.265C205.136 211.03 200.698 215.713 195.235 215.713H114.337Z" fill="#E5DFD8"/>
<path d="M167.601 197.117C166.587 196.502 165.412 196.142 164.166 196.131C164.136 196.131 164.116 196.131 164.086 196.131H150.71C146.814 196.131 143.641 199.48 143.641 203.591C143.641 203.623 143.641 203.654 143.641 203.676C143.651 205 143.992 206.229 144.585 207.3C145.81 209.535 148.099 211.04 150.71 211.04H164.086C167.982 211.04 171.156 207.692 171.156 203.58C171.146 200.815 169.72 198.409 167.601 197.117ZM164.076 207.119H150.7C149.897 207.119 149.164 206.823 148.591 206.335C147.999 205.827 147.577 205.117 147.416 204.301C147.376 204.068 147.346 203.835 147.346 203.58C147.346 201.631 148.842 200.041 150.7 200.041H164.076C164.307 200.041 164.538 200.062 164.749 200.115C165.512 200.285 166.175 200.719 166.657 201.323C167.139 201.938 167.43 202.722 167.43 203.58C167.43 205.53 165.934 207.119 164.076 207.119Z" fill="#E5DFD8"/>
<path d="M104.436 61.718V47.7416C104.436 41.9772 108.874 37.2937 114.337 37.2937H195.235C200.698 37.2937 205.136 41.9772 205.136 47.7416V61.718H104.436Z" fill="#E5DFD8"/>
<path d="M163.031 45.7917C162.017 45.1771 160.842 44.8168 159.597 44.7957C159.566 44.7957 159.546 44.7957 159.516 44.7957H155.279C151.382 44.7957 148.209 48.1441 148.209 52.2554C148.209 52.2872 148.209 52.3084 148.209 52.3402C148.219 53.6541 148.56 54.8939 149.153 55.9641C150.378 58.1999 152.668 59.7046 155.279 59.7046H159.516C163.413 59.7046 166.586 56.3561 166.586 52.2448C166.576 49.4898 165.15 47.0738 163.031 45.7917ZM159.516 55.7945H155.279C154.475 55.7945 153.742 55.4978 153.17 54.9998C152.577 54.4912 152.155 53.7813 151.995 52.9654C151.955 52.7322 151.925 52.4991 151.925 52.2554C151.925 50.3057 153.421 48.7163 155.279 48.7163H159.516C159.747 48.7163 159.978 48.7374 160.189 48.7904C160.952 48.96 161.615 49.3944 162.097 49.9984C162.579 50.613 162.87 51.3971 162.87 52.2554C162.86 54.2051 161.364 55.7945 159.516 55.7945Z" fill="#E5DFD8"/>
<path d="M152.669 54.9999C149.797 54.9999 147.457 52.531 147.457 49.5004C147.457 46.4699 149.797 44.001 152.669 44.001H156.907C159.779 44.001 162.118 46.4699 162.118 49.5004C162.118 52.531 159.779 54.9999 156.907 54.9999H152.669Z" fill="#B3B3B3"/>
<path d="M148.099 206.325C145.226 206.325 142.887 203.856 142.887 200.825C142.887 197.795 145.226 195.326 148.099 195.326H161.464C164.336 195.326 166.676 197.795 166.676 200.825C166.676 203.856 164.336 206.325 161.464 206.325H148.099Z" fill="#B3B3B3"/>
<path d="M204.746 40.4514C203.149 39.2223 201.251 38.417 199.193 38.1627C198.751 38.1097 198.299 38.0779 197.837 38.0779H116.939C110.452 38.0779 105.18 43.6409 105.18 50.4861V208.01C105.18 208.497 105.21 208.963 105.26 209.43C105.431 210.966 105.863 212.428 106.515 213.742C106.786 214.283 107.088 214.802 107.429 215.289C108.042 216.179 108.755 216.974 109.568 217.663H114.258C114.278 217.663 114.308 217.663 114.338 217.663H195.236C195.256 217.663 195.286 217.663 195.316 217.663H205.218C206.473 216.593 207.517 215.258 208.271 213.742C209.124 212.026 209.606 210.076 209.606 207.999V50.4967C209.606 46.3641 207.688 42.7084 204.746 40.4514ZM108.905 50.4967C108.905 45.8131 112.51 42.0091 116.949 42.0091H197.847C199.393 42.0091 200.849 42.4753 202.085 43.2806C203.39 44.1283 204.445 45.3681 205.107 46.8304C205.609 47.943 205.891 49.1827 205.891 50.4967V62.5128H108.905V50.4967ZM108.905 66.5076H205.891V186.552H108.905V66.5076ZM116.949 216.508C115.704 216.508 114.529 216.211 113.484 215.681C112.55 215.215 111.717 214.558 111.024 213.763C110.683 213.371 110.381 212.948 110.11 212.492C109.347 211.199 108.905 209.663 108.905 208.031V190.579H205.891V208.031C205.891 210.246 205.087 212.259 203.772 213.774C202.306 215.469 200.187 216.529 197.847 216.529H116.949V216.508Z" fill="#E5DFD8"/>
<path d="M250.497 71.2756C247.605 64.8331 243.718 58.8886 238.898 53.5375C237.211 51.6619 235.404 49.85 233.496 48.1228C232.22 46.9678 230.583 46.332 228.896 46.332C226.828 46.332 224.87 47.2857 223.524 48.9387C222.299 50.454 221.696 52.3825 221.847 54.364C221.998 56.3455 222.861 58.1574 224.297 59.4502C224.749 59.8528 225.191 60.2661 225.623 60.6793C226.757 61.7708 227.842 62.9045 228.876 64.0595C237.452 73.7233 242.102 85.5487 242.102 97.9675C242.102 112.442 235.775 126.122 224.297 136.495C222.861 137.788 221.998 139.6 221.847 141.582C221.706 143.574 222.299 145.492 223.524 147.007C224.056 147.664 224.679 148.204 225.372 148.618C226.436 149.264 227.641 149.614 228.896 149.614C230.583 149.614 232.21 148.978 233.496 147.823C240.866 141.168 246.58 133.38 250.497 124.67C254.313 116.172 256.251 107.197 256.251 97.9675C256.251 88.7382 254.313 79.7738 250.497 71.2756ZM228.906 145.704C228.675 145.704 228.455 145.682 228.224 145.629C227.521 145.481 226.858 145.089 226.356 144.464C225.151 142.98 225.311 140.745 226.717 139.473C239.039 128.347 245.827 113.608 245.827 97.9675C245.827 84.4997 240.786 71.6888 231.517 61.2833C230.573 60.2237 229.579 59.1853 228.545 58.168C227.952 57.5852 227.35 57.0236 226.727 56.462C225.321 55.1905 225.161 52.9547 226.366 51.4712C227.029 50.6553 227.973 50.2314 228.916 50.2314C229.69 50.2314 230.463 50.5069 231.096 51.0791C232.933 52.7427 234.671 54.4805 236.287 56.2819C240.796 61.3151 244.441 66.8887 247.153 72.9286C250.728 80.897 252.545 89.3104 252.545 97.9569C252.545 106.603 250.728 115.017 247.153 122.985C243.467 131.187 238.065 138.54 231.096 144.835C230.453 145.428 229.68 145.704 228.906 145.704Z" fill="#575757"/>
<path d="M232.482 81.7656C230.835 78.0993 228.666 74.7085 225.995 71.6356C224.84 70.311 223.595 69.0395 222.269 67.8315C220.994 66.6765 219.357 66.0408 217.67 66.0408C215.601 66.0408 213.643 66.9944 212.297 68.6474C211.072 70.1627 210.47 72.0912 210.62 74.0727C210.761 76.0542 211.635 77.8662 213.071 79.1589C213.563 79.6039 214.025 80.049 214.476 80.5152C214.999 81.045 215.491 81.596 215.963 82.1682C219.779 86.767 221.837 92.2559 221.837 97.9778C221.837 105.003 218.724 111.689 213.071 116.797C211.635 118.089 210.771 119.901 210.62 121.883C210.47 123.864 211.072 125.793 212.297 127.308C212.83 127.965 213.452 128.506 214.145 128.919C215.21 129.565 216.415 129.915 217.67 129.915C219.357 129.915 220.984 129.279 222.269 128.124C226.688 124.129 230.122 119.446 232.482 114.201C234.801 109.051 235.976 103.594 235.976 97.9778C235.976 92.3618 234.801 86.9154 232.482 81.7656ZM217.67 125.994C217.439 125.994 217.218 125.973 216.987 125.92C216.284 125.772 215.621 125.38 215.119 124.755C213.914 123.271 214.075 121.035 215.481 119.764C221.968 113.904 225.543 106.158 225.543 97.9672C225.543 91.1962 223.103 84.7431 218.604 79.4026C218.212 78.9364 217.8 78.4807 217.379 78.0357C216.776 77.3999 216.143 76.7854 215.481 76.1814C214.075 74.9098 213.914 72.674 215.119 71.1905C215.782 70.3746 216.726 69.9508 217.67 69.9508C218.443 69.9508 219.216 70.2263 219.849 70.7985C221.114 71.9429 222.289 73.1508 223.374 74.4118C225.734 77.1562 227.662 80.1761 229.118 83.4292C231.196 88.0597 232.251 92.9446 232.251 97.9672C232.251 102.99 231.196 107.885 229.118 112.505C226.989 117.252 223.866 121.501 219.839 125.136C219.216 125.719 218.443 125.994 217.67 125.994Z" fill="#575757"/>
<path d="M86.5414 138.021C86.1899 137.46 85.7581 136.951 85.266 136.506C84.5932 135.902 83.9405 135.277 83.2978 134.641C73.065 124.522 67.4616 111.594 67.4616 97.9781C67.4616 83.5142 73.7881 69.8239 85.266 59.4502C86.702 58.1574 87.5757 56.3455 87.7163 54.364C87.8267 52.8487 87.5054 51.3652 86.8025 50.0725C86.5815 49.6698 86.3305 49.299 86.0393 48.9387C84.6936 47.2857 82.7355 46.332 80.6668 46.332C79.8233 46.332 78.9998 46.491 78.2166 46.7983C77.4333 47.1056 76.7103 47.5506 76.0676 48.1228C68.6968 54.7772 62.9829 62.5655 59.0666 71.2756C55.2506 79.7632 53.3125 88.7488 53.3125 97.9781C53.3125 107.207 55.2506 116.193 59.0666 124.681C62.4708 132.246 67.2307 139.123 73.2659 145.163C74.1697 146.074 75.1036 146.954 76.0676 147.823C77.3429 148.978 78.9798 149.614 80.6668 149.614C82.7355 149.614 84.6936 148.66 86.0393 147.007C87.2644 145.492 87.8669 143.563 87.7163 141.582C87.6259 140.289 87.2142 139.07 86.5414 138.021ZM80.6668 145.704C79.8936 145.704 79.1203 145.428 78.4877 144.856C77.594 144.051 76.7304 143.224 75.8969 142.387C70.173 136.665 65.6541 130.159 62.4406 123.006C58.8657 115.038 57.0481 106.625 57.0481 97.9781C57.0481 89.3422 58.8657 80.9181 62.4406 72.9498C66.126 64.7483 71.5286 57.3945 78.4978 51.1003C79.1304 50.5281 79.9036 50.2526 80.6769 50.2526C81.6208 50.2526 82.5647 50.6765 83.2275 51.4924C83.6091 51.9692 83.8501 52.5096 83.9606 53.0818C84.2016 54.3004 83.82 55.6143 82.856 56.4832C70.5345 67.6093 63.7461 82.3486 63.7461 97.9887C63.7461 112.675 69.7311 126.567 80.6668 137.417C81.3798 138.117 82.1028 138.816 82.856 139.494C83.1873 139.791 83.4585 140.151 83.6493 140.533C84.2719 141.772 84.1413 143.341 83.2275 144.474C82.5547 145.29 81.6108 145.704 80.6668 145.704Z" fill="#575757"/>
<path d="M97.6984 118.185C97.3569 117.676 96.9653 117.21 96.5034 116.797C96.403 116.712 96.3126 116.627 96.2122 116.532C90.7393 111.467 87.7367 104.887 87.7367 97.9778C87.7367 90.9525 90.8497 84.2663 96.5034 79.1589C97.9394 77.8662 98.803 76.0542 98.9536 74.0727C99.0641 72.5575 98.7427 71.074 98.0398 69.7812C97.8189 69.3786 97.5678 68.9971 97.2766 68.6474C95.931 66.9944 93.9728 66.0408 91.9042 66.0408C90.2171 66.0408 88.5903 66.6765 87.3049 67.8315C82.8865 71.8263 79.4521 76.5098 77.0923 81.755C74.7726 86.9048 73.5977 92.3618 73.5977 97.9778C73.5977 103.594 74.7726 109.04 77.0923 114.201C79.2412 118.99 82.294 123.313 86.1802 127.075C86.5518 127.435 86.9233 127.785 87.3049 128.135C88.5803 129.29 90.2171 129.925 91.9042 129.925C93.9728 129.925 95.931 128.972 97.2766 127.319C98.5017 125.804 99.1042 123.875 98.9536 121.894C98.8532 120.537 98.4214 119.266 97.6984 118.185ZM91.9042 125.994C91.1309 125.994 90.3577 125.719 89.725 125.147C89.4137 124.871 89.1125 124.585 88.8112 124.299C85.2262 120.855 82.4145 116.903 80.4463 112.516C78.3676 107.885 77.3132 103 77.3132 97.9778C77.3132 92.9552 78.3676 88.0597 80.4463 83.4398C82.5752 78.6927 85.6982 74.4436 89.725 70.8091C90.3577 70.2369 91.1309 69.9614 91.9042 69.9614C92.8481 69.9614 93.792 70.3852 94.4548 71.2011C94.8364 71.678 95.0774 72.2184 95.1879 72.7906C95.4289 74.0091 95.0473 75.3231 94.0833 76.192C87.5962 82.0517 84.0212 89.7975 84.0212 97.9884C84.0212 105.967 87.4054 113.512 93.5711 119.308C93.7418 119.467 93.9125 119.626 94.0833 119.785C94.3745 120.05 94.6155 120.357 94.7962 120.686C95.4992 121.947 95.4088 123.6 94.4448 124.776C93.792 125.581 92.8481 125.994 91.9042 125.994Z" fill="#575757"/>
<path d="M102.578 59.8425V187.729H206.994V59.8425H102.578ZM203.279 183.808H106.294V63.7631H203.279V183.808Z" fill="#575757"/>
<path d="M102.578 183.893V205.265C102.578 208.55 103.793 211.538 105.771 213.753C106.274 214.325 106.836 214.844 107.438 215.3C109.356 216.773 111.716 217.652 114.267 217.673C114.287 217.673 114.317 217.673 114.347 217.673H195.245C195.265 217.673 195.296 217.673 195.326 217.673C198.67 217.652 201.692 216.148 203.821 213.753C205.799 211.528 207.015 208.539 207.015 205.265V183.893H102.578ZM110.11 212.481C107.82 210.987 106.294 208.306 106.294 205.265V187.813H203.279V205.265C203.279 209.917 199.704 213.721 195.306 213.753C195.286 213.753 195.255 213.753 195.235 213.753H114.337C114.317 213.753 114.287 213.753 114.267 213.753C112.741 213.742 111.315 213.276 110.11 212.481Z" fill="#575757"/>
<path d="M204.746 40.4512C202.607 37.3465 199.143 35.3333 195.236 35.3333H114.338C107.851 35.3333 102.579 40.8963 102.579 47.7414V63.6782H206.995V47.7414C206.995 45.0182 206.162 42.4963 204.746 40.4512ZM202.075 43.2804C202.838 44.5732 203.28 46.1096 203.28 47.7414V59.7576H106.295V47.7414C106.295 43.0579 109.9 39.2539 114.338 39.2539H195.236C198.118 39.2539 200.659 40.8645 202.075 43.2804Z" fill="#575757"/>
<path d="M163.031 45.7917C161.805 43.5559 159.516 42.0513 156.905 42.0513H152.667C148.771 42.0513 145.598 45.3997 145.598 49.511C145.598 52.266 147.024 54.682 149.142 55.9747C150.177 56.6105 151.382 56.9708 152.667 56.9708H156.905C160.801 56.9708 163.974 53.6224 163.974 49.511C163.974 48.1547 163.633 46.8832 163.031 45.7917ZM152.667 53.0396C152.436 53.0396 152.205 53.0184 151.984 52.9654C150.458 52.6369 149.313 51.2064 149.313 49.5004C149.313 47.5507 150.809 45.9613 152.667 45.9613H156.905C158.522 45.9613 159.877 47.1693 160.189 48.7799C160.229 49.013 160.259 49.2461 160.259 49.5004C160.259 51.4501 158.763 53.0396 156.905 53.0396H152.667Z" fill="#575757"/>
<path d="M167.6 197.117C166.375 194.881 164.085 193.376 161.474 193.376H148.109C144.212 193.376 141.039 196.725 141.039 200.836C141.039 203.602 142.465 206.018 144.584 207.3C145.618 207.925 146.823 208.296 148.099 208.296H161.464C165.361 208.296 168.534 204.947 168.534 200.836C168.534 199.48 168.193 198.208 167.6 197.117ZM148.099 204.365C147.868 204.365 147.637 204.343 147.416 204.29C145.889 203.962 144.745 202.531 144.745 200.825C144.745 198.876 146.241 197.286 148.099 197.286H161.464C163.081 197.286 164.437 198.494 164.748 200.105C164.788 200.338 164.818 200.571 164.818 200.815C164.818 202.764 163.322 204.354 161.464 204.354H148.099V204.365Z" fill="#575757"/>
<path d="M256.01 215.713C256.01 216.794 255.177 217.673 254.153 217.673H55.4222C54.3979 217.673 53.5645 216.794 53.5645 215.713C53.5645 214.632 54.3979 213.753 55.4222 213.753H254.163C255.177 213.753 256.01 214.632 256.01 215.713Z" fill="#575757"/>
<path d="M47.7597 217.673H39.2943C38.27 217.673 37.4365 216.794 37.4365 215.713C37.4365 214.632 38.27 213.753 39.2943 213.753H47.7597C48.7839 213.753 49.6174 214.632 49.6174 215.713C49.6174 216.794 48.7839 217.673 47.7597 217.673Z" fill="#575757"/>
<path d="M89.4032 208.073H80.9378C79.9136 208.073 79.0801 207.193 79.0801 206.113C79.0801 205.032 79.9136 204.152 80.9378 204.152H89.4032C90.4275 204.152 91.261 205.032 91.261 206.113C91.261 207.193 90.4275 208.073 89.4032 208.073Z" fill="#575757"/>
<path d="M73.2772 208.073H64.8119C63.7876 208.073 62.9541 207.193 62.9541 206.113C62.9541 205.032 63.7876 204.152 64.8119 204.152H73.2772C74.3015 204.152 75.135 205.032 75.135 206.113C75.135 207.193 74.3015 208.073 73.2772 208.073Z" fill="#575757"/>
<path d="M228.636 208.073H220.17C219.146 208.073 218.312 207.193 218.312 206.113C218.312 205.032 219.146 204.152 220.17 204.152H228.636C229.66 204.152 230.493 205.032 230.493 206.113C230.493 207.193 229.66 208.073 228.636 208.073Z" fill="#575757"/>
<path d="M244.764 208.073H236.298C235.274 208.073 234.44 207.193 234.44 206.113C234.44 205.032 235.274 204.152 236.298 204.152H244.764C245.788 204.152 246.621 205.032 246.621 206.113C246.621 207.193 245.788 208.073 244.764 208.073Z" fill="#575757"/>
<path d="M270.279 217.673H261.814C260.79 217.673 259.956 216.794 259.956 215.713C259.956 214.632 260.79 213.753 261.814 213.753H270.279C271.303 213.753 272.137 214.632 272.137 215.713C272.137 216.794 271.303 217.673 270.279 217.673Z" fill="#575757"/>
</g>
<g clip-path="url(#clip0_687_3748)">
<path d="M150.98 110.265C150.758 110.209 150.536 110.14 150.32 110.064C150.072 109.975 149.823 109.873 149.585 109.758L147.739 110.835L145.41 108.707L146.334 106.788C146.198 106.56 146.076 106.327 145.966 106.086C145.873 105.882 145.787 105.668 145.711 105.451L143.637 104.914L143.501 101.769L145.522 101.061C145.579 100.841 145.648 100.62 145.724 100.406C145.814 100.159 145.917 99.9119 146.033 99.6748L144.949 97.8407L147.09 95.5225L149.021 96.4412C149.25 96.3062 149.485 96.1843 149.727 96.0757C149.933 95.9835 150.148 95.8979 150.367 95.8221L150.907 93.7607L154.071 93.6257L154.784 95.6344C155.006 95.6904 155.228 95.7596 155.443 95.8353C155.692 95.9242 155.94 96.0263 156.179 96.1415L158.024 95.0647L160.357 97.192L159.433 99.1118C159.568 99.339 159.691 99.5728 159.8 99.8131C159.893 100.017 159.979 100.231 160.056 100.449L162.13 100.985L162.266 104.13L160.244 104.838C160.188 105.062 160.118 105.279 160.042 105.493C159.953 105.74 159.85 105.987 159.734 106.224L160.818 108.059L158.677 110.377L156.745 109.458C156.517 109.593 156.281 109.715 156.039 109.824C155.834 109.916 155.619 110.001 155.4 110.077L154.86 112.139L151.695 112.274L150.98 110.265Z" fill="#B3B3B3"/>
<path d="M155.572 105.628C157.058 104.15 157.058 101.754 155.572 100.277C154.085 98.7992 151.674 98.7992 150.187 100.277C148.7 101.754 148.7 104.15 150.187 105.628C151.674 107.105 154.085 107.105 155.572 105.628Z" fill="#E5DFD8"/>
<path d="M141.301 166.307L139.879 161.69C139.17 161.496 138.468 161.252 137.785 160.966C137.182 160.712 136.589 160.423 136.016 160.097L131.728 162.366L127.341 158.006L129.62 153.741C129.296 153.172 129.001 152.582 128.746 151.983C128.457 151.308 128.212 150.606 128.017 149.902L123.371 148.489V142.321L128.017 140.912C128.212 140.207 128.457 139.509 128.746 138.831C129.001 138.232 129.292 137.642 129.62 137.073L127.341 132.808L131.728 128.448L136.019 130.714C136.592 130.391 137.185 130.098 137.788 129.845C138.468 129.558 139.173 129.314 139.883 129.12L141.304 124.503H147.51L148.925 129.123C149.634 129.318 150.337 129.561 151.019 129.848C151.623 130.101 152.216 130.391 152.789 130.717L157.08 128.452L161.467 132.811L159.187 137.076C159.512 137.645 159.807 138.235 160.062 138.834C160.35 139.509 160.596 140.211 160.791 140.915L165.437 142.328V148.496L160.791 149.908C160.596 150.613 160.35 151.311 160.062 151.989C159.807 152.589 159.515 153.178 159.187 153.748L161.467 158.012L157.08 162.372L152.789 160.107C152.216 160.429 151.623 160.722 151.019 160.976C150.34 161.262 149.634 161.506 148.925 161.7L147.504 166.317H141.301V166.307Z" fill="#E5DFD8"/>
<path d="M150.714 151.681C154.2 148.217 154.2 142.6 150.714 139.135C147.228 135.671 141.576 135.671 138.089 139.135C134.603 142.6 134.603 148.217 138.089 151.681C141.576 155.145 147.228 155.145 150.714 151.681Z" fill="#3D737F"/>
<path d="M171.713 132.499C171.255 132.548 170.798 132.574 170.351 132.574H170.334C169.814 132.574 169.291 132.542 168.774 132.476L166.457 135.219L162.034 133.352L162.412 129.789C162.007 129.466 161.62 129.114 161.258 128.741C160.94 128.415 160.639 128.07 160.354 127.704L156.759 128.017L154.956 123.588L157.759 121.332C157.71 120.875 157.683 120.414 157.683 119.963C157.683 119.446 157.716 118.925 157.783 118.412L155.022 116.11L156.901 111.714L160.486 112.089C160.811 111.687 161.166 111.302 161.54 110.943C161.868 110.627 162.216 110.327 162.584 110.044L162.269 106.471L166.726 104.683L168.996 107.469C169.453 107.42 169.91 107.393 170.361 107.393H170.377C170.898 107.393 171.421 107.426 171.938 107.492L174.254 104.749L178.678 106.616L178.3 110.179C178.704 110.502 179.092 110.854 179.453 111.226C179.771 111.552 180.073 111.898 180.358 112.264L183.953 111.951L185.752 116.38L182.949 118.635C182.999 119.093 183.025 119.554 183.025 120.005C183.025 120.522 182.992 121.043 182.926 121.556L185.686 123.858L183.807 128.254L180.222 127.879C179.897 128.28 179.543 128.666 179.168 129.025C178.84 129.341 178.492 129.64 178.124 129.924L178.439 133.496L173.983 135.285L171.713 132.499Z" fill="#3D737F"/>
<path d="M174.997 124.597C177.562 122.049 177.562 117.916 174.997 115.367C172.432 112.819 168.274 112.819 165.709 115.367C163.145 117.916 163.145 122.049 165.709 124.597C168.274 127.146 172.432 127.146 174.997 124.597Z" fill="#E5DFD8"/>
<path d="M154.498 95.1074L155.171 97.0041C155.482 97.07 155.79 97.1556 156.088 97.261C156.423 97.3795 156.745 97.5211 157.053 97.6858L158.799 96.6682L160.462 98.1863L159.588 100.001C159.78 100.29 159.949 100.597 160.095 100.919C160.227 101.206 160.336 101.502 160.429 101.805L162.391 102.312L162.487 104.555L160.578 105.223C160.512 105.533 160.426 105.839 160.32 106.135C160.201 106.468 160.058 106.787 159.892 107.094L160.916 108.829L159.389 110.482L157.563 109.613C157.271 109.804 156.963 109.972 156.639 110.117C156.35 110.248 156.052 110.357 155.747 110.449L155.237 112.399L152.98 112.494L152.308 110.597C151.996 110.531 151.688 110.446 151.39 110.34C151.055 110.222 150.734 110.08 150.426 109.916L148.679 110.933L147.016 109.415L147.891 107.601C147.699 107.311 147.53 107.005 147.384 106.682C147.251 106.396 147.142 106.099 147.049 105.796L145.087 105.289L144.991 103.047L146.9 102.378C146.966 102.069 147.052 101.762 147.158 101.466C147.278 101.133 147.42 100.814 147.586 100.508L146.562 98.7724L148.09 97.1194L149.915 97.9887C150.207 97.7977 150.515 97.6298 150.84 97.4849C151.128 97.3532 151.426 97.2445 151.731 97.1523L152.241 95.2029L154.498 95.1074ZM155.35 93.8528L154.442 93.8923L152.185 93.9878L151.277 94.0273L151.049 94.8999L150.704 96.2171C150.575 96.2665 150.449 96.3225 150.323 96.3785C150.164 96.4509 150.005 96.5299 149.849 96.6123L148.613 96.0261L147.798 95.6343L147.185 96.2994L145.657 97.9525L145.044 98.6177L145.505 99.3948L146.198 100.567C146.128 100.728 146.062 100.893 146.002 101.058C145.956 101.186 145.913 101.315 145.873 101.446L144.58 101.901L143.726 102.2L143.765 103.103L143.861 105.345L143.901 106.247L144.779 106.475L146.105 106.817C146.154 106.945 146.211 107.071 146.267 107.196C146.34 107.354 146.42 107.512 146.502 107.667L145.909 108.892L145.518 109.705L146.188 110.314L147.851 111.832L148.52 112.441L149.302 111.984L150.482 111.295C150.644 111.365 150.81 111.43 150.976 111.49C151.105 111.536 151.234 111.579 151.367 111.618L151.824 112.902L152.125 113.752L153.033 113.712L155.29 113.617L156.198 113.577L156.426 112.705L156.771 111.388C156.9 111.338 157.026 111.282 157.152 111.226C157.311 111.154 157.47 111.075 157.626 110.992L158.862 111.579L159.68 111.967L160.29 111.309L161.818 109.656L162.431 108.99L161.97 108.213L161.278 107.041C161.347 106.88 161.413 106.715 161.473 106.55C161.519 106.422 161.562 106.293 161.602 106.162L162.895 105.707L163.749 105.408L163.71 104.505L163.614 102.263L163.574 101.361L162.696 101.133L161.37 100.791C161.321 100.663 161.264 100.537 161.208 100.412C161.135 100.254 161.056 100.096 160.973 99.9414L161.562 98.7131L161.953 97.8998L161.284 97.2906L159.621 95.7726L158.951 95.1634L158.169 95.6211L156.99 96.3093C156.827 96.2402 156.662 96.1743 156.496 96.115C156.367 96.0689 156.238 96.0261 156.105 95.9866L155.648 94.7024L155.35 93.8528Z" fill="#CEC7BF"/>
<path d="M153.733 108.197C152.623 108.197 151.569 107.789 150.748 107.038C149.879 106.244 149.372 105.161 149.319 103.989C149.27 102.816 149.681 101.693 150.479 100.831C152.129 99.0458 154.929 98.9273 156.725 100.567C157.593 101.361 158.1 102.444 158.153 103.616C158.203 104.789 157.792 105.912 156.994 106.774C156.195 107.637 155.105 108.141 153.925 108.194C153.862 108.197 153.799 108.197 153.733 108.197ZM153.74 100.63C152.875 100.63 152.013 100.975 151.384 101.657C150.807 102.283 150.509 103.093 150.545 103.939C150.582 104.785 150.946 105.569 151.576 106.142C152.206 106.715 153.021 107.011 153.872 106.975C154.724 106.939 155.513 106.577 156.089 105.951C156.666 105.325 156.964 104.515 156.927 103.669C156.891 102.823 156.526 102.039 155.897 101.466C155.287 100.906 154.512 100.63 153.74 100.63Z" fill="#CEC7BF"/>
<path d="M147.911 125.972L149.299 130.48C150.094 130.681 150.876 130.941 151.642 131.264C152.328 131.55 152.994 131.889 153.636 132.268L157.828 130.052L161.576 133.776L159.346 137.942C159.727 138.581 160.065 139.243 160.356 139.924C160.678 140.685 160.943 141.459 161.145 142.252L165.681 143.632V148.897L161.145 150.277C160.943 151.067 160.681 151.845 160.356 152.605C160.068 153.287 159.727 153.949 159.346 154.588L161.576 158.753L157.828 162.477L153.636 160.261C152.994 160.64 152.328 160.976 151.642 161.266C150.876 161.588 150.098 161.848 149.299 162.049L147.911 166.557H142.612L141.224 162.049C140.429 161.848 139.647 161.588 138.881 161.266C138.195 160.979 137.529 160.64 136.886 160.261L132.695 162.477L128.947 158.753L131.177 154.588C130.796 153.949 130.458 153.287 130.167 152.605C129.842 151.845 129.58 151.071 129.378 150.277L124.842 148.897V143.632L129.378 142.252C129.58 141.462 129.842 140.685 130.167 139.924C130.455 139.243 130.796 138.581 131.177 137.942L128.947 133.776L132.695 130.052L136.886 132.268C137.529 131.889 138.195 131.554 138.881 131.264C139.647 130.944 140.425 130.681 141.224 130.48L142.612 125.972H147.911ZM148.819 124.754H147.911H142.612H141.704L141.439 125.616L140.25 129.486C139.623 129.67 139.007 129.891 138.407 130.144C137.887 130.362 137.374 130.608 136.87 130.882L133.275 128.982L132.473 128.557L131.83 129.196L128.082 132.92L127.439 133.559L127.867 134.356L129.779 137.929C129.507 138.426 129.259 138.94 129.037 139.457C128.781 140.053 128.559 140.668 128.374 141.287L124.48 142.47L123.612 142.733V143.635V148.901V149.803L124.48 150.066L128.374 151.249C128.559 151.871 128.781 152.483 129.037 153.079C129.255 153.596 129.504 154.107 129.779 154.607L127.867 158.18L127.439 158.977L128.082 159.616L131.83 163.34L132.473 163.979L133.275 163.554L136.87 161.654C137.37 161.924 137.887 162.171 138.407 162.392C139.007 162.645 139.627 162.866 140.25 163.05L141.439 166.92L141.704 167.782H142.612H147.911H148.819L149.084 166.92L150.273 163.05C150.899 162.866 151.516 162.645 152.116 162.392C152.636 162.175 153.149 161.928 153.653 161.654L157.248 163.554L158.05 163.979L158.693 163.34L162.441 159.616L163.083 158.977L162.656 158.18L160.744 154.607C161.016 154.11 161.264 153.596 161.486 153.079C161.741 152.483 161.963 151.868 162.149 151.249L166.042 150.066L166.911 149.803V148.901V143.635V142.733L166.042 142.47L162.149 141.287C161.963 140.665 161.741 140.053 161.486 139.457C161.268 138.94 161.019 138.429 160.744 137.929L162.656 134.356L163.083 133.559L162.441 132.92L158.693 129.189L158.05 128.55L157.248 128.975L153.653 130.875C153.153 130.605 152.636 130.358 152.116 130.138C151.516 129.884 150.896 129.663 150.273 129.479L149.084 125.61L148.819 124.754Z" fill="#CEC7BF"/>
<path d="M145.263 155.743C142.715 155.743 140.32 154.756 138.517 152.967C136.714 151.176 135.724 148.795 135.724 146.263C135.724 143.731 136.718 141.35 138.517 139.559C140.32 137.767 142.715 136.783 145.263 136.783C147.812 136.783 150.207 137.771 152.01 139.559C153.812 141.35 154.803 143.731 154.803 146.263C154.803 148.795 153.809 151.176 152.01 152.967C150.207 154.756 147.812 155.743 145.263 155.743ZM145.263 137.998C140.677 137.998 136.95 141.706 136.95 146.26C136.95 150.814 140.681 154.522 145.263 154.522C149.849 154.522 153.577 150.814 153.577 146.26C153.577 141.706 149.846 137.998 145.263 137.998Z" fill="#CEC7BF"/>
<path d="M167.392 106.267L169.592 108.964C170.132 108.892 170.675 108.852 171.219 108.852C171.222 108.852 171.229 108.852 171.232 108.852C171.842 108.852 172.448 108.898 173.045 108.99L175.288 106.333L178.877 107.848L178.512 111.299C178.992 111.661 179.446 112.063 179.871 112.497C180.252 112.889 180.606 113.308 180.931 113.749L184.41 113.446L185.871 117.038L183.158 119.225C183.231 119.765 183.27 120.312 183.27 120.855C183.27 121.461 183.224 122.063 183.131 122.656L185.805 124.885L184.281 128.452L180.808 128.089C180.444 128.567 180.04 129.018 179.602 129.44C179.208 129.818 178.787 130.171 178.343 130.493L178.648 133.951L175.033 135.403L172.833 132.706C172.292 132.779 171.749 132.818 171.206 132.818C171.199 132.818 171.196 132.818 171.189 132.818C170.579 132.818 169.973 132.772 169.377 132.68L167.133 135.337L163.545 133.822L163.909 130.371C163.429 130.009 162.975 129.608 162.551 129.173C162.17 128.781 161.815 128.363 161.49 127.922L158.011 128.224L156.55 124.632L159.264 122.445C159.191 121.905 159.151 121.359 159.151 120.815C159.151 120.209 159.197 119.607 159.29 119.014L156.616 116.785L158.14 113.219L161.613 113.581C161.977 113.103 162.382 112.652 162.819 112.231C163.213 111.852 163.634 111.5 164.078 111.177L163.773 107.719L167.392 106.267ZM167.773 104.799L166.931 105.138L163.316 106.59L162.474 106.929L162.554 107.828L162.799 110.624C162.511 110.858 162.232 111.105 161.967 111.358C161.656 111.658 161.358 111.974 161.076 112.303L158.269 112.01L157.368 111.915L157.014 112.744L155.489 116.311L155.135 117.14L155.831 117.72L157.994 119.525C157.951 119.953 157.928 120.387 157.928 120.819C157.928 121.184 157.945 121.553 157.975 121.922L155.781 123.69L155.075 124.256L155.416 125.093L156.878 128.685L157.219 129.522L158.124 129.443L160.937 129.199C161.172 129.486 161.421 129.762 161.676 130.026C161.977 130.335 162.295 130.632 162.627 130.912L162.332 133.701L162.236 134.596L163.071 134.949L166.659 136.463L167.494 136.816L168.078 136.124L169.893 133.974C170.324 134.017 170.762 134.04 171.196 134.04H171.212C171.573 134.04 171.941 134.023 172.306 133.994L174.085 136.174L174.655 136.875L175.497 136.536L179.112 135.084L179.953 134.744L179.874 133.846L179.629 131.05C179.917 130.816 180.195 130.569 180.46 130.315C180.772 130.016 181.07 129.7 181.352 129.37L184.158 129.663L185.06 129.759L185.414 128.929L186.938 125.363L187.293 124.533L186.597 123.954L184.433 122.149C184.476 121.721 184.5 121.286 184.5 120.855C184.5 120.489 184.483 120.121 184.453 119.752L186.647 117.983L187.353 117.417L187.011 116.581L185.55 112.988L185.209 112.152L184.304 112.231L181.491 112.474C181.256 112.188 181.007 111.911 180.752 111.648C180.45 111.338 180.132 111.042 179.801 110.762L180.096 107.973L180.192 107.077L179.357 106.725L175.768 105.21L174.933 104.858L174.35 105.549L172.534 107.7C172.104 107.657 171.666 107.634 171.232 107.634H171.216C170.854 107.634 170.487 107.65 170.122 107.68L168.343 105.5L167.773 104.799Z" fill="#CEC7BF"/>
<path d="M171.212 127.977C170.261 127.977 169.31 127.786 168.406 127.408C166.639 126.664 165.271 125.28 164.552 123.512C163.833 121.744 163.849 119.804 164.598 118.049C165.347 116.294 166.739 114.934 168.518 114.22C170.298 113.505 172.249 113.521 174.015 114.266C175.782 115.01 177.15 116.393 177.869 118.161C178.588 119.929 178.572 121.869 177.823 123.624C177.074 125.379 175.682 126.739 173.903 127.454C173.035 127.803 172.123 127.977 171.212 127.977ZM168.886 126.285C170.351 126.904 171.971 126.917 173.446 126.324C174.92 125.732 176.077 124.605 176.696 123.15C177.319 121.694 177.332 120.084 176.736 118.619C176.139 117.154 175.006 116.004 173.542 115.389C172.077 114.769 170.457 114.756 168.982 115.349C167.508 115.942 166.351 117.068 165.732 118.523C164.446 121.527 165.864 125.007 168.886 126.285Z" fill="#CEC7BF"/>
<path d="M153.637 94.2546L154.309 96.1513C154.621 96.2172 154.929 96.3028 155.227 96.4082C155.562 96.5267 155.883 96.6683 156.191 96.833L157.938 95.8155L159.601 97.3335L158.726 99.1479C158.918 99.4377 159.087 99.7439 159.233 100.067C159.366 100.353 159.475 100.649 159.568 100.952L161.53 101.46L161.626 103.702L159.717 104.37C159.651 104.68 159.565 104.986 159.459 105.283C159.339 105.615 159.197 105.935 159.031 106.241L160.055 107.976L158.527 109.629L156.702 108.76C156.41 108.951 156.102 109.119 155.777 109.264C155.489 109.395 155.191 109.504 154.886 109.596L154.376 111.546L152.119 111.641L151.446 109.745C151.135 109.679 150.827 109.593 150.529 109.488C150.194 109.369 149.872 109.228 149.564 109.063L147.818 110.08L146.155 108.562L147.029 106.748C146.837 106.458 146.668 106.152 146.522 105.829C146.39 105.543 146.281 105.246 146.188 104.943L144.226 104.436L144.13 102.194L146.039 101.525C146.105 101.216 146.191 100.91 146.297 100.613C146.416 100.281 146.559 99.9613 146.725 99.655L145.701 97.9196L147.228 96.2666L149.054 97.1359C149.346 96.9449 149.654 96.777 149.978 96.6321C150.267 96.5004 150.565 96.3917 150.87 96.2995L151.38 94.3501L153.637 94.2546ZM154.492 93L153.584 93.0395L151.327 93.135L150.419 93.1745L150.191 94.0472L149.846 95.3643C149.717 95.4137 149.591 95.4697 149.465 95.5257C149.306 95.5981 149.147 95.6772 148.991 95.7595L147.755 95.1733L146.937 94.7848L146.324 95.4499L144.796 97.103L144.183 97.7682L144.644 98.5453L145.336 99.7176C145.267 99.8789 145.2 100.044 145.141 100.208C145.094 100.337 145.051 100.465 145.011 100.597L143.719 101.051L142.864 101.351L142.904 102.253L143 104.496L143.04 105.398L143.918 105.625L145.243 105.968C145.293 106.096 145.349 106.221 145.406 106.346C145.479 106.504 145.558 106.662 145.641 106.817L145.051 108.045L144.66 108.859L145.33 109.468L146.993 110.986L147.662 111.595L148.444 111.137L149.624 110.449C149.786 110.518 149.952 110.584 150.118 110.644C150.247 110.69 150.376 110.732 150.509 110.772L150.966 112.056L151.267 112.906L152.175 112.866L154.432 112.771L155.34 112.731L155.568 111.859L155.913 110.541C156.042 110.492 156.168 110.436 156.294 110.38C156.453 110.308 156.612 110.229 156.768 110.146L158.004 110.732L158.822 111.121L159.435 110.456L160.963 108.803L161.576 108.138L161.115 107.36L160.423 106.188C160.492 106.027 160.559 105.862 160.618 105.698C160.665 105.569 160.708 105.441 160.748 105.309L162.04 104.855L162.895 104.555L162.855 103.653L162.759 101.41L162.719 100.508L161.841 100.281L160.516 99.9382C160.466 99.8098 160.41 99.6846 160.353 99.5595C160.28 99.4015 160.201 99.2434 160.118 99.0886L160.708 97.8604L161.099 97.047L160.429 96.4378L158.766 94.9198L158.097 94.3106L157.315 94.7683L156.135 95.4565C155.973 95.3874 155.807 95.3215 155.641 95.2622C155.512 95.2161 155.383 95.1733 155.25 95.1338L154.793 93.8496L154.492 93Z" fill="#575757"/>
<path d="M152.875 107.344C151.765 107.344 150.711 106.936 149.889 106.185C149.021 105.391 148.514 104.308 148.461 103.136C148.411 101.963 148.822 100.841 149.621 99.9778C151.271 98.193 154.071 98.0745 155.867 99.7144C156.735 100.508 157.242 101.591 157.295 102.764C157.345 103.936 156.934 105.059 156.135 105.922C155.337 106.784 154.247 107.288 153.067 107.341C153.004 107.341 152.938 107.344 152.875 107.344ZM152.881 99.7769C152.017 99.7769 151.155 100.123 150.525 100.804C149.949 101.43 149.651 102.24 149.687 103.086C149.724 103.933 150.088 104.716 150.718 105.289C151.347 105.862 152.162 106.159 153.014 106.122C153.865 106.086 154.654 105.724 155.231 105.098C155.807 104.473 156.105 103.663 156.069 102.816C156.033 101.97 155.668 101.186 155.038 100.613C154.429 100.054 153.653 99.7769 152.881 99.7769Z" fill="#575757"/>
<path d="M165.181 141.61L161.288 140.428C161.102 139.806 160.88 139.193 160.625 138.597C160.406 138.08 160.158 137.57 159.883 137.069L161.795 133.496L162.222 132.7L161.579 132.061L157.832 128.336L157.189 127.698L156.387 128.119L152.792 130.019C152.292 129.749 151.775 129.502 151.254 129.285C150.655 129.031 150.035 128.811 149.412 128.626L148.223 124.757L147.957 123.894H140.847L140.581 124.757L139.392 128.63C138.766 128.814 138.149 129.035 137.55 129.288C137.029 129.505 136.516 129.752 136.012 130.022L132.417 128.122L131.615 127.701L127.228 132.061L126.588 132.7L127.012 133.496L128.924 137.069C128.653 137.567 128.404 138.08 128.182 138.597C127.927 139.193 127.705 139.809 127.519 140.428L123.626 141.61L122.758 141.874V148.94L123.626 149.204L127.519 150.386C127.705 151.008 127.927 151.621 128.182 152.217C128.401 152.734 128.649 153.244 128.924 153.745L127.012 157.318L126.588 158.114L127.228 158.753L129.706 161.216L130.932 162.435L130.972 162.474L131.615 163.11L132.417 162.688L136.012 160.788C136.512 161.058 137.029 161.305 137.55 161.523C138.149 161.776 138.769 161.997 139.392 162.181L140.015 164.2L140.389 165.418L140.585 166.05L140.85 166.913H147.961L148.226 166.05L148.421 165.418L148.796 164.2L149.419 162.181C150.042 161.997 150.661 161.776 151.261 161.523C151.781 161.305 152.295 161.058 152.799 160.788L156.394 162.688L157.196 163.11L157.838 162.474L162.226 158.114L161.798 157.318L159.886 153.745C160.158 153.247 160.406 152.734 160.628 152.217C160.884 151.621 161.106 151.005 161.291 150.386L165.185 149.204L166.053 148.94V141.874L165.181 141.61ZM164.82 148.041L160.284 149.421C160.082 150.211 159.82 150.989 159.495 151.749C159.204 152.431 158.866 153.093 158.485 153.732L160.711 157.897L156.964 161.621L152.772 159.409C152.129 159.787 151.463 160.126 150.777 160.413C150.015 160.736 149.233 160.996 148.435 161.197L147.507 164.213L147.132 165.431L147.046 165.705H141.754L141.672 165.431L141.297 164.213L140.369 161.197C139.574 160.996 138.792 160.736 138.027 160.413C137.341 160.126 136.675 159.787 136.032 159.409L131.84 161.621L128.093 157.897L130.319 153.732C129.938 153.093 129.597 152.431 129.309 151.749C128.984 150.989 128.722 150.215 128.52 149.421L123.984 148.041V142.776L128.52 141.396C128.722 140.606 128.984 139.829 129.309 139.068C129.6 138.386 129.938 137.725 130.319 137.086L128.093 132.92L131.84 129.196L136.032 131.412C136.675 131.033 137.341 130.694 138.027 130.408C138.792 130.085 139.571 129.825 140.369 129.624L141.758 125.116H147.056L148.445 129.624C149.24 129.825 150.022 130.085 150.787 130.408C151.473 130.697 152.139 131.033 152.782 131.412L156.974 129.196L160.721 132.92L158.495 137.086C158.876 137.725 159.217 138.386 159.505 139.068C159.83 139.829 160.092 140.603 160.294 141.396L164.83 142.776V148.041H164.82Z" fill="#575757"/>
<path d="M144.402 154.891C141.854 154.891 139.458 153.903 137.656 152.115C135.853 150.323 134.862 147.943 134.862 145.41C134.862 142.878 135.856 140.497 137.656 138.706C139.458 136.915 141.854 135.93 144.402 135.93C146.95 135.93 149.346 136.918 151.148 138.706C152.951 140.497 153.942 142.878 153.942 145.41C153.942 147.943 152.948 150.323 151.148 152.115C149.349 153.903 146.953 154.891 144.402 154.891ZM144.402 137.145C139.816 137.145 136.088 140.853 136.088 145.407C136.088 149.961 139.819 153.669 144.402 153.669C148.988 153.669 152.716 149.961 152.716 145.407C152.716 140.853 148.988 137.145 144.402 137.145Z" fill="#575757"/>
<path d="M166.533 105.414L168.734 108.111C169.274 108.039 169.817 107.999 170.36 107.999C170.364 107.999 170.37 107.999 170.374 107.999C170.983 107.999 171.59 108.045 172.186 108.138L174.43 105.48L178.018 106.995L177.654 110.446C178.134 110.808 178.588 111.21 179.012 111.645C179.393 112.037 179.748 112.455 180.073 112.896L183.552 112.593L185.013 116.186L182.299 118.372C182.372 118.912 182.412 119.459 182.412 120.002C182.412 120.608 182.365 121.211 182.273 121.803L184.947 124.033L183.423 127.599L179.95 127.237C179.585 127.714 179.181 128.165 178.744 128.587C178.349 128.965 177.929 129.318 177.485 129.641L177.789 133.098L174.174 134.55L171.974 131.853C171.434 131.926 170.891 131.965 170.347 131.965C170.341 131.965 170.337 131.965 170.331 131.965C169.721 131.965 169.115 131.919 168.518 131.827L166.275 134.484L162.686 132.97L163.051 129.519C162.57 129.156 162.116 128.755 161.692 128.32C161.311 127.928 160.957 127.51 160.632 127.069L157.153 127.372L155.691 123.779L158.405 121.593C158.332 121.053 158.292 120.506 158.292 119.963C158.292 119.357 158.339 118.754 158.432 118.161L155.758 115.932L157.282 112.366L160.754 112.728C161.119 112.251 161.523 111.799 161.961 111.378C162.355 110.999 162.776 110.647 163.22 110.324L162.915 106.867L166.533 105.414ZM166.914 103.946L166.073 104.285L162.458 105.737L161.616 106.076L161.696 106.975L161.941 109.771C161.652 110.005 161.374 110.252 161.109 110.505C160.798 110.805 160.499 111.121 160.218 111.45L157.411 111.157L156.51 111.062L156.155 111.892L154.631 115.458L154.276 116.288L154.972 116.867L157.136 118.672C157.093 119.1 157.07 119.535 157.07 119.966C157.07 120.331 157.086 120.7 157.116 121.069L154.923 122.837L154.217 123.404L154.558 124.24L156.019 127.833L156.361 128.669L157.265 128.59L160.078 128.346C160.314 128.633 160.562 128.909 160.817 129.173C161.119 129.482 161.437 129.779 161.768 130.059L161.473 132.848L161.377 133.744L162.212 134.096L165.801 135.611L166.636 135.963L167.219 135.271L169.035 133.121C169.466 133.164 169.903 133.187 170.337 133.187H170.354C170.715 133.187 171.083 133.171 171.447 133.141L173.227 135.321L173.797 136.022L174.638 135.683L178.253 134.231L179.095 133.892L179.015 132.993L178.77 130.197C179.059 129.963 179.337 129.716 179.602 129.463C179.913 129.163 180.212 128.847 180.493 128.518L183.3 128.811L184.201 128.906L184.556 128.076L186.08 124.51L186.435 123.68L185.739 123.101L183.575 121.296C183.618 120.868 183.641 120.433 183.641 120.002C183.641 119.637 183.625 119.268 183.595 118.899L185.788 117.131L186.494 116.564L186.153 115.728L184.692 112.135L184.35 111.299L183.446 111.378L180.633 111.622C180.397 111.335 180.149 111.059 179.894 110.795C179.592 110.486 179.274 110.189 178.943 109.909L179.238 107.12L179.334 106.225L178.499 105.872L174.91 104.357L174.075 104.005L173.492 104.697L171.676 106.847C171.245 106.804 170.808 106.781 170.374 106.781H170.357C169.996 106.781 169.628 106.797 169.264 106.827L167.484 104.647L166.914 103.946Z" fill="#575757"/>
<path d="M170.354 127.125C169.403 127.125 168.452 126.934 167.547 126.555C165.781 125.811 164.413 124.428 163.694 122.659C162.974 120.891 162.991 118.952 163.74 117.196C164.489 115.441 165.88 114.081 167.66 113.367C169.439 112.652 171.391 112.669 173.157 113.413C174.923 114.157 176.292 115.54 177.011 117.308C177.73 119.077 177.713 121.016 176.964 122.771C176.215 124.527 174.824 125.886 173.044 126.601C172.176 126.95 171.265 127.125 170.354 127.125ZM168.028 125.432C169.492 126.051 171.113 126.064 172.587 125.472C174.062 124.879 175.218 123.753 175.838 122.297C176.461 120.842 176.474 119.231 175.878 117.766C175.281 116.301 174.148 115.152 172.683 114.536C171.219 113.917 169.598 113.904 168.124 114.496C166.649 115.089 165.493 116.215 164.873 117.671C163.588 120.674 165.002 124.154 168.028 125.432Z" fill="#575757"/>
<path d="M141.294 164.206L141.668 165.424H119.931C119.593 165.424 119.318 165.151 119.318 164.815C119.318 164.479 119.593 164.206 119.931 164.206H141.294Z" fill="#575757"/>
<path d="M189.679 164.815C189.679 165.151 189.404 165.424 189.066 165.424H147.136L147.51 164.206H189.062C189.404 164.206 189.679 164.476 189.679 164.815Z" fill="#575757"/>
<path d="M117.406 165.424H114.613C114.275 165.424 114 165.151 114 164.815C114 164.479 114.275 164.206 114.613 164.206H117.406C117.744 164.206 118.019 164.479 118.019 164.815C118.019 165.151 117.744 165.424 117.406 165.424Z" fill="#575757"/>
<path d="M131.148 162.438H128.354C128.016 162.438 127.741 162.165 127.741 161.829C127.741 161.493 128.016 161.219 128.354 161.219H131.148C131.486 161.219 131.761 161.493 131.761 161.829C131.761 162.165 131.486 162.438 131.148 162.438Z" fill="#575757"/>
<path d="M125.826 162.438H123.033C122.695 162.438 122.42 162.165 122.42 161.829C122.42 161.493 122.695 161.219 123.033 161.219H125.826C126.164 161.219 126.439 161.493 126.439 161.829C126.439 162.165 126.164 162.438 125.826 162.438Z" fill="#575757"/>
<path d="M180.646 162.438H177.852C177.514 162.438 177.239 162.165 177.239 161.829C177.239 161.493 177.514 161.219 177.852 161.219H180.646C180.984 161.219 181.259 161.493 181.259 161.829C181.259 162.165 180.984 162.438 180.646 162.438Z" fill="#575757"/>
<path d="M185.964 162.438H183.171C182.833 162.438 182.558 162.165 182.558 161.829C182.558 161.493 182.833 161.219 183.171 161.219H185.964C186.302 161.219 186.577 161.493 186.577 161.829C186.577 162.165 186.305 162.438 185.964 162.438Z" fill="#575757"/>
<path d="M194.387 165.424H191.593C191.255 165.424 190.98 165.151 190.98 164.815C190.98 164.479 191.255 164.206 191.593 164.206H194.387C194.725 164.206 195 164.479 195 164.815C195 165.151 194.725 165.424 194.387 165.424Z" fill="#575757"/>
<g clip-path="url(#clip1_687_3748)">
<path d="M193.707 136.887C193.675 136.562 193.58 136.25 193.422 135.96C193.267 135.676 193.058 135.423 192.801 135.212C192.786 135.2 192.773 135.189 192.758 135.178L189.226 132.386C188.865 132.101 188.441 131.914 187.987 131.837C187.871 131.817 187.752 131.804 187.633 131.799C187.233 131.781 186.827 131.85 186.46 131.998C186.079 132.152 185.739 132.392 185.471 132.692L183.394 135.036L165.216 155.548L165.108 155.67L165.079 155.827L163.955 161.981L163.921 162.163L163.878 162.396L163.707 163.33C163.705 163.342 163.703 163.355 163.701 163.368C163.7 163.376 163.698 163.384 163.698 163.39C163.68 163.554 163.709 163.718 163.781 163.866C163.798 163.901 163.817 163.935 163.84 163.969L165.854 164.058L166.085 163.979L167.394 163.53L172.578 161.753L172.735 161.699L172.843 161.577L193.1 138.723C193.33 138.462 193.498 138.169 193.603 137.846C193.704 137.535 193.739 137.213 193.707 136.887ZM165.754 163.46L164.783 163.793C164.738 163.809 164.693 163.815 164.651 163.813C164.545 163.808 164.45 163.757 164.39 163.68C164.339 163.614 164.313 163.529 164.329 163.436L164.336 163.399L164.338 163.386L164.494 162.541L164.543 162.269L164.602 161.95L165.701 155.933L183.625 135.705L189.827 140.608L190.07 140.799L190.284 140.968L172.36 161.196L165.867 163.422L165.754 163.46ZM190.69 140.512L190.476 140.342L184.031 135.25L184.082 135.192L185.956 133.076C186.379 132.6 186.995 132.367 187.607 132.394C188.038 132.413 188.465 132.561 188.823 132.842L192.333 135.615L192.356 135.634C192.662 135.876 192.874 136.185 192.989 136.519C193.198 137.126 193.082 137.817 192.618 138.341L190.69 140.512Z" fill="#CEC7BF"/>
<path d="M183.179 134.865L185.307 132.464C185.78 131.931 186.474 131.644 187.214 131.677C187.732 131.7 188.217 131.879 188.618 132.195L192.151 134.987C193.147 135.774 193.281 137.176 192.453 138.112L190.325 140.514L183.179 134.865Z" fill="#518F9C"/>
<path d="M164.23 163.691C164.042 163.683 163.865 163.597 163.747 163.457C163.628 163.318 163.58 163.139 163.611 162.963L164.997 155.382L183.178 134.865L190.322 140.512L172.142 161.03L164.484 163.654C164.403 163.682 164.317 163.695 164.23 163.691Z" fill="#E5DFD8"/>
<path d="M186.621 141.452L186.59 141.428L186.081 141.036L185.593 140.66L185.449 140.826L185.195 141.118L172.123 156.159L171.977 156.327L171.777 156.556L171.721 156.62L172.213 156.999L172.724 157.391L173.213 157.767L173.61 157.309L186.683 142.268L187.084 141.807L186.621 141.452ZM172.903 156.764L172.611 156.539L172.667 156.475L185.684 141.497L185.731 141.533L185.978 141.721L186.194 141.889L173.12 156.93L172.903 156.764Z" fill="#CEC7BF"/>
<path d="M193.301 136.468C193.269 136.143 193.174 135.831 193.016 135.541C192.953 135.425 192.883 135.316 192.802 135.212C192.673 135.045 192.522 134.894 192.352 134.759L188.82 131.967C188.366 131.609 187.815 131.406 187.227 131.38C186.827 131.362 186.421 131.431 186.054 131.579C185.673 131.733 185.331 131.972 185.065 132.273L164.81 155.129L164.702 155.251L164.673 155.408L163.513 161.744L163.3 162.912C163.273 163.061 163.285 163.213 163.333 163.353C163.369 163.458 163.425 163.555 163.499 163.644C163.577 163.736 163.673 163.811 163.78 163.869C163.911 163.941 164.062 163.982 164.215 163.988C164.343 163.994 164.47 163.975 164.591 163.934L165.675 163.563L165.949 163.469L172.17 161.337L172.328 161.283L172.436 161.161L192.691 138.304C192.921 138.043 193.091 137.749 193.194 137.427C193.298 137.116 193.333 136.794 193.301 136.468ZM163.923 163.015L164.018 162.501L164.122 161.927L164.137 161.847L165.295 155.511L183.219 135.283L189.878 140.547L189.828 140.605L172.319 160.365L171.967 160.761L171.954 160.777L165.461 163.003L164.377 163.374C164.365 163.378 164.353 163.382 164.339 163.385C164.306 163.391 164.275 163.395 164.243 163.393C164.049 163.385 163.886 163.215 163.923 163.015ZM184.082 135.192L183.625 134.83L185.552 132.657C185.974 132.181 186.591 131.948 187.203 131.975C187.634 131.994 188.061 132.142 188.419 132.423L191.951 135.215C192.101 135.334 192.23 135.469 192.335 135.615C192.83 136.307 192.807 137.25 192.214 137.92L190.289 140.093L184.082 135.192Z" fill="#575757"/>
<path d="M184.021 139.31L183.993 139.288L183.485 138.895L182.996 138.516L182.85 138.683L182.597 138.975L169.526 154.016L169.38 154.184L169.181 154.413L169.127 154.475L169.615 154.855L170.124 155.248L170.613 155.625L171.012 155.166L184.084 140.125L184.484 139.666L184.021 139.31ZM170.305 154.621L170.013 154.395L170.067 154.333L183.085 139.354L183.133 139.39L183.378 139.58L183.594 139.747L170.522 154.788L170.305 154.621Z" fill="#CEC7BF"/>
<path d="M182.636 138.517L169.163 154.017L170.159 154.79L183.632 139.289L182.636 138.517Z" fill="#B5B5B5"/>
<path d="M183.587 138.869L183.078 138.476L182.59 138.098L182.19 138.558L169.118 153.599L168.718 154.058L169.179 154.415L169.207 154.437L169.716 154.83L170.204 155.209L170.604 154.75L183.676 139.709L184.021 139.312L184.075 139.25L183.587 138.869ZM170.069 154.334L169.608 153.977L182.681 138.935L183.189 139.328L183.135 139.39L170.117 154.37L170.069 154.334Z" fill="#575757"/>
<path d="M166.894 161.6C166.826 161.597 166.758 161.573 166.706 161.531L165.44 160.529C165.353 160.461 165.311 160.352 165.331 160.247L166.139 155.975C166.15 155.916 166.179 155.861 166.224 155.819C166.494 155.541 166.88 155.393 167.284 155.41C167.584 155.424 167.864 155.526 168.094 155.709C168.371 155.929 168.541 156.238 168.576 156.579C168.579 156.618 168.581 156.657 168.581 156.694C168.679 156.677 168.782 156.67 168.884 156.675C169.184 156.688 169.465 156.791 169.694 156.973C169.971 157.193 170.142 157.502 170.176 157.844C170.18 157.882 170.181 157.921 170.181 157.958C170.279 157.942 170.382 157.935 170.484 157.939C170.784 157.953 171.063 158.055 171.294 158.238C171.571 158.458 171.742 158.767 171.777 159.108C171.807 159.425 171.715 159.737 171.514 159.989C171.477 160.042 171.423 160.082 171.357 160.103L167.019 161.58C166.976 161.596 166.935 161.602 166.894 161.6Z" fill="#518F9C"/>
<path d="M172.495 159.502C172.453 159.082 172.243 158.7 171.9 158.431C171.88 158.415 171.859 158.4 171.839 158.384C171.599 158.213 171.32 158.105 171.021 158.073C170.982 158.068 170.943 158.066 170.902 158.064C170.89 158.064 170.878 158.063 170.866 158.063C170.862 158.045 170.857 158.027 170.853 158.007C170.822 157.89 170.78 157.775 170.721 157.67C170.62 157.478 170.478 157.308 170.3 157.166C170.28 157.151 170.258 157.135 170.238 157.12C169.998 156.946 169.72 156.841 169.421 156.808C169.382 156.803 169.342 156.801 169.301 156.8C169.29 156.799 169.278 156.799 169.266 156.798C169.261 156.78 169.257 156.762 169.253 156.743C169.222 156.625 169.179 156.511 169.121 156.403C169.02 156.212 168.877 156.041 168.699 155.9C168.679 155.885 168.658 155.869 168.636 155.854C168.396 155.682 168.118 155.575 167.819 155.542C167.78 155.537 167.739 155.535 167.699 155.533C167.209 155.512 166.738 155.691 166.406 156.026C166.315 156.112 166.252 156.223 166.229 156.348L165.493 160.245L165.438 160.534L165.422 160.615C165.402 160.724 165.414 160.835 165.456 160.936C165.494 161.029 165.557 161.112 165.64 161.179L166.907 162.179C167.016 162.264 167.149 162.312 167.285 162.318C167.367 162.322 167.449 162.311 167.527 162.284L167.971 162.133L171.863 160.807C171.898 160.795 171.931 160.781 171.964 160.764C172.05 160.72 172.122 160.655 172.175 160.58C172.228 160.512 172.275 160.441 172.315 160.367C172.461 160.102 172.522 159.803 172.495 159.502ZM171.866 159.553C171.889 159.793 171.82 160.04 171.654 160.242L171.652 160.242L167.757 161.569L167.313 161.72L167.1 161.553L166.046 160.72L166.062 160.635L166.115 160.349L166.851 156.448L166.851 156.446C167.066 156.222 167.37 156.113 167.672 156.127C167.839 156.134 168.006 156.18 168.155 156.264C168.202 156.29 168.249 156.321 168.291 156.355C168.499 156.519 168.622 156.747 168.656 156.984C168.658 156.997 168.66 157.01 168.662 157.023C168.685 157.262 168.616 157.509 168.45 157.711L168.452 157.711C168.667 157.487 168.97 157.378 169.272 157.391C169.439 157.399 169.606 157.445 169.756 157.529C169.803 157.555 169.849 157.586 169.892 157.62C170.1 157.784 170.223 158.012 170.257 158.248C170.258 158.261 170.261 158.274 170.262 158.289C170.285 158.528 170.216 158.775 170.05 158.977L170.052 158.979C170.267 158.755 170.57 158.646 170.872 158.659C171.039 158.666 171.206 158.711 171.356 158.796C171.403 158.823 171.449 158.854 171.492 158.888C171.617 158.987 171.713 159.108 171.775 159.242C171.826 159.339 171.855 159.447 171.866 159.553Z" fill="#CEC7BF"/>
<path d="M172.088 159.083C172.063 158.831 171.977 158.592 171.839 158.383C171.746 158.243 171.63 158.119 171.494 158.01C171.269 157.833 171.006 157.716 170.722 157.667C170.647 157.654 170.571 157.645 170.494 157.642C170.482 157.641 170.47 157.641 170.458 157.64C170.417 157.453 170.343 157.276 170.235 157.117C170.143 156.977 170.027 156.851 169.89 156.744C169.665 156.566 169.403 156.45 169.118 156.4C169.043 156.387 168.967 156.379 168.89 156.376C168.878 156.375 168.866 156.375 168.854 156.374C168.813 156.187 168.739 156.01 168.632 155.85C168.539 155.711 168.423 155.587 168.288 155.478C168.004 155.254 167.66 155.126 167.29 155.11C166.799 155.088 166.328 155.267 165.996 155.602C165.905 155.688 165.842 155.799 165.82 155.924L165.084 159.821L165.014 160.191C164.974 160.402 165.057 160.617 165.232 160.755L165.453 160.931L166.497 161.757C166.606 161.842 166.739 161.89 166.875 161.896C166.957 161.899 167.039 161.889 167.118 161.861L167.561 161.71L171.453 160.384C171.583 160.342 171.691 160.261 171.766 160.158C172.013 159.85 172.126 159.47 172.088 159.083ZM166.064 160.636L165.641 160.301L165.711 159.931L166.447 156.029L166.447 156.028C166.662 155.804 166.965 155.695 167.267 155.708C167.487 155.718 167.707 155.793 167.888 155.937C168.006 156.029 168.096 156.142 168.159 156.264C168.214 156.372 168.247 156.487 168.259 156.604C168.282 156.843 168.213 157.09 168.047 157.292L168.049 157.294C168.213 157.121 168.431 157.018 168.66 156.984C168.729 156.974 168.799 156.971 168.869 156.974C169.089 156.984 169.309 157.06 169.49 157.203C169.608 157.295 169.698 157.407 169.761 157.531C169.816 157.638 169.849 157.754 169.861 157.87C169.884 158.11 169.815 158.356 169.649 158.558L169.651 158.56C169.815 158.387 170.033 158.284 170.262 158.25C170.331 158.24 170.401 158.237 170.471 158.24C170.691 158.25 170.909 158.326 171.092 158.469C171.21 158.561 171.3 158.675 171.363 158.797C171.418 158.904 171.451 159.02 171.463 159.136C171.486 159.376 171.417 159.622 171.251 159.824L171.249 159.824L167.354 161.152L166.91 161.303L166.064 160.636Z" fill="#575757"/>
<path d="M171.76 156.161L185.23 140.661L186.231 141.43L172.759 156.93L171.76 156.161Z" fill="#B5B5B5"/>
<path d="M186.183 141.009L185.674 140.617L185.185 140.241L184.788 140.699L171.715 155.74L171.314 156.201L171.777 156.557L171.808 156.581L172.318 156.972L172.807 157.348L173.205 156.89L186.277 141.849L186.622 141.452L186.678 141.388L186.183 141.009ZM172.666 156.475L172.204 156.12L185.276 141.078L185.787 141.47L185.731 141.533L172.713 156.513L172.666 156.475Z" fill="#575757"/>
<path d="M173.574 161.387L172.14 161.323C171.966 161.315 171.83 161.176 171.837 161.012C171.845 160.848 171.992 160.721 172.166 160.728L173.603 160.792C173.776 160.8 173.912 160.939 173.905 161.103C173.897 161.267 173.75 161.394 173.574 161.387Z" fill="#575757"/>
<path d="M164.383 158.683L163.055 158.624C162.894 158.617 162.775 158.344 162.79 158.015C162.805 157.686 162.947 157.424 163.108 157.431L164.435 157.49C164.596 157.497 164.715 157.77 164.7 158.099C164.686 158.428 164.543 158.69 164.383 158.683Z" fill="#575757"/>
</g>
</g>
<defs>
<filter id="filter0_d_687_3748" x="0" y="0" width="310.001" height="273" filterUnits="userSpaceOnUse" color-interpolation-filters="sRGB">
<feFlood flood-opacity="0" result="BackgroundImageFix"/>
<feColorMatrix in="SourceAlpha" type="matrix" values="0 0 0 0 0 0 0 0 0 0 0 0 0 0 0 0 0 0 127 0" result="hardAlpha"/>
<feOffset dy="4"/>
<feGaussianBlur stdDeviation="2"/>
<feComposite in2="hardAlpha" operator="out"/>
<feColorMatrix type="matrix" values="0 0 0 0 0 0 0 0 0 0 0 0 0 0 0 0 0 0 0.25 0"/>
<feBlend mode="normal" in2="BackgroundImageFix" result="effect1_dropShadow_687_3748"/>
<feBlend mode="normal" in="SourceGraphic" in2="effect1_dropShadow_687_3748" result="shape"/>
</filter>
<clipPath id="clip0_687_3748">
<rect width="81" height="74.7692" fill="white" transform="translate(114 93)"/>
</clipPath>
<clipPath id="clip1_687_3748">
<rect width="29.259" height="33.5937" fill="white" transform="translate(164.731 130.385) rotate(2.53303)"/>
</clipPath>
</defs>
</svg>
