<svg width="303" height="265" viewBox="0 0 303 265" fill="none" xmlns="http://www.w3.org/2000/svg">
<g opacity="0.5">
<path d="M7.24655 111.574C11.7508 116.07 17.8585 118.596 24.2275 118.596C29.011 118.596 33.6504 117.166 37.5691 114.559L20.471 131.623C15.9668 136.119 13.4354 142.214 13.4354 148.571C13.4354 154.927 15.9668 161.023 20.471 165.518C24.9752 170.014 31.083 172.54 37.452 172.54C42.2355 172.54 46.8748 171.11 50.7935 168.503L41.8211 177.458C37.3168 181.953 34.7855 188.049 34.7855 194.405C34.7855 200.762 37.3168 206.857 41.8211 211.353C46.3253 215.848 52.4331 218.374 58.802 218.374C63.5855 218.374 68.2249 216.945 72.1436 214.338L69.9545 216.522C65.4503 221.018 62.9189 227.113 62.9189 233.47C62.9189 239.826 65.4503 245.922 69.9545 250.417C74.4588 254.912 80.5665 257.439 86.9355 257.439C93.3045 257.439 99.4122 254.912 103.916 250.417L126.699 227.716C124.077 231.627 122.654 236.257 122.654 241.031C122.654 247.387 125.185 253.483 129.69 257.978C134.194 262.474 140.302 265 146.671 265C153.04 265 159.147 262.474 163.652 257.978L198.235 223.463C195.614 227.374 194.19 232.004 194.19 236.778C194.19 243.135 196.722 249.23 201.226 253.726C205.73 258.221 211.838 260.747 218.207 260.747C224.576 260.747 230.684 258.221 235.188 253.726L289.032 199.988C293.536 195.493 296.067 189.397 296.067 183.041C296.067 176.685 293.536 170.589 289.032 166.094C284.527 161.598 278.42 159.072 272.051 159.072C267.267 159.072 262.628 160.501 258.709 163.109L269.979 151.861C274.483 147.366 277.014 141.27 277.014 134.914C277.014 128.558 274.483 122.462 269.979 117.967C265.474 113.471 259.367 110.945 252.998 110.945C248.214 110.945 243.575 112.374 239.656 114.982L262.421 92.2623C266.925 87.7669 269.456 81.6712 269.456 75.3148C269.456 68.9584 266.925 62.8628 262.421 58.3674C257.916 53.8721 251.809 51.3457 245.44 51.3457C240.656 51.3457 236.017 52.7752 232.098 55.3825L246.593 40.9165C251.097 36.4212 253.628 30.3255 253.628 23.9691C253.628 17.6127 251.097 11.517 246.593 7.02171C242.088 2.52638 235.981 0 229.612 0C223.243 0 217.135 2.52638 212.631 7.02171L180.344 39.2443C182.966 35.3333 184.389 30.7031 184.389 25.9291C184.389 19.5727 181.858 13.477 177.354 8.98168C172.849 4.48634 166.742 1.95996 160.373 1.95996C153.977 1.95996 147.869 4.47735 143.365 8.97269L98.0429 54.2047C100.664 50.2938 102.088 45.6636 102.088 40.8896C102.088 34.5332 99.5564 28.4375 95.0521 23.9422C90.5479 19.4468 84.4401 16.9204 78.0712 16.9204C71.7022 16.9204 65.5944 19.4468 61.0902 23.9422L7.24655 77.6704C2.74232 82.1657 0.210938 88.2614 0.210938 94.6178C0.210938 100.974 2.74232 107.079 7.24655 111.574Z" fill="#E5DFD8"/>
<path d="M295.364 213.753L293.707 215.407C293.058 216.055 293.058 217.106 293.707 217.754C294.355 218.401 295.409 218.401 296.058 217.754L297.715 216.1L299.373 217.754C300.022 218.401 301.076 218.401 301.724 217.754C302.373 217.106 302.373 216.055 301.724 215.407L300.067 213.753L301.724 212.099C302.373 211.451 302.373 210.399 301.724 209.752C301.4 209.428 300.976 209.267 300.544 209.267C300.112 209.267 299.688 209.428 299.364 209.752L297.706 211.406L296.049 209.752C295.725 209.428 295.301 209.267 294.869 209.267C294.436 209.267 294.013 209.428 293.689 209.752C293.04 210.399 293.04 211.451 293.689 212.099L295.364 213.753Z" fill="#E5DFD8"/>
<path d="M57.8744 249.491L56.2169 251.146C55.5683 251.793 55.5683 252.845 56.2169 253.492C56.8655 254.139 57.9195 254.139 58.5681 253.492L60.2256 251.838L61.8832 253.492C62.5318 254.139 63.5858 254.139 64.2344 253.492C64.883 252.845 64.883 251.793 64.2344 251.146L62.5769 249.491L64.2344 247.837C64.883 247.19 64.883 246.138 64.2344 245.49C63.9101 245.167 63.4867 245.005 63.0543 245.005C62.6219 245.005 62.1985 245.167 61.8742 245.49L60.2166 247.145L58.5591 245.49C58.2348 245.167 57.8114 245.005 57.379 245.005C56.9556 245.005 56.5232 245.167 56.1989 245.49C55.5502 246.138 55.5502 247.19 56.1989 247.837L57.8744 249.491Z" fill="#E5DFD8"/>
<path d="M15.3544 102.467L13.6969 104.121C13.0482 104.768 13.0482 105.82 13.6969 106.468C14.3455 107.115 15.3995 107.115 16.0481 106.468L17.7056 104.813L19.3632 106.468C20.0118 107.115 21.0658 107.115 21.7144 106.468C22.363 105.82 22.363 104.768 21.7144 104.121L20.0568 102.467L21.7144 100.813C22.363 100.165 22.363 99.1133 21.7144 98.466C21.3901 98.1423 20.9667 97.9805 20.5343 97.9805C20.1109 97.9805 19.6785 98.1423 19.3542 98.466L17.6966 100.12L16.0391 98.466C15.7148 98.1423 15.2914 97.9805 14.859 97.9805C14.4356 97.9805 14.0031 98.1423 13.6788 98.466C13.0302 99.1133 13.0302 100.165 13.6788 100.813L15.3544 102.467Z" fill="#E5DFD8"/>
<path d="M215.387 17.2171L213.73 18.8713C213.081 19.5187 213.081 20.5706 213.73 21.2179C214.378 21.8652 215.432 21.8652 216.081 21.2179L217.738 19.5636L219.396 21.2179C220.045 21.8652 221.099 21.8652 221.747 21.2179C222.396 20.5706 222.396 19.5187 221.747 18.8713L220.09 17.2171L221.747 15.5628C222.396 14.9154 222.396 13.8635 221.747 13.2162C221.423 12.8925 220.999 12.7307 220.567 12.7307C220.144 12.7307 219.711 12.8925 219.387 13.2162L217.729 14.8705L216.072 13.2162C215.747 12.8925 215.324 12.7307 214.892 12.7307C214.468 12.7307 214.036 12.8925 213.712 13.2162C213.063 13.8635 213.063 14.9154 213.712 15.5628L215.387 17.2171Z" fill="#E5DFD8"/>
<path d="M184.966 251.802C187.641 251.802 189.822 253.978 189.822 256.648C189.822 259.318 187.641 261.494 184.966 261.494C182.29 261.494 180.11 259.318 180.11 256.648C180.101 253.978 182.281 251.802 184.966 251.802ZM184.966 258.185C185.813 258.185 186.497 257.502 186.497 256.657C186.497 255.812 185.813 255.128 184.966 255.128C184.119 255.128 183.435 255.812 183.435 256.657C183.435 257.502 184.119 258.185 184.966 258.185Z" fill="#E5DFD8"/>
<path d="M276.546 97.2791C279.222 97.2791 281.402 99.4548 281.402 102.125C281.402 104.795 279.222 106.971 276.546 106.971C273.87 106.971 271.69 104.795 271.69 102.125C271.681 99.4548 273.861 97.2791 276.546 97.2791ZM276.546 103.653C277.393 103.653 278.077 102.97 278.077 102.125C278.077 101.28 277.393 100.597 276.546 100.597C275.699 100.597 275.015 101.28 275.015 102.125C275.006 102.97 275.699 103.653 276.546 103.653Z" fill="#E5DFD8"/>
<path d="M73.1256 19.4468C75.8011 19.4468 77.9811 21.6225 77.9811 24.2928C77.9811 26.963 75.8011 29.1387 73.1256 29.1387C70.4501 29.1387 68.27 26.963 68.27 24.2928C68.27 21.6225 70.4501 19.4468 73.1256 19.4468ZM73.1256 25.8212C73.9724 25.8212 74.657 25.1379 74.657 24.2928C74.657 23.4476 73.9724 22.7643 73.1256 22.7643C72.2788 22.7643 71.5941 23.4476 71.5941 24.2928C71.5941 25.1379 72.2788 25.8212 73.1256 25.8212Z" fill="#E5DFD8"/>
<path d="M16.5162 170.859C19.1917 170.859 21.3718 173.035 21.3718 175.705C21.3718 178.375 19.1917 180.551 16.5162 180.551C13.8407 180.551 11.6606 178.375 11.6606 175.705C11.6606 173.035 13.8407 170.859 16.5162 170.859ZM16.5162 177.242C17.363 177.242 18.0477 176.559 18.0477 175.714C18.0477 174.869 17.363 174.185 16.5162 174.185C15.6694 174.185 14.9848 174.869 14.9848 175.714C14.9848 176.55 15.6694 177.242 16.5162 177.242Z" fill="#E5DFD8"/>
<path d="M7.24655 111.574C11.7508 116.07 17.8585 118.596 24.2275 118.596C29.011 118.596 33.6504 117.166 37.5691 114.559L20.471 131.623C15.9668 136.119 13.4354 142.214 13.4354 148.571C13.4354 154.927 15.9668 161.023 20.471 165.518C24.9752 170.014 31.083 172.54 37.452 172.54C42.2355 172.54 46.8748 171.11 50.7935 168.503L41.8211 177.458C37.3168 181.953 34.7855 188.049 34.7855 194.405C34.7855 200.762 37.3168 206.857 41.8211 211.353C46.3253 215.848 52.4331 218.374 58.802 218.374C63.5855 218.374 68.2249 216.945 72.1436 214.338L69.9545 216.522C65.4503 221.018 62.9189 227.113 62.9189 233.47C62.9189 239.826 65.4503 245.922 69.9545 250.417C74.4588 254.912 80.5665 257.439 86.9355 257.439C93.3045 257.439 99.4122 254.912 103.916 250.417L126.699 227.716C124.077 231.627 122.654 236.257 122.654 241.031C122.654 247.387 125.185 253.483 129.69 257.978C134.194 262.474 140.302 265 146.671 265C153.04 265 159.147 262.474 163.652 257.978L198.235 223.463C195.614 227.374 194.19 232.004 194.19 236.778C194.19 243.135 196.722 249.23 201.226 253.726C205.73 258.221 211.838 260.747 218.207 260.747C224.576 260.747 230.684 258.221 235.188 253.726L289.032 199.988C293.536 195.493 296.067 189.397 296.067 183.041C296.067 176.685 293.536 170.589 289.032 166.094C284.527 161.598 278.42 159.072 272.051 159.072C267.267 159.072 262.628 160.501 258.709 163.109L269.979 151.861C274.483 147.366 277.014 141.27 277.014 134.914C277.014 128.558 274.483 122.462 269.979 117.967C265.474 113.471 259.367 110.945 252.998 110.945C248.214 110.945 243.575 112.374 239.656 114.982L262.421 92.2623C266.925 87.7669 269.456 81.6712 269.456 75.3148C269.456 68.9584 266.925 62.8628 262.421 58.3674C257.916 53.8721 251.809 51.3457 245.44 51.3457C240.656 51.3457 236.017 52.7752 232.098 55.3825L246.593 40.9165C251.097 36.4212 253.628 30.3255 253.628 23.9691C253.628 17.6127 251.097 11.517 246.593 7.02171C242.088 2.52638 235.981 0 229.612 0C223.243 0 217.135 2.52638 212.631 7.02171L180.344 39.2443C182.966 35.3333 184.389 30.7031 184.389 25.9291C184.389 19.5727 181.858 13.477 177.354 8.98168C172.849 4.48634 166.742 1.95996 160.373 1.95996C153.977 1.95996 147.869 4.47735 143.365 8.97269L98.0429 54.2047C100.664 50.2938 102.088 45.6636 102.088 40.8896C102.088 34.5332 99.5564 28.4375 95.0521 23.9422C90.5479 19.4468 84.4401 16.9204 78.0712 16.9204C71.7022 16.9204 65.5944 19.4468 61.0902 23.9422L7.24655 77.6704C2.74232 82.1657 0.210938 88.2614 0.210938 94.6178C0.210938 100.974 2.74232 107.079 7.24655 111.574Z" fill="#1C3D45"/>
<path d="M295.364 213.753L293.707 215.407C293.058 216.055 293.058 217.106 293.707 217.754C294.355 218.401 295.409 218.401 296.058 217.754L297.715 216.1L299.373 217.754C300.022 218.401 301.076 218.401 301.724 217.754C302.373 217.106 302.373 216.055 301.724 215.407L300.067 213.753L301.724 212.099C302.373 211.451 302.373 210.399 301.724 209.752C301.4 209.428 300.976 209.267 300.544 209.267C300.112 209.267 299.688 209.428 299.364 209.752L297.706 211.406L296.049 209.752C295.725 209.428 295.301 209.267 294.869 209.267C294.436 209.267 294.013 209.428 293.689 209.752C293.04 210.399 293.04 211.451 293.689 212.099L295.364 213.753Z" fill="#3D737F"/>
<path d="M57.8744 249.491L56.2169 251.146C55.5683 251.793 55.5683 252.845 56.2169 253.492C56.8655 254.139 57.9195 254.139 58.5681 253.492L60.2256 251.838L61.8832 253.492C62.5318 254.139 63.5858 254.139 64.2344 253.492C64.883 252.845 64.883 251.793 64.2344 251.146L62.5769 249.491L64.2344 247.837C64.883 247.19 64.883 246.138 64.2344 245.49C63.9101 245.167 63.4867 245.005 63.0543 245.005C62.6219 245.005 62.1985 245.167 61.8742 245.49L60.2166 247.145L58.5591 245.49C58.2348 245.167 57.8114 245.005 57.379 245.005C56.9556 245.005 56.5232 245.167 56.1989 245.49C55.5502 246.138 55.5502 247.19 56.1989 247.837L57.8744 249.491Z" fill="#3D737F"/>
<path d="M15.3544 102.467L13.6969 104.121C13.0482 104.768 13.0482 105.82 13.6969 106.468C14.3455 107.115 15.3995 107.115 16.0481 106.468L17.7056 104.813L19.3632 106.468C20.0118 107.115 21.0658 107.115 21.7144 106.468C22.363 105.82 22.363 104.768 21.7144 104.121L20.0568 102.467L21.7144 100.813C22.363 100.165 22.363 99.1133 21.7144 98.466C21.3901 98.1423 20.9667 97.9805 20.5343 97.9805C20.1109 97.9805 19.6785 98.1423 19.3542 98.466L17.6966 100.12L16.0391 98.466C15.7148 98.1423 15.2914 97.9805 14.859 97.9805C14.4356 97.9805 14.0031 98.1423 13.6788 98.466C13.0302 99.1133 13.0302 100.165 13.6788 100.813L15.3544 102.467Z" fill="#3D737F"/>
<path d="M215.387 17.2171L213.73 18.8713C213.081 19.5187 213.081 20.5706 213.73 21.2179C214.378 21.8652 215.432 21.8652 216.081 21.2179L217.738 19.5636L219.396 21.2179C220.045 21.8652 221.099 21.8652 221.747 21.2179C222.396 20.5706 222.396 19.5187 221.747 18.8713L220.09 17.2171L221.747 15.5628C222.396 14.9154 222.396 13.8635 221.747 13.2162C221.423 12.8925 220.999 12.7307 220.567 12.7307C220.144 12.7307 219.711 12.8925 219.387 13.2162L217.729 14.8705L216.072 13.2162C215.747 12.8925 215.324 12.7307 214.892 12.7307C214.468 12.7307 214.036 12.8925 213.712 13.2162C213.063 13.8635 213.063 14.9154 213.712 15.5628L215.387 17.2171Z" fill="#3D737F"/>
<path d="M184.966 251.802C187.641 251.802 189.822 253.978 189.822 256.648C189.822 259.318 187.641 261.494 184.966 261.494C182.29 261.494 180.11 259.318 180.11 256.648C180.101 253.978 182.281 251.802 184.966 251.802ZM184.966 258.185C185.813 258.185 186.497 257.502 186.497 256.657C186.497 255.812 185.813 255.128 184.966 255.128C184.119 255.128 183.435 255.812 183.435 256.657C183.435 257.502 184.119 258.185 184.966 258.185Z" fill="#3D737F"/>
<path d="M276.546 97.2791C279.222 97.2791 281.402 99.4548 281.402 102.125C281.402 104.795 279.222 106.971 276.546 106.971C273.87 106.971 271.69 104.795 271.69 102.125C271.681 99.4548 273.861 97.2791 276.546 97.2791ZM276.546 103.653C277.393 103.653 278.077 102.97 278.077 102.125C278.077 101.28 277.393 100.597 276.546 100.597C275.699 100.597 275.015 101.28 275.015 102.125C275.006 102.97 275.699 103.653 276.546 103.653Z" fill="#3D737F"/>
<path d="M73.1256 19.4468C75.8011 19.4468 77.9811 21.6225 77.9811 24.2928C77.9811 26.963 75.8011 29.1387 73.1256 29.1387C70.4501 29.1387 68.27 26.963 68.27 24.2928C68.27 21.6225 70.4501 19.4468 73.1256 19.4468ZM73.1256 25.8212C73.9724 25.8212 74.657 25.1379 74.657 24.2928C74.657 23.4476 73.9724 22.7643 73.1256 22.7643C72.2788 22.7643 71.5941 23.4476 71.5941 24.2928C71.5941 25.1379 72.2788 25.8212 73.1256 25.8212Z" fill="#3D737F"/>
<path d="M16.5162 170.859C19.1917 170.859 21.3718 173.035 21.3718 175.705C21.3718 178.375 19.1917 180.551 16.5162 180.551C13.8407 180.551 11.6606 178.375 11.6606 175.705C11.6606 173.035 13.8407 170.859 16.5162 170.859ZM16.5162 177.242C17.363 177.242 18.0477 176.559 18.0477 175.714C18.0477 174.869 17.363 174.185 16.5162 174.185C15.6694 174.185 14.9848 174.869 14.9848 175.714C14.9848 176.55 15.6694 177.242 16.5162 177.242Z" fill="#3D737F"/>
</g>
<path d="M172.665 158.867L242.3 127.521V201.184L172.665 158.867Z" fill="#3D737F"/>
<path d="M242.232 121.895C241.903 119.005 240.46 116.356 238.165 114.491L226.94 103.917L225.874 102.911L225.148 102.235L223.395 100.582V137.95L225.148 137.157L225.874 136.829L226.94 136.345L229.458 135.215L242.31 129.425V123.171C242.3 122.746 242.281 122.32 242.232 121.895ZM240.508 128.274L229.448 133.252L226.93 134.383V106.372L236.973 115.834L237.002 115.854C237.148 115.97 237.283 116.086 237.419 116.211C237.458 116.24 237.496 116.279 237.525 116.308C237.564 116.337 237.593 116.376 237.632 116.405C237.661 116.434 237.7 116.463 237.729 116.501C237.758 116.53 237.787 116.559 237.816 116.588C237.845 116.617 237.874 116.656 237.913 116.685C237.961 116.743 238.01 116.791 238.068 116.849C238.126 116.917 238.184 116.975 238.242 117.043C238.252 117.052 238.271 117.072 238.281 117.081C238.339 117.149 238.397 117.217 238.446 117.284C238.504 117.362 238.562 117.429 238.62 117.507C238.62 117.507 238.62 117.507 238.63 117.516C238.659 117.555 238.688 117.594 238.707 117.623C238.726 117.642 238.746 117.671 238.755 117.69C238.784 117.729 238.814 117.777 238.843 117.816C238.92 117.932 238.998 118.038 239.065 118.154C239.085 118.183 239.104 118.222 239.123 118.251C239.143 118.27 239.153 118.299 239.172 118.328C239.201 118.367 239.22 118.415 239.249 118.454C239.278 118.512 239.307 118.56 239.346 118.618C239.366 118.647 239.375 118.676 239.395 118.705C239.424 118.763 239.453 118.821 239.482 118.879C239.521 118.957 239.559 119.034 239.598 119.111C239.598 119.111 239.598 119.121 239.608 119.121C239.646 119.198 239.675 119.276 239.714 119.343C239.743 119.411 239.772 119.479 239.801 119.537C239.811 119.556 239.821 119.575 239.821 119.595C239.85 119.672 239.879 119.74 239.908 119.817C239.937 119.884 239.956 119.952 239.985 120.02C239.995 120.049 240.005 120.087 240.014 120.116C240.024 120.155 240.034 120.184 240.053 120.223C240.063 120.261 240.082 120.3 240.092 120.339C240.102 120.348 240.102 120.368 240.102 120.377C240.121 120.435 240.14 120.493 240.16 120.561C240.179 120.619 240.189 120.677 240.208 120.745C240.218 120.783 240.228 120.832 240.247 120.87C240.247 120.88 240.247 120.88 240.247 120.89C240.276 121.015 240.305 121.151 240.334 121.286C240.344 121.325 240.353 121.363 240.353 121.412C240.363 121.47 240.373 121.537 240.392 121.605C240.402 121.682 240.421 121.75 240.431 121.827C240.431 121.847 240.441 121.866 240.441 121.876C240.45 121.943 240.46 122.011 240.47 122.079C240.47 122.098 240.47 122.117 240.479 122.137C240.489 122.195 240.489 122.253 240.499 122.311C240.508 122.407 240.518 122.504 240.518 122.601C240.518 122.63 240.518 122.659 240.518 122.688C240.518 122.746 240.528 122.813 240.528 122.871C240.528 122.881 240.528 122.9 240.528 122.92C240.528 123.007 240.528 123.084 240.528 123.171V128.274H240.508Z" fill="#E5DFD8"/>
<path d="M240.508 123.181V128.284L226.93 134.393V106.381L236.973 115.844L237.002 115.864C239.23 117.652 240.508 120.32 240.508 123.181Z" fill="#E5DFD8"/>
<path d="M125.034 54.5147L142.68 37.8991L142.825 37.7831C144.781 36.2559 147.241 35.4053 149.75 35.4053C152.258 35.4053 154.709 36.2462 156.675 37.7831L156.82 37.8991L174.466 54.5147H125.034Z" fill="#E5DFD8"/>
<path d="M57.2007 127.521L126.836 158.867L57.2007 201.184V127.521Z" fill="#3D737F"/>
<path d="M75.0791 101.548L74.3527 102.225L72.561 103.917L61.3264 114.491C58.6921 116.627 57.1909 119.788 57.1909 123.181V129.434L57.9173 129.763L72.561 136.355L74.3527 137.157L76.1057 137.95V100.582L75.0791 101.548ZM58.9923 123.181C58.9923 120.329 60.2707 117.661 62.4886 115.864L62.5177 115.844L72.5707 106.381V134.393L61.5104 129.415L58.9923 128.284V123.181Z" fill="#E5DFD8"/>
<path d="M72.5701 106.372V134.383L58.9917 128.275V123.171C58.9917 120.32 60.2701 117.652 62.488 115.854L62.517 115.835L72.5701 106.372Z" fill="#E5DFD8"/>
<path d="M187.27 99.9536C187.27 105.009 186.282 109.909 184.316 114.53C182.427 118.986 179.725 122.987 176.277 126.428C172.83 129.869 168.82 132.566 164.355 134.451C159.726 136.404 154.815 137.399 149.75 137.399C144.685 137.399 139.775 136.413 135.145 134.451C130.68 132.566 126.661 129.869 123.223 126.428C119.775 122.987 117.073 118.986 115.184 114.53C113.228 109.909 112.24 105.009 112.24 99.9536C112.24 94.8983 113.228 89.9977 115.184 85.3775C117.073 80.9215 119.775 76.9102 123.223 73.4788C126.671 70.0474 130.68 67.341 135.145 65.4561C139.775 63.5036 144.685 62.5081 149.75 62.5081C154.815 62.5081 159.726 63.494 164.355 65.4561C168.82 67.341 172.839 70.0378 176.277 73.4788C179.725 76.9198 182.427 80.9215 184.316 85.3775C186.272 89.9977 187.27 94.8983 187.27 99.9536Z" fill="#E5DFD8"/>
<path d="M225.1 61.59C224.78 57.9846 222.465 54.9495 219.279 53.5576C218.097 53.0454 216.79 52.7554 215.415 52.7554H84.086C78.7302 52.7554 74.3623 57.105 74.3623 62.4599V137.148L76.1153 137.941L77.907 138.743L121.112 158.2L123.088 159.089L125.025 159.959L126.836 158.857L128.695 157.727L144.83 147.925C146.322 147.017 148.026 146.543 149.75 146.543C151.474 146.543 153.179 147.026 154.68 147.925L170.815 157.727L172.675 158.857L174.486 159.959L176.423 159.089L177.478 158.616L178.408 158.2L221.613 138.752L223.405 137.941L225.158 137.148V62.4696C225.138 62.1699 225.129 61.8799 225.1 61.59ZM223.347 136.007L221.594 136.8L176.529 157.089L174.718 155.987L156.51 144.929C154.467 143.682 152.123 143.025 149.741 143.025C147.358 143.025 145.014 143.682 142.971 144.929L124.763 155.987L122.952 157.089L78.6624 137.138L77.8973 136.79L76.1443 135.998V62.4696C76.1443 58.1006 79.6987 54.5532 84.0764 54.5532H215.415C218.243 54.5532 220.732 56.0418 222.136 58.2746C222.901 59.4925 223.347 60.9327 223.347 62.4696V136.007Z" fill="#E5DFD8"/>
<path d="M222.136 58.2743C220.731 56.0415 218.242 54.553 215.414 54.553H84.0858C79.7179 54.553 76.1538 58.1003 76.1538 62.4693V136.007L77.9068 136.8L78.6719 137.148L122.971 157.088L124.782 155.986L142.99 144.929C145.033 143.682 147.377 143.025 149.76 143.025C152.142 143.025 154.486 143.682 156.53 144.929L174.737 155.986L176.548 157.088L221.613 136.8L223.366 136.007V62.4693C223.346 60.9324 222.901 59.4922 222.136 58.2743ZM124.511 127.646C124.075 127.25 123.649 126.844 123.223 126.419C119.775 122.978 117.073 118.976 115.184 114.52C113.228 109.9 112.24 104.999 112.24 99.9438C112.24 94.8886 113.228 89.988 115.184 85.3677C117.073 80.9118 119.775 76.9004 123.223 73.4691C126.671 70.0377 130.68 67.3312 135.145 65.4464C139.775 63.4939 144.685 62.4983 149.75 62.4983C154.815 62.4983 159.726 63.4842 164.355 65.4464C168.82 67.3312 172.839 70.028 176.277 73.4691C176.694 73.8847 177.11 74.3196 177.507 74.7546C177.594 74.8513 177.682 74.9479 177.769 75.0446C177.856 75.1412 177.933 75.2282 178.021 75.3249C178.03 75.3346 178.04 75.3442 178.04 75.3539C178.098 75.4216 178.156 75.4892 178.224 75.5569C178.34 75.6922 178.456 75.8275 178.563 75.9532C178.64 76.0498 178.718 76.1465 178.795 76.2335C178.912 76.3785 179.028 76.5235 179.154 76.6685C179.202 76.7265 179.251 76.7941 179.299 76.8521C179.551 77.1711 179.793 77.4997 180.035 77.8284C180.093 77.9057 180.151 77.983 180.209 78.0603C180.229 78.0893 180.248 78.1183 180.277 78.1473C180.345 78.244 180.413 78.3406 180.481 78.4373C180.558 78.5436 180.636 78.65 180.703 78.7563C180.771 78.8626 180.849 78.9689 180.926 79.0849C181.004 79.1912 181.071 79.3072 181.149 79.4136C181.372 79.7519 181.594 80.0998 181.807 80.4478C181.846 80.5155 181.895 80.5831 181.933 80.6604C182.069 80.8924 182.204 81.1148 182.34 81.3467C182.389 81.4337 182.447 81.5207 182.495 81.6174C182.553 81.714 182.602 81.801 182.65 81.8977C182.689 81.975 182.737 82.0523 182.776 82.1297C182.97 82.4873 183.163 82.8546 183.347 83.2219C183.386 83.2896 183.415 83.3669 183.454 83.4346C183.512 83.5505 183.57 83.6665 183.618 83.7825C183.657 83.8598 183.686 83.9275 183.725 84.0048C183.754 84.0628 183.783 84.1305 183.812 84.1885C183.899 84.3721 183.977 84.5558 184.064 84.7298C184.103 84.8071 184.141 84.8941 184.171 84.9714C184.229 85.0971 184.277 85.2131 184.326 85.3387C186.282 89.959 187.279 94.8596 187.279 99.9148C187.279 104.97 186.292 109.871 184.326 114.491C182.437 118.947 179.735 122.949 176.287 126.39C172.839 129.831 168.83 132.527 164.365 134.412C159.735 136.365 154.825 137.36 149.76 137.36C144.695 137.36 139.784 136.374 135.155 134.412C134.719 134.229 134.293 134.045 133.876 133.842C133.76 133.784 133.634 133.726 133.518 133.668C133.508 133.658 133.499 133.658 133.489 133.658C133.373 133.6 133.257 133.542 133.14 133.494C133.121 133.484 133.092 133.475 133.063 133.455C132.937 133.388 132.811 133.33 132.685 133.262C132.579 133.204 132.472 133.156 132.366 133.098C132.046 132.933 131.726 132.759 131.416 132.585C131.329 132.537 131.242 132.489 131.145 132.431C131.039 132.373 130.942 132.315 130.835 132.257C130.767 132.218 130.69 132.17 130.622 132.131C130.525 132.073 130.438 132.015 130.341 131.957C130.332 131.947 130.322 131.947 130.322 131.938C130.225 131.88 130.119 131.822 130.022 131.754C129.508 131.435 128.995 131.107 128.501 130.759C128.424 130.71 128.356 130.662 128.278 130.604C128.191 130.546 128.104 130.478 128.017 130.42C127.92 130.353 127.823 130.285 127.726 130.208C127.649 130.15 127.562 130.092 127.484 130.034C127.416 129.985 127.339 129.927 127.271 129.879C127.048 129.715 126.826 129.541 126.613 129.376C126.496 129.289 126.39 129.202 126.274 129.106C126.08 128.951 125.896 128.796 125.712 128.642C125.634 128.574 125.547 128.506 125.47 128.439C125.383 128.361 125.295 128.294 125.218 128.226C125.141 128.158 125.063 128.091 124.976 128.013C124.811 127.926 124.656 127.791 124.511 127.646Z" fill="#E5DFD8"/>
<path d="M149.75 135.602C144.927 135.602 140.25 134.654 135.843 132.798C131.591 131.001 127.766 128.429 124.492 125.162C121.218 121.895 118.633 118.077 116.841 113.834C114.981 109.436 114.032 104.767 114.032 99.9538C114.032 95.1402 114.981 90.4716 116.841 86.0737C118.642 81.8303 121.218 78.0123 124.492 74.7453C127.766 71.4782 131.591 68.8974 135.843 67.1093C140.25 65.2534 144.927 64.3062 149.75 64.3062C154.574 64.3062 159.251 65.2534 163.658 67.1093C167.91 68.9071 171.735 71.4782 175.009 74.7453C178.292 78.022 180.868 81.8303 182.66 86.0737C184.52 90.4716 185.469 95.1402 185.469 99.9538C185.469 104.767 184.52 109.436 182.66 113.834C180.859 118.077 178.282 121.895 175.009 125.162C171.726 128.439 167.91 131.01 163.658 132.798C159.251 134.664 154.574 135.602 149.75 135.602Z" fill="#3D737F"/>
<path d="M178.263 160.23L176.413 159.099L174.602 157.997L172.752 156.866L155.59 146.437C155.077 146.128 154.544 145.857 154.002 145.635C152.656 145.084 151.213 144.794 149.76 144.794C147.707 144.794 145.692 145.364 143.929 146.437L126.768 156.866L124.908 157.997L123.649 158.761L123.097 159.099L121.247 160.23L119.949 161.023L61.5198 196.535L57.9363 198.71L57.21 199.145V203.175C57.21 203.214 57.21 203.243 57.21 203.282C57.21 203.591 57.2293 203.9 57.2584 204.2C57.3262 204.993 57.4811 205.766 57.7136 206.501C57.8104 206.81 57.9266 207.119 58.0429 207.419C58.9242 209.545 60.4351 211.353 62.3527 212.58C63.7667 213.489 65.4035 214.098 67.1564 214.301C67.5729 214.349 67.999 214.378 68.4252 214.378H231.085C233.322 214.378 235.404 213.721 237.157 212.59C239.346 211.179 241.012 209.023 241.796 206.491C242.019 205.756 242.174 205.002 242.251 204.21C242.281 203.9 242.29 203.591 242.3 203.282C242.3 203.243 242.3 203.214 242.3 203.175V199.145L178.263 160.23ZM240.508 203.175C240.508 208.366 236.276 212.59 231.085 212.59H68.4155C68.3477 212.59 68.2799 212.59 68.2121 212.59C68.1831 212.59 68.154 212.59 68.1249 212.59C68.0571 212.59 67.999 212.59 67.9312 212.58C67.8731 212.58 67.8247 212.571 67.7763 212.571C67.6891 212.561 67.602 212.561 67.5148 212.551C67.4664 212.551 67.4276 212.542 67.3889 212.542C67.3501 212.542 67.3211 212.532 67.2824 212.532C67.2533 212.532 67.2146 212.522 67.1855 212.522C67.0596 212.503 66.924 212.484 66.7981 212.464C66.7594 212.455 66.7206 212.455 66.6819 212.445C66.6238 212.435 66.5657 212.426 66.4979 212.406C66.4301 212.397 66.3623 212.377 66.2945 212.358C66.0039 212.29 65.7231 212.213 65.4422 212.116C65.4035 212.107 65.3647 212.097 65.3357 212.078C65.2969 212.068 65.2582 212.049 65.2098 212.039C65.0354 211.981 64.8611 211.904 64.6965 211.836C64.6577 211.826 64.6287 211.807 64.5996 211.797C64.5609 211.778 64.5221 211.759 64.4834 211.739C64.2897 211.652 64.1057 211.556 63.9217 211.459C63.8636 211.43 63.8054 211.401 63.7473 211.362C63.7376 211.353 63.728 211.353 63.7183 211.343C63.6602 211.304 63.6021 211.275 63.5439 211.237C63.4762 211.198 63.418 211.159 63.3502 211.121C63.2825 211.082 63.2243 211.034 63.1565 210.995C63.1469 210.995 63.1469 210.985 63.1372 210.985C63.1178 210.976 63.0984 210.956 63.0694 210.937C63.021 210.908 62.9822 210.879 62.9338 210.84C62.895 210.821 62.866 210.792 62.8369 210.763C62.8079 210.744 62.7788 210.725 62.7595 210.705C62.711 210.667 62.6626 210.637 62.6142 210.599C62.4883 210.502 62.3721 210.406 62.2558 210.299C62.2268 210.27 62.188 210.241 62.159 210.212C62.1299 210.183 62.0912 210.154 62.0621 210.125C62.0137 210.087 61.975 210.048 61.9362 210.009C61.9266 210 61.9266 210 61.9169 209.99C61.8588 209.942 61.8103 209.893 61.7619 209.835C61.7038 209.777 61.6554 209.729 61.607 209.671C61.4714 209.526 61.3455 209.391 61.2196 209.236C61.1808 209.197 61.1518 209.159 61.1227 209.11C61.0936 209.081 61.0646 209.043 61.0452 209.014C60.9484 208.888 60.8418 208.762 60.7547 208.627C60.7256 208.588 60.7062 208.55 60.6772 208.521C60.6481 208.492 60.6288 208.453 60.6094 208.414C60.59 208.385 60.5707 208.356 60.5513 208.327C60.5222 208.279 60.4835 208.231 60.4544 208.182C60.4351 208.153 60.4157 208.124 60.406 208.105C60.3673 208.047 60.3285 207.979 60.2898 207.921C60.2801 207.912 60.2801 207.902 60.2704 207.892C60.222 207.815 60.1832 207.738 60.1348 207.66C60.0573 207.515 59.9799 207.37 59.9121 207.225C59.8927 207.187 59.8733 207.138 59.854 207.1C59.8443 207.071 59.8249 207.042 59.8152 207.013C59.7959 206.974 59.7765 206.926 59.7571 206.887C59.7377 206.848 59.7281 206.819 59.7087 206.781C59.6603 206.665 59.6118 206.539 59.5634 206.414C59.544 206.346 59.515 206.278 59.4956 206.211C59.4666 206.124 59.4375 206.027 59.4084 205.94C59.3891 205.872 59.3697 205.814 59.3503 205.756C59.331 205.679 59.3116 205.611 59.2922 205.534C59.2922 205.534 59.2922 205.534 59.2922 205.524C59.2729 205.447 59.2535 205.379 59.2438 205.312C59.2438 205.312 59.2438 205.312 59.2438 205.302C59.2244 205.234 59.2148 205.167 59.1954 205.099C59.1566 204.925 59.1276 204.751 59.0985 204.577C59.0888 204.529 59.0889 204.48 59.0792 204.432C59.0695 204.355 59.0598 204.287 59.0501 204.21C59.0404 204.171 59.0404 204.132 59.0404 204.103C59.0307 204.045 59.0307 203.997 59.021 203.939C59.021 203.9 59.0114 203.862 59.0114 203.833C59.0114 203.784 59.0017 203.726 59.0017 203.678C59.0017 203.62 58.992 203.562 58.992 203.494C58.992 203.465 58.992 203.436 58.992 203.407C58.992 203.34 58.992 203.262 58.992 203.195V200.169L123.213 161.139L128.734 157.785L144.84 147.993C146.351 147.075 148.046 146.611 149.74 146.611C151.435 146.611 153.13 147.075 154.641 147.993L170.757 157.785L176.277 161.139L240.498 200.169V203.175H240.508Z" fill="#E5DFD8"/>
<path d="M240.508 200.15V203.175C240.508 208.366 236.275 212.59 231.084 212.59H68.4152C63.2143 212.59 58.9917 208.366 58.9917 203.175V200.15L123.213 161.119L128.733 157.765L144.839 147.974C146.35 147.055 148.045 146.591 149.74 146.591C151.435 146.591 153.13 147.055 154.641 147.974L170.757 157.765L176.277 161.119L240.508 200.15Z" fill="#E5DFD8"/>
<path d="M226.929 134.393L225.864 134.876V134.925L226.929 134.442L229.448 133.311V133.262L226.929 134.393ZM241.854 115.651L241.283 115.119L230.145 104.632L229.438 103.965V64.9827C229.438 61.1744 227.569 57.7913 224.712 55.7035C223.152 54.5629 221.293 53.809 219.278 53.5673C218.833 53.519 218.387 53.49 217.932 53.49H175.841L175.076 52.7651L174.931 52.6297L173.178 50.9769L160.626 39.1555L160.51 39.0395L160.384 38.9429L160.306 38.8752C158.495 37.464 156.316 36.5554 154.04 36.2461C153.459 36.1688 152.868 36.1301 152.278 36.1301C149.372 36.1301 146.525 37.1064 144.249 38.8849L144.162 38.9526L144.036 39.0492L143.919 39.1652L131.368 50.9865L129.605 52.6394L129.46 52.7747L128.695 53.4997H86.6036C80.2599 53.4997 75.0882 58.6516 75.0882 64.9924V103.984L74.3812 104.651L74.3715 104.661L72.5797 106.353L62.6817 115.67C59.66 118.145 57.936 121.799 57.936 125.704V206.897L57.9845 206.868C58.0038 207.061 58.0232 207.254 58.0523 207.438C58.3041 209.313 58.9626 211.072 59.9311 212.6C60.1345 212.919 60.3476 213.238 60.58 213.537C61.3452 214.542 62.2459 215.432 63.2628 216.176H241.273C242.6 215.209 243.733 213.992 244.614 212.6C245.592 211.063 246.241 209.294 246.493 207.409C246.513 207.225 246.542 207.042 246.551 206.858V203.833L246.6 125.694C246.609 121.779 244.876 118.135 241.854 115.651ZM243.026 198.468L242.3 198.033L240.508 196.941L182.756 161.844L183.686 161.429L224.111 143.228L227.336 141.778L229.448 140.831L240.508 135.853L242.3 135.05L243.026 134.722V198.468ZM78.6619 64.9827C78.6619 60.6234 82.2163 57.0664 86.5939 57.0664H217.932C219.472 57.0664 220.915 57.511 222.135 58.2746C223.414 59.0769 224.45 60.2271 225.099 61.5997C225.593 62.6242 225.864 63.7745 225.864 64.9827V138.521L224.111 139.313L221.593 140.444L179.977 159.186L179.047 159.602L177.497 158.664L177.459 158.635L177.236 158.5L175.647 157.533L175.609 157.504L173.798 156.402L159.038 147.432C157.537 146.524 155.88 145.925 154.166 145.673C154.108 145.664 154.06 145.654 154.001 145.654C153.43 145.577 152.849 145.538 152.268 145.538C149.885 145.538 147.542 146.195 145.498 147.442L128.598 157.717L127.3 158.51L126.748 158.848L125.489 159.611L123.649 158.78L121.673 157.891L80.4246 139.323L78.6716 138.53V64.9827H78.6619ZM239.52 118.367C240.711 119.324 241.631 120.542 242.222 121.895C242.687 122.939 242.948 124.07 243.007 125.23C243.016 125.375 243.016 125.53 243.016 125.684V130.788L242.29 131.116L240.498 131.919L229.438 136.897V108.885L238.61 117.526L239.481 118.348L239.52 118.367ZM134.719 52.7264L136.578 50.9769L146.37 41.7556L146.447 41.688C148.094 40.4024 150.157 39.6968 152.258 39.6968C154.36 39.6968 156.432 40.4024 158.069 41.688L158.156 41.7556L167.948 50.9769L169.807 52.7264L169.846 52.7651L170.611 53.49H133.905L134.67 52.7651L134.719 52.7264ZM61.5001 125.684C61.5001 122.833 62.7785 120.165 64.9964 118.367L65.0254 118.348L72.5604 111.253L74.3134 109.6L74.3521 109.562L75.0785 108.885V136.897L74.3521 136.568L72.5604 135.766L61.5001 130.788V125.684ZM61.5001 134.712L75.0785 140.821L77.1898 141.768L80.4149 143.218L117.954 160.114L119.891 160.984L119.939 161.003L121.78 161.835L61.5001 198.468V134.712ZM70.9333 215.093C69.5871 215.093 68.3087 214.813 67.1465 214.301C66.178 213.876 65.2966 213.296 64.5315 212.58C64.0085 212.097 63.534 211.546 63.1272 210.956C62.1006 209.449 61.5001 207.631 61.5001 205.679V202.653L125.721 163.623L131.242 160.269L147.358 150.477C148.868 149.559 150.563 149.095 152.258 149.095C153.953 149.095 155.648 149.559 157.159 150.477L173.265 160.269L178.785 163.623L240.498 201.126L242.29 202.219L243.016 202.653V205.679C243.016 206.24 242.968 206.79 242.871 207.322C242.503 209.381 241.467 211.208 239.985 212.58C238.3 214.137 236.053 215.093 233.583 215.093H70.9333ZM226.929 134.393L225.864 134.876V134.925L226.929 134.442L229.448 133.311V133.262L226.929 134.393Z" fill="#E5DFD8"/>
<path d="M186.834 87.8811C184.946 83.4251 182.243 79.4235 178.796 75.9824C178.379 75.5668 177.953 75.1608 177.517 74.7645C174.37 71.9034 170.805 69.6223 166.883 67.9694C164.752 67.0705 162.564 66.3746 160.336 65.8913C157.711 65.321 155.019 65.031 152.288 65.031C147.222 65.031 142.312 66.0169 137.683 67.9694C133.218 69.8543 129.208 72.551 125.761 75.9921C122.313 79.4331 119.611 83.4348 117.722 87.8907C115.766 92.511 114.768 97.4116 114.768 102.467C114.768 105.193 115.059 107.889 115.63 110.509C116.114 112.742 116.812 114.916 117.712 117.043C119.368 120.958 121.654 124.515 124.521 127.656C124.918 128.091 125.325 128.516 125.751 128.942C129.199 132.383 133.208 135.079 137.673 136.964C142.302 138.917 147.213 139.912 152.278 139.912C157.343 139.912 162.254 138.926 166.883 136.964C171.348 135.079 175.367 132.383 178.805 128.942C182.253 125.501 184.955 121.499 186.844 117.043C188.8 112.423 189.798 107.522 189.798 102.467C189.778 97.402 188.79 92.5014 186.834 87.8811ZM142.177 134.799C136.288 132.972 131.078 129.58 127.049 125.114C121.635 119.111 118.332 111.176 118.332 102.457C118.332 83.7538 133.528 68.5977 152.259 68.5977C160.985 68.5977 168.946 71.8841 174.96 77.297C179.435 81.318 182.825 86.5085 184.665 92.395C185.653 95.5751 186.195 98.9582 186.195 102.467C186.195 121.17 170.999 136.336 152.259 136.336C148.753 136.326 145.363 135.795 142.177 134.799Z" fill="#E5DFD8"/>
<path d="M226.93 134.432L225.864 134.915V136.877L226.93 136.394L229.448 135.263V133.301L226.93 134.432ZM226.93 134.432L225.864 134.915V136.877L226.93 136.394L229.448 135.263V133.301L226.93 134.432ZM243.007 125.23L242.3 125.549L240.508 126.361V128.275L229.448 133.253L226.93 134.383V132.47L225.864 132.953L225.187 133.262L225.148 133.282L223.395 134.074L223.356 134.093V136.007L221.603 136.8L176.539 157.089L174.728 155.987L173.798 156.402L172.791 156.857L172.742 156.876L170.805 157.746L170.757 157.765L176.277 161.119L240.498 200.15V202.199L242.29 203.282L243.017 203.726L243.201 203.833L244.034 204.335C244.053 204.161 244.063 203.997 244.072 203.823C244.082 203.61 244.092 203.388 244.092 203.175V124.747L243.007 125.23ZM240.508 198.004L178.311 160.201L176.5 159.099L177.507 158.645L178.437 158.229L221.603 138.791L225.864 136.868L226.93 136.384L229.448 135.253L240.508 130.275V198.004Z" fill="#575757"/>
<path d="M241.283 115.119C240.711 114.404 240.063 113.737 239.336 113.148L229.438 103.83L227.637 102.129L226.93 101.462L225.864 100.456L225.138 99.7798L223.346 98.0979V136.017L221.593 136.81V140.734L224.818 139.284L226.93 138.337L240.508 132.228L241.98 131.561L242.3 131.416L244.092 130.614V123.2C244.092 120.213 243.094 117.391 241.283 115.119ZM225.177 104.729L225.855 105.376L226.92 106.382L236.963 115.844L236.992 115.864C237.138 115.98 237.273 116.096 237.409 116.221C237.448 116.25 237.486 116.289 237.515 116.318C237.554 116.347 237.583 116.386 237.622 116.415C237.651 116.444 237.69 116.473 237.719 116.511C237.748 116.54 237.777 116.569 237.806 116.598C237.835 116.627 237.864 116.666 237.903 116.695C237.951 116.753 238 116.801 238.058 116.859C238.116 116.927 238.174 116.985 238.232 117.053C238.242 117.062 238.261 117.082 238.271 117.091C238.329 117.159 238.387 117.227 238.435 117.294C238.494 117.372 238.552 117.439 238.61 117.517C238.61 117.517 238.61 117.517 238.619 117.526C238.649 117.565 238.678 117.604 238.697 117.633C238.716 117.652 238.736 117.681 238.745 117.7C238.774 117.739 238.803 117.787 238.833 117.826C238.91 117.942 238.988 118.048 239.055 118.164C239.075 118.193 239.094 118.232 239.113 118.261C239.133 118.28 239.142 118.309 239.162 118.338C239.191 118.377 239.21 118.425 239.239 118.464C239.268 118.522 239.297 118.57 239.336 118.628C239.356 118.657 239.365 118.686 239.385 118.715C239.414 118.773 239.443 118.831 239.472 118.889C239.51 118.966 239.549 119.044 239.588 119.121C239.588 119.121 239.588 119.131 239.598 119.131C239.636 119.208 239.665 119.285 239.704 119.353C239.733 119.421 239.762 119.488 239.791 119.546C239.801 119.566 239.811 119.585 239.811 119.604C239.84 119.682 239.869 119.749 239.898 119.827C239.927 119.894 239.946 119.962 239.975 120.03C239.985 120.059 239.995 120.097 240.004 120.126C240.014 120.165 240.024 120.194 240.043 120.233C240.053 120.271 240.072 120.31 240.082 120.349C240.092 120.358 240.092 120.378 240.092 120.387C240.111 120.445 240.13 120.503 240.15 120.571C240.169 120.629 240.179 120.687 240.198 120.755C240.208 120.793 240.218 120.842 240.237 120.88C240.237 120.89 240.237 120.89 240.237 120.9C240.266 121.025 240.295 121.161 240.324 121.296C240.334 121.335 240.343 121.373 240.343 121.422C240.353 121.48 240.363 121.547 240.382 121.615C240.392 121.692 240.411 121.76 240.421 121.837C240.421 121.857 240.431 121.876 240.431 121.886C240.44 121.953 240.45 122.021 240.46 122.089C240.46 122.108 240.46 122.127 240.469 122.147C240.479 122.205 240.479 122.263 240.489 122.321C240.498 122.417 240.508 122.514 240.508 122.611C240.508 122.64 240.508 122.669 240.508 122.698C240.508 122.755 240.518 122.823 240.518 122.881C240.518 122.891 240.518 122.91 240.518 122.929C240.518 123.016 240.518 123.094 240.518 123.181V128.284L229.457 133.262L226.939 134.393L225.874 134.876L225.196 135.186V104.729H225.177Z" fill="#575757"/>
<path d="M175.987 53.4898L175.222 52.7649L173.323 50.9767L172.413 50.1261L158.099 36.6519L157.982 36.5359L157.856 36.4296L157.779 36.3619C155.513 34.5834 152.656 33.6072 149.75 33.6072C146.845 33.6072 143.997 34.5834 141.721 36.3619L141.634 36.4296L141.508 36.5359L141.392 36.6519L127.087 50.1261L126.177 50.9767L124.279 52.7649L123.514 53.4898L122.38 54.5531H177.12L175.987 53.4898ZM155.648 39.252L168.103 50.9767L169.963 52.7262H129.547L131.407 50.9767L143.862 39.252L143.939 39.1844C145.586 37.8988 147.649 37.1932 149.75 37.1932C151.852 37.1932 153.924 37.8988 155.561 39.1844L155.648 39.252Z" fill="#575757"/>
<path d="M121.189 160.201L119.891 160.994L119.939 161.013L121.237 160.22L121.189 160.201ZM128.694 157.736L128.598 157.697L126.757 156.866L126.709 156.847L124.772 155.977L122.961 157.079L78.6618 137.138L77.8967 136.79L76.1437 135.998V134.084L76.1049 134.064L75.0783 133.601L74.352 133.272L74.3132 133.253L72.5602 132.46V134.374L61.5 129.396L58.9819 128.265V126.361L57.9165 125.877L57.1902 125.549L55.3984 124.747V203.175C55.3984 203.388 55.4081 203.61 55.4178 203.823C55.4275 203.997 55.4372 204.171 55.4565 204.335L56.2991 203.823L57.1998 203.272L57.9165 202.837L58.9819 202.189V200.14L123.203 161.11L128.724 157.755L128.694 157.736ZM119.891 160.994L61.5097 196.477L58.9916 198.004V130.285L72.5699 136.394L77.9064 138.801L121.072 158.239L123.009 159.109L121.198 160.211L119.891 160.994ZM121.189 160.201L119.891 160.994L119.939 161.013L121.237 160.22L121.189 160.201Z" fill="#575757"/>
<path d="M76.1539 136.007V98.0881L75.0886 99.0934L74.3622 99.77L72.5705 101.462L71.8635 102.128L60.1543 113.148C57.1326 115.622 55.4087 119.276 55.4087 123.181V130.594L57.2004 131.397L57.52 131.542L57.9268 131.725L58.9921 132.209L72.5705 138.317L74.6818 139.265L77.9069 140.715V136.79L76.1539 136.007ZM58.9921 123.181C58.9921 120.329 60.2706 117.661 62.4884 115.864L62.5175 115.844L72.5705 106.381L74.3235 104.729V135.186L72.5705 134.393L61.5102 129.415L58.9921 128.284V123.181Z" fill="#575757"/>
<path d="M224.712 55.7033C222.62 52.8422 219.23 50.9863 215.414 50.9863H84.0858C77.7324 50.9863 72.5703 56.1382 72.5703 62.479V138.327L74.6816 139.274L77.9067 140.724L119.262 159.341L121.199 160.21L121.247 160.23L123.184 161.1L123.233 161.119L128.753 157.765L144.859 147.974C146.37 147.055 148.065 146.591 149.76 146.591C151.455 146.591 153.149 147.055 154.66 147.974L170.776 157.765L176.297 161.119L176.345 161.1L178.282 160.23L178.33 160.21L180.267 159.341L221.622 140.724L224.847 139.274L226.959 138.327V62.4694C226.93 59.9369 226.107 57.5978 224.712 55.7033ZM222.136 58.2744C222.901 59.4923 223.346 60.9325 223.346 62.4694V136.007L221.593 136.8L176.529 157.088L175.599 157.504L174.592 157.958L172.781 156.856L155.6 146.417C155.135 146.137 154.651 145.886 154.157 145.673C152.743 145.074 151.251 144.774 149.75 144.774C147.726 144.774 145.702 145.325 143.891 146.417L126.709 156.856L124.898 157.958L122.961 157.088L78.6622 137.138L77.8971 136.79L76.1441 135.998V62.4694C76.1441 58.1004 79.6985 54.553 84.0761 54.553H215.414C218.242 54.553 220.731 56.0416 222.136 58.2744Z" fill="#575757"/>
<path d="M184.316 85.3775C184.267 85.2519 184.209 85.1359 184.161 85.0102C184.122 84.9329 184.093 84.8459 184.054 84.7686C183.977 84.5849 183.89 84.4013 183.803 84.2273C183.774 84.1693 183.744 84.1016 183.715 84.0436C183.677 83.9663 183.648 83.8987 183.609 83.8213C183.551 83.7053 183.502 83.5893 183.444 83.4734C183.405 83.396 183.376 83.3284 183.338 83.2607C183.154 82.8934 182.97 82.5261 182.766 82.1685C182.728 82.0911 182.679 82.0138 182.64 81.9365C182.592 81.8398 182.534 81.7528 182.485 81.6562C182.437 81.5692 182.389 81.4822 182.33 81.3855C182.195 81.1535 182.059 80.9216 181.924 80.6993C181.885 80.6316 181.837 80.5639 181.798 80.4866C181.585 80.1386 181.362 79.7907 181.139 79.4524C181.062 79.346 180.994 79.23 180.916 79.1237C180.839 79.0174 180.771 78.9014 180.694 78.7951C180.616 78.6888 180.548 78.5824 180.471 78.4761C180.403 78.3794 180.335 78.2828 180.268 78.1861C180.248 78.1571 180.229 78.1281 180.2 78.0991C180.142 78.0218 180.084 77.9445 180.025 77.8672C179.783 77.5385 179.541 77.2099 179.289 76.8909C179.241 76.8329 179.193 76.7653 179.144 76.7073C179.028 76.5623 178.912 76.4173 178.786 76.2723C178.708 76.1756 178.631 76.079 178.553 75.992C178.437 75.8567 178.331 75.7213 178.214 75.5957C178.156 75.528 178.098 75.4604 178.03 75.3927C178.021 75.383 178.011 75.3734 178.011 75.3637C177.933 75.267 177.846 75.1704 177.759 75.0834C177.672 74.9867 177.585 74.8901 177.498 74.7934C177.101 74.3585 176.694 73.9332 176.268 73.5079C172.82 70.0668 168.81 67.37 164.345 65.4852C159.716 63.5327 154.806 62.5371 149.74 62.5371C144.675 62.5371 139.765 63.523 135.135 65.4852C130.671 67.37 126.651 70.0668 123.213 73.5079C119.775 76.9489 117.063 80.9506 115.175 85.4065C113.218 90.0268 112.23 94.9274 112.23 99.9826C112.23 105.038 113.218 109.938 115.175 114.559C117.063 119.015 119.765 123.016 123.213 126.457C123.63 126.873 124.066 127.289 124.501 127.685C124.656 127.82 124.811 127.956 124.966 128.101C125.044 128.168 125.121 128.236 125.208 128.313C125.296 128.391 125.373 128.458 125.46 128.526C125.538 128.594 125.625 128.661 125.702 128.729C125.886 128.884 126.08 129.038 126.264 129.193C126.371 129.28 126.487 129.367 126.603 129.463C126.816 129.637 127.039 129.802 127.262 129.966C127.329 130.014 127.407 130.072 127.475 130.121C127.552 130.179 127.639 130.237 127.717 130.295C127.814 130.362 127.91 130.44 128.007 130.507C128.094 130.565 128.182 130.633 128.269 130.691C128.346 130.739 128.414 130.797 128.492 130.846C128.995 131.194 129.499 131.522 130.012 131.841C130.109 131.899 130.216 131.967 130.312 132.025C130.322 132.035 130.332 132.035 130.332 132.044C130.429 132.102 130.516 132.16 130.613 132.218C130.68 132.257 130.758 132.305 130.826 132.344C130.932 132.402 131.029 132.46 131.136 132.518C131.223 132.566 131.31 132.624 131.407 132.673C131.717 132.847 132.036 133.021 132.356 133.185C132.462 133.243 132.569 133.301 132.675 133.349C132.801 133.417 132.927 133.475 133.053 133.542C133.073 133.552 133.102 133.562 133.131 133.581C133.247 133.639 133.363 133.697 133.479 133.745C133.489 133.745 133.499 133.755 133.508 133.755C133.625 133.813 133.751 133.871 133.867 133.929C134.293 134.132 134.719 134.316 135.145 134.499C139.775 136.452 144.685 137.447 149.75 137.447C154.815 137.447 159.726 136.462 164.355 134.499C168.82 132.615 172.839 129.918 176.277 126.477C179.725 123.036 182.427 119.034 184.316 114.578C186.272 109.958 187.27 105.057 187.27 100.002C187.27 94.8984 186.272 89.9978 184.316 85.3775ZM127.049 125.114C120.153 118.918 115.824 109.938 115.824 99.9536C115.824 81.2502 131.019 66.0845 149.75 66.0845C159.764 66.0845 168.752 70.4148 174.97 77.2872C180.384 83.2897 183.686 91.235 183.686 99.944C183.686 118.647 168.491 133.803 149.75 133.803C141.024 133.813 133.063 130.527 127.049 125.114Z" fill="#575757"/>
<path d="M243.026 197.482L242.377 197.086L242.309 197.047L240.518 195.955L183.696 161.419L180.258 159.331L179.996 159.167L178.447 158.229L178.408 158.2L176.597 157.098L176.558 157.069L174.747 155.967L156.539 144.91C154.496 143.663 152.152 143.005 149.769 143.005C147.387 143.005 145.043 143.663 142.999 144.91L124.792 155.967L122.981 157.069L122.942 157.098L121.683 157.862L121.131 158.2L121.092 158.229L119.281 159.331L117.983 160.124L61.5293 194.428L59.0112 195.955L57.9458 196.603L57.2195 197.038L57.1517 197.076L55.4277 198.12V203.156C55.4277 203.369 55.4374 203.591 55.4471 203.804C55.4568 203.978 55.4665 204.152 55.4858 204.316C55.5827 205.379 55.8055 206.404 56.1444 207.38C56.8321 209.371 57.9943 211.15 59.4954 212.571C59.8441 212.899 60.2121 213.218 60.5995 213.508C62.7883 215.161 65.5001 216.147 68.454 216.147H231.114C234.581 216.147 237.738 214.784 240.072 212.571C241.573 211.15 242.735 209.371 243.423 207.38C243.762 206.404 243.985 205.379 244.082 204.316C244.101 204.142 244.111 203.978 244.12 203.804C244.13 203.591 244.14 203.369 244.14 203.156V198.12L243.026 197.482ZM68.2216 212.58C68.1926 212.58 68.1635 212.58 68.1345 212.58C68.0667 212.58 68.0085 212.58 67.9408 212.571C67.8826 212.571 67.8342 212.561 67.7858 212.561C67.6986 212.551 67.6115 212.551 67.5243 212.542C67.4759 212.542 67.4371 212.532 67.3984 212.532C67.3596 212.532 67.3306 212.522 67.2919 212.522C67.2628 212.522 67.2241 212.513 67.195 212.513C67.0691 212.493 66.9335 212.474 66.8076 212.455C66.7689 212.445 66.7301 212.445 66.6914 212.435C66.6333 212.426 66.5752 212.416 66.5074 212.397C66.4396 212.387 66.3718 212.368 66.304 212.348C66.0134 212.281 65.7326 212.203 65.4517 212.107C65.413 212.097 65.3742 212.087 65.3452 212.068C65.3064 212.058 65.2677 212.039 65.2193 212.029C65.0449 211.971 64.8706 211.894 64.706 211.826C64.6672 211.817 64.6382 211.797 64.6091 211.788C64.5704 211.768 64.5316 211.749 64.4929 211.73C64.2992 211.643 64.1152 211.546 63.9312 211.449C63.8731 211.42 63.8149 211.391 63.7568 211.353C63.7471 211.343 63.7375 211.343 63.7278 211.333C63.6697 211.295 63.6116 211.266 63.5534 211.227C63.4857 211.188 63.4275 211.15 63.3597 211.111C63.292 211.072 63.2338 211.024 63.166 210.985C63.1564 210.985 63.1564 210.976 63.1467 210.976C63.1273 210.966 63.1079 210.947 63.0789 210.927C63.0305 210.898 62.9917 210.869 62.9433 210.831C62.9045 210.811 62.8755 210.782 62.8464 210.753C62.8174 210.734 62.7883 210.715 62.769 210.695C62.7205 210.657 62.6721 210.628 62.6237 210.589C62.4978 210.492 62.3816 210.396 62.2653 210.289C62.2363 210.26 62.1975 210.231 62.1685 210.202C62.1394 210.173 62.1007 210.144 62.0716 210.115C62.0232 210.077 61.9845 210.038 61.9457 209.999C61.9361 209.99 61.936 209.99 61.9264 209.98C61.8683 209.932 61.8198 209.883 61.7714 209.825C61.7133 209.767 61.6649 209.719 61.6164 209.661C61.4809 209.516 61.355 209.381 61.229 209.226C61.1903 209.187 61.1613 209.149 61.1322 209.1C61.1031 209.071 61.0741 209.033 61.0547 209.004C60.9579 208.878 60.8513 208.753 60.7642 208.617C60.7351 208.579 60.7157 208.54 60.6867 208.511C60.6576 208.482 60.6383 208.443 60.6189 208.405C60.5995 208.376 60.5802 208.347 60.5608 208.318C60.5317 208.269 60.493 208.221 60.4639 208.173C60.4446 208.144 60.4252 208.115 60.4155 208.095C60.3768 208.037 60.338 207.97 60.2993 207.912C60.2896 207.902 60.2896 207.892 60.2799 207.883C60.2315 207.805 60.1928 207.728 60.1443 207.651C60.0669 207.506 59.9894 207.361 59.9216 207.216C59.9022 207.177 59.8828 207.129 59.8635 207.09C59.8538 207.061 59.8344 207.032 59.8247 207.003C59.8054 206.964 59.786 206.916 59.7666 206.877C59.7472 206.839 59.7376 206.81 59.7182 206.771C59.6698 206.655 59.6213 206.529 59.5729 206.404C59.5535 206.336 59.5245 206.268 59.5051 206.201C59.4761 206.114 59.447 206.017 59.418 205.93C59.3986 205.862 59.3792 205.804 59.3598 205.746C59.3405 205.669 59.3211 205.601 59.3017 205.524C59.3017 205.524 59.3017 205.524 59.3017 205.514C59.2824 205.437 59.263 205.369 59.2533 205.302C59.2533 205.302 59.2533 205.302 59.2533 205.292C59.2339 205.224 59.2243 205.157 59.2049 205.089C59.1661 204.915 59.1371 204.741 59.108 204.567C59.0983 204.519 59.0984 204.471 59.0887 204.422C59.079 204.345 59.0693 204.277 59.0596 204.2C59.0499 204.161 59.0499 204.123 59.0499 204.094C59.0402 204.036 59.0402 203.987 59.0306 203.929C59.0306 203.891 59.0209 203.852 59.0209 203.823C59.0209 203.775 59.0112 203.717 59.0112 203.668C59.0112 203.61 59.0015 203.552 59.0015 203.485C59.0015 203.456 59.0015 203.427 59.0015 203.398C59.0015 203.33 59.0015 203.253 59.0015 203.185V200.16L123.223 161.129L128.743 157.775L144.849 147.983C146.36 147.065 148.055 146.601 149.75 146.601C151.445 146.601 153.14 147.065 154.65 147.983L170.766 157.775L176.287 161.129L240.508 200.16V203.185C240.508 208.376 236.276 212.6 231.084 212.6H68.4153C68.3572 212.59 68.2894 212.58 68.2216 212.58Z" fill="#575757"/>
<path d="M277.95 214.378C277.95 215.364 277.146 216.166 276.158 216.166H23.3606C22.3727 216.166 21.5688 215.364 21.5688 214.378C21.5688 213.392 22.3727 212.59 23.3606 212.59H276.158C277.146 212.59 277.95 213.382 277.95 214.378Z" fill="#575757"/>
<path d="M15.9615 216.166H7.79709C6.80923 216.166 6.00537 215.364 6.00537 214.378C6.00537 213.392 6.80923 212.59 7.79709 212.59H15.9615C16.9494 212.59 17.7533 213.392 17.7533 214.378C17.7533 215.364 16.9494 216.166 15.9615 216.166Z" fill="#575757"/>
<path d="M56.1446 207.399H47.9802C46.9923 207.399 46.1885 206.597 46.1885 205.611C46.1885 204.625 46.9923 203.823 47.9802 203.823H56.1446C57.1325 203.823 57.9364 204.625 57.9364 205.611C57.9364 206.597 57.1422 207.399 56.1446 207.399Z" fill="#575757"/>
<path d="M40.6002 207.399H32.4358C31.4479 207.399 30.644 206.597 30.644 205.611C30.644 204.625 31.4479 203.823 32.4358 203.823H40.6002C41.5881 203.823 42.3919 204.625 42.3919 205.611C42.3919 206.597 41.5881 207.399 40.6002 207.399Z" fill="#575757"/>
<path d="M251.52 207.399H243.356C242.368 207.399 241.564 206.597 241.564 205.611C241.564 204.625 242.368 203.823 243.356 203.823H251.52C252.508 203.823 253.312 204.625 253.312 205.611C253.312 206.597 252.508 207.399 251.52 207.399Z" fill="#575757"/>
<path d="M267.074 207.399H258.91C257.922 207.399 257.118 206.597 257.118 205.611C257.118 204.625 257.922 203.823 258.91 203.823H267.074C268.062 203.823 268.866 204.625 268.866 205.611C268.866 206.597 268.062 207.399 267.074 207.399Z" fill="#575757"/>
<path d="M291.702 216.166H283.538C282.55 216.166 281.746 215.364 281.746 214.378C281.746 213.392 282.55 212.59 283.538 212.59H291.702C292.69 212.59 293.494 213.392 293.494 214.378C293.494 215.364 292.7 216.166 291.702 216.166Z" fill="#575757"/>
<g clip-path="url(#clip0_687_3750)">
<path d="M167.973 86.9001C167.921 86.5342 167.798 86.1865 167.606 85.8661C167.417 85.553 167.169 85.2781 166.869 85.0524C166.851 85.0396 166.836 85.0269 166.819 85.016L162.699 82.0377C162.278 81.7337 161.791 81.5426 161.276 81.4789C161.145 81.4625 161.01 81.4534 160.875 81.4534C160.423 81.4534 159.969 81.5517 159.563 81.7374C159.142 81.9303 158.771 82.218 158.484 82.5711L156.26 85.3236L136.801 109.412L136.685 109.556L136.66 109.734L135.7 116.745L135.671 116.952L135.635 117.218L135.489 118.281C135.487 118.296 135.485 118.31 135.483 118.325C135.483 118.334 135.481 118.343 135.481 118.35C135.469 118.536 135.51 118.72 135.598 118.884C135.619 118.922 135.643 118.96 135.669 118.996H137.944L138.2 118.896L139.652 118.323L145.405 116.056L145.58 115.987L145.695 115.843L167.38 89.0046C167.627 88.6987 167.802 88.3583 167.904 87.9888C168.002 87.632 168.025 87.2661 167.973 86.9001ZM137.801 118.327L136.724 118.751C136.674 118.771 136.624 118.78 136.576 118.78C136.456 118.78 136.347 118.727 136.276 118.643C136.214 118.57 136.181 118.476 136.195 118.37L136.2 118.328L136.202 118.314L136.335 117.351L136.378 117.041L136.428 116.677L137.366 109.823L156.554 86.0682L163.786 91.2983L164.069 91.5022L164.319 91.6825L145.132 115.437L137.926 118.277L137.801 118.327ZM164.754 91.1472L164.504 90.9652L156.989 85.533L157.043 85.4656L159.05 82.9807C159.502 82.4218 160.185 82.1269 160.875 82.1269C161.362 82.1269 161.851 82.2726 162.268 82.5729L166.361 85.5312L166.388 85.5512C166.746 85.8097 166.999 86.1483 167.146 86.5197C167.411 87.1951 167.315 87.9815 166.819 88.5968L164.754 91.1472Z" fill="#CEC7BF"/>
<path d="M156.01 85.1414L158.288 82.3215C158.794 81.6953 159.561 81.3367 160.396 81.3367C160.981 81.3367 161.537 81.5151 162.005 81.8519L166.124 84.8301C167.286 85.6693 167.507 87.2477 166.62 88.3472L164.342 91.1671L156.01 85.1414Z" fill="#518F9C"/>
<path d="M136.095 118.663C135.883 118.663 135.679 118.576 135.539 118.423C135.398 118.272 135.335 118.072 135.362 117.871L136.545 109.235L156.008 85.1416L164.339 91.1655L144.878 115.261L136.379 118.609C136.289 118.645 136.193 118.663 136.095 118.663Z" fill="#E5DFD8"/>
<path d="M160.216 92.4124L160.179 92.387L159.586 91.9701L159.017 91.5696L158.863 91.7644L158.592 92.1066L144.612 109.758L144.456 109.954L144.243 110.224L144.183 110.298L144.756 110.702L145.351 111.119L145.92 111.52L146.346 110.983L160.325 93.3318L160.754 92.7911L160.216 92.4124ZM145.522 110.402L145.182 110.162L145.241 110.087L159.161 92.5108L159.217 92.549L159.504 92.7492L159.756 92.9276L145.774 110.579L145.522 110.402Z" fill="#CEC7BF"/>
<path d="M167.494 86.4468C167.442 86.0809 167.319 85.7332 167.126 85.4128C167.05 85.2853 166.965 85.1652 166.869 85.0523C166.715 84.8703 166.538 84.7064 166.34 84.5626L162.22 81.5844C161.691 81.2021 161.06 81 160.396 81C159.944 81 159.49 81.0983 159.084 81.284C158.663 81.477 158.29 81.7646 158.005 82.1178L136.322 108.958L136.206 109.102L136.181 109.281L135.19 116.499L135.008 117.829C134.985 117.999 135.006 118.17 135.067 118.326C135.113 118.443 135.181 118.55 135.269 118.647C135.362 118.747 135.473 118.827 135.596 118.887C135.748 118.962 135.92 119 136.093 119C136.237 119 136.379 118.973 136.514 118.92L137.717 118.447L138.021 118.326L144.924 115.607L145.099 115.538L145.214 115.394L166.898 88.5512C167.144 88.2454 167.321 87.905 167.421 87.5354C167.523 87.1786 167.546 86.8127 167.494 86.4468ZM135.716 117.915L135.796 117.329L135.885 116.675L135.898 116.584L136.887 109.366L156.075 85.6112L163.84 91.2273L163.786 91.2946L145.043 114.5L144.666 114.966L144.653 114.984L137.447 117.824L136.245 118.297C136.231 118.303 136.218 118.308 136.202 118.312C136.166 118.321 136.131 118.326 136.095 118.326C135.875 118.326 135.683 118.143 135.716 117.915ZM157.043 85.4656L156.51 85.0796L158.572 82.5274C159.025 81.9685 159.708 81.6736 160.398 81.6736C160.885 81.6736 161.374 81.8192 161.791 82.1196L165.911 85.0978C166.086 85.2253 166.238 85.3709 166.363 85.5311C166.955 86.2884 166.976 87.3552 166.341 88.1416L164.281 90.6939L157.043 85.4656Z" fill="#575757"/>
<path d="M157.18 90.1221L157.147 90.0985L156.554 89.6798L155.985 89.2756L155.829 89.4722L155.558 89.8145L141.58 107.466L141.424 107.662L141.211 107.932L141.153 108.004L141.722 108.409L142.315 108.827L142.884 109.23L143.312 108.691L157.291 91.0396L157.718 90.5008L157.18 90.1221ZM142.488 108.11L142.148 107.87L142.205 107.797L156.127 90.2186L156.183 90.2569L156.468 90.4589L156.72 90.6373L142.74 108.288L142.488 108.11Z" fill="#CEC7BF"/>
<path d="M155.578 89.2948L141.171 107.485L142.332 108.308L156.739 90.1179L155.578 89.2948Z" fill="#B5B5B5"/>
<path d="M156.668 89.6452L156.075 89.2265L155.506 88.8242L155.079 89.3631L141.099 107.014L140.672 107.553L141.209 107.933L141.241 107.957L141.834 108.376L142.403 108.78L142.831 108.241L156.81 90.5901L157.18 90.124L157.237 90.0512L156.668 89.6452ZM142.207 107.797L141.67 107.416L155.65 89.7654L156.243 90.1841L156.185 90.2569L142.263 107.835L142.207 107.797Z" fill="#575757"/>
<path d="M138.992 116.168C138.915 116.168 138.838 116.144 138.777 116.098L137.301 115.03C137.199 114.957 137.147 114.837 137.164 114.717L137.861 109.849C137.871 109.781 137.901 109.718 137.949 109.669C138.24 109.341 138.667 109.153 139.123 109.153C139.462 109.153 139.783 109.255 140.05 109.45C140.374 109.685 140.581 110.025 140.637 110.409C140.643 110.453 140.647 110.497 140.649 110.539C140.758 110.515 140.874 110.502 140.989 110.502C141.328 110.502 141.649 110.604 141.917 110.799C142.24 111.034 142.448 111.374 142.503 111.758C142.509 111.802 142.513 111.846 142.515 111.888C142.625 111.864 142.74 111.851 142.856 111.851C143.194 111.851 143.514 111.953 143.783 112.148C144.106 112.383 144.314 112.723 144.37 113.107C144.42 113.464 144.331 113.821 144.118 114.116C144.079 114.178 144.02 114.225 143.946 114.252L139.133 116.138C139.085 116.158 139.038 116.168 138.992 116.168Z" fill="#518F9C"/>
<path d="M145.199 113.517C145.131 113.043 144.876 112.623 144.475 112.335C144.452 112.319 144.427 112.303 144.404 112.286C144.125 112.104 143.806 111.997 143.467 111.975C143.423 111.971 143.379 111.971 143.333 111.971C143.319 111.971 143.306 111.971 143.292 111.971C143.286 111.951 143.281 111.931 143.275 111.909C143.234 111.778 143.181 111.651 143.109 111.534C142.986 111.323 142.817 111.137 142.609 110.986C142.586 110.97 142.561 110.954 142.538 110.937C142.259 110.753 141.94 110.648 141.601 110.626C141.557 110.622 141.512 110.622 141.466 110.622C141.453 110.622 141.439 110.622 141.426 110.622C141.42 110.602 141.414 110.582 141.409 110.56C141.368 110.429 141.314 110.302 141.243 110.184C141.12 109.972 140.951 109.787 140.743 109.636C140.72 109.619 140.695 109.603 140.67 109.586C140.391 109.404 140.071 109.297 139.733 109.275C139.689 109.271 139.642 109.271 139.598 109.271C139.044 109.271 138.523 109.497 138.165 109.892C138.067 109.994 138.001 110.123 137.982 110.265L137.347 114.706L137.299 115.035L137.286 115.128C137.268 115.252 137.287 115.377 137.339 115.488C137.387 115.592 137.463 115.683 137.559 115.754L139.036 116.821C139.163 116.912 139.315 116.959 139.469 116.959C139.562 116.959 139.654 116.943 139.74 116.908L140.233 116.715L144.552 115.022C144.591 115.008 144.627 114.99 144.664 114.969C144.758 114.915 144.837 114.838 144.893 114.751C144.949 114.671 144.999 114.589 145.039 114.503C145.191 114.196 145.245 113.855 145.199 113.517ZM144.493 113.606C144.531 113.875 144.466 114.158 144.289 114.394H144.287L139.964 116.089L139.471 116.282L139.223 116.104L137.994 115.215L138.007 115.119L138.053 114.793L138.688 110.347V110.346C138.919 110.082 139.256 109.943 139.596 109.943C139.785 109.943 139.975 109.987 140.148 110.074C140.202 110.102 140.256 110.134 140.306 110.171C140.549 110.346 140.699 110.597 140.749 110.863C140.751 110.877 140.754 110.892 140.756 110.906C140.795 111.176 140.729 111.458 140.552 111.694H140.554C140.785 111.431 141.122 111.292 141.462 111.292C141.651 111.292 141.841 111.336 142.015 111.423C142.069 111.451 142.122 111.483 142.172 111.52C142.415 111.694 142.565 111.946 142.615 112.212C142.617 112.226 142.621 112.241 142.623 112.257C142.661 112.526 142.596 112.809 142.419 113.045L142.421 113.047C142.651 112.783 142.988 112.645 143.329 112.645C143.517 112.645 143.708 112.687 143.881 112.776C143.935 112.803 143.989 112.836 144.039 112.872C144.185 112.978 144.298 113.111 144.375 113.258C144.437 113.366 144.475 113.486 144.493 113.606Z" fill="#CEC7BF"/>
<path d="M144.72 113.063C144.68 112.779 144.57 112.514 144.405 112.284C144.293 112.131 144.156 111.997 143.997 111.88C143.735 111.691 143.433 111.573 143.11 111.531C143.025 111.52 142.939 111.514 142.852 111.514C142.838 111.514 142.825 111.514 142.812 111.514C142.756 111.305 142.663 111.108 142.535 110.934C142.423 110.781 142.286 110.644 142.127 110.529C141.865 110.34 141.563 110.222 141.24 110.18C141.155 110.169 141.068 110.164 140.982 110.164C140.968 110.164 140.955 110.164 140.941 110.164C140.886 109.954 140.793 109.758 140.664 109.583C140.553 109.43 140.416 109.295 140.258 109.179C139.928 108.94 139.533 108.813 139.116 108.813C138.561 108.813 138.04 109.038 137.682 109.434C137.584 109.535 137.519 109.665 137.499 109.807L136.865 114.247L136.805 114.669C136.77 114.909 136.874 115.148 137.078 115.295L137.336 115.483L138.554 116.364C138.681 116.455 138.833 116.502 138.987 116.502C139.079 116.502 139.171 116.486 139.258 116.451L139.751 116.258L144.07 114.565C144.214 114.511 144.331 114.414 144.41 114.294C144.674 113.934 144.782 113.499 144.72 113.063ZM138.009 115.119L137.517 114.762L137.576 114.34L138.211 109.894V109.892C138.442 109.628 138.779 109.49 139.119 109.49C139.368 109.49 139.62 109.565 139.831 109.718C139.968 109.816 140.076 109.94 140.153 110.074C140.22 110.193 140.262 110.322 140.282 110.453C140.32 110.722 140.255 111.005 140.078 111.241L140.08 111.243C140.257 111.039 140.497 110.912 140.753 110.863C140.83 110.848 140.909 110.841 140.988 110.841C141.236 110.841 141.488 110.915 141.7 111.068C141.836 111.167 141.944 111.289 142.021 111.425C142.088 111.543 142.13 111.673 142.15 111.804C142.188 112.073 142.123 112.355 141.946 112.592L141.948 112.594C142.125 112.39 142.365 112.262 142.621 112.213C142.698 112.199 142.777 112.191 142.856 112.191C143.104 112.191 143.354 112.266 143.568 112.419C143.704 112.517 143.812 112.641 143.889 112.776C143.956 112.894 143.999 113.023 144.018 113.155C144.056 113.424 143.991 113.706 143.814 113.943H143.812L139.489 115.638L138.996 115.831L138.009 115.119Z" fill="#575757"/>
<path d="M144.204 109.778L158.609 91.5876L159.775 92.4068L145.368 110.597L144.204 109.778Z" fill="#B5B5B5"/>
<path d="M159.7 91.9336L159.107 91.5167L158.538 91.1162L158.113 91.6532L144.133 109.304L143.704 109.845L144.243 110.224L144.279 110.249L144.874 110.666L145.443 111.066L145.869 110.529L159.848 92.8784L160.218 92.4124L160.277 92.3377L159.7 91.9336ZM145.241 110.087L144.703 109.708L158.682 92.0574L159.277 92.4743L159.217 92.5489L145.295 110.127L145.241 110.087Z" fill="#575757"/>
<path d="M146.509 115.592H144.889C144.693 115.592 144.533 115.441 144.533 115.255C144.533 115.07 144.693 114.918 144.889 114.918H146.511C146.707 114.918 146.867 115.07 146.867 115.255C146.867 115.441 146.707 115.592 146.509 115.592Z" fill="#575757"/>
<path d="M161.44 115L160.336 116.106C159.904 116.539 159.904 117.242 160.336 117.675C160.768 118.108 161.47 118.108 161.902 117.675L163.006 116.569L164.11 117.675C164.542 118.108 165.244 118.108 165.676 117.675C166.108 117.242 166.108 116.539 165.676 116.106L164.572 115L165.676 113.894C166.108 113.461 166.108 112.758 165.676 112.325C165.46 112.108 165.178 112 164.89 112C164.608 112 164.32 112.108 164.104 112.325L163 113.431L161.896 112.325C161.68 112.108 161.398 112 161.11 112C160.828 112 160.54 112.108 160.324 112.325C159.892 112.758 159.892 113.461 160.324 113.894L161.44 115Z" fill="#2B5862"/>
</g>
<path d="M140.5 86C141.878 86 143 87.1225 143 88.5C143 89.8776 141.878 91 140.5 91C139.122 91 138 89.8776 138 88.5C137.995 87.1225 139.118 86 140.5 86ZM140.5 89.2931C140.936 89.2931 141.289 88.9406 141.289 88.5046C141.289 88.0686 140.936 87.7161 140.5 87.7161C140.064 87.7161 139.712 88.0686 139.712 88.5046C139.712 88.9406 140.064 89.2931 140.5 89.2931Z" fill="#2B5862"/>
<defs>
<clipPath id="clip0_687_3750">
<rect width="33" height="38" fill="white" transform="translate(135 81)"/>
</clipPath>
</defs>
</svg>
