<svg width="321" height="321" viewBox="0 0 321 321" fill="none" xmlns="http://www.w3.org/2000/svg">
<g opacity="0.5">
<path d="M25.6228 141.235C29.8627 145.475 35.612 147.858 41.6073 147.858C46.1101 147.858 50.4772 146.509 54.1659 144.05L38.0712 160.145C33.8312 164.385 31.4484 170.134 31.4484 176.129C31.4484 182.125 33.8312 187.874 38.0712 192.114C42.3111 196.354 48.0604 198.737 54.0557 198.737C58.5585 198.737 62.9256 197.388 66.6143 194.929L58.1684 203.375C53.9285 207.615 51.5456 213.364 51.5456 219.36C51.5456 225.355 53.9285 231.104 58.1684 235.344C62.4083 239.584 68.1577 241.967 74.1529 241.967C78.6557 241.967 83.0228 240.619 86.7116 238.159L84.651 240.22C80.411 244.46 78.0282 250.209 78.0282 256.205C78.0282 262.2 80.411 267.949 84.651 272.189C88.8909 276.429 94.6402 278.812 100.635 278.812C106.631 278.812 112.38 276.429 116.62 272.189L138.065 250.777C135.598 254.466 134.258 258.833 134.258 263.336C134.258 269.331 136.641 275.081 140.881 279.321C145.121 283.561 150.87 285.943 156.865 285.943C162.861 285.943 168.61 283.561 172.85 279.321L205.404 246.767C202.936 250.455 201.596 254.822 201.596 259.325C201.596 265.32 203.979 271.07 208.219 275.31C212.459 279.55 218.209 281.932 224.204 281.932C230.199 281.932 235.948 279.55 240.188 275.31L290.872 224.626C295.112 220.386 297.495 214.636 297.495 208.641C297.495 202.646 295.112 196.897 290.872 192.657C286.632 188.417 280.883 186.034 274.888 186.034C270.385 186.034 266.018 187.382 262.329 189.841L272.937 179.233C277.177 174.993 279.56 169.244 279.56 163.249C279.56 157.253 277.177 151.504 272.937 147.264C268.698 143.024 262.948 140.641 256.953 140.641C252.45 140.641 248.083 141.99 244.394 144.449L265.823 123.02C270.063 118.78 272.446 113.031 272.446 107.036C272.446 101.04 270.063 95.2911 265.823 91.0511C261.583 86.8112 255.834 84.4284 249.838 84.4284C245.336 84.4284 240.968 85.7767 237.28 88.2358L250.924 74.5918C255.164 70.3518 257.547 64.6025 257.547 58.6073C257.547 52.612 255.164 46.8627 250.924 42.6228C246.684 38.3828 240.934 36 234.939 36C228.944 36 223.195 38.3828 218.955 42.6228L188.563 73.0145C191.031 69.3258 192.37 64.9587 192.37 60.4559C192.37 54.4606 189.988 48.7113 185.748 44.4714C181.508 40.2314 175.758 37.8486 169.763 37.8486C163.742 37.8486 157.993 40.223 153.753 44.4629L111.091 87.125C113.559 83.4362 114.899 79.0691 114.899 74.5663C114.899 68.5711 112.516 62.8217 108.276 58.5818C104.036 54.3419 98.2865 51.9591 92.2913 51.9591C86.296 51.9591 80.5467 54.3419 76.3068 58.5818L25.6228 109.257C21.3828 113.497 19 119.247 19 125.242C19 131.237 21.3828 136.995 25.6228 141.235Z" fill="#E5DFD8"/>
<path d="M296.834 237.608L295.273 239.169C294.663 239.779 294.663 240.771 295.273 241.382C295.884 241.993 296.876 241.993 297.486 241.382L299.047 239.822L300.607 241.382C301.218 241.993 302.21 241.993 302.82 241.382C303.431 240.771 303.431 239.779 302.82 239.169L301.26 237.608L302.82 236.048C303.431 235.438 303.431 234.445 302.82 233.835C302.515 233.53 302.116 233.377 301.709 233.377C301.302 233.377 300.904 233.53 300.599 233.835L299.038 235.395L297.478 233.835C297.173 233.53 296.774 233.377 296.367 233.377C295.96 233.377 295.562 233.53 295.256 233.835C294.646 234.445 294.646 235.438 295.256 236.048L296.834 237.608Z" fill="#E5DFD8"/>
<path d="M73.2798 271.316L71.7195 272.876C71.1089 273.487 71.1089 274.479 71.7195 275.089C72.33 275.7 73.3222 275.7 73.9327 275.089L75.493 273.529L77.0533 275.089C77.6639 275.7 78.656 275.7 79.2666 275.089C79.8771 274.479 79.8771 273.487 79.2666 272.876L77.7063 271.316L79.2666 269.755C79.8771 269.145 79.8771 268.153 79.2666 267.542C78.9613 267.237 78.5627 267.084 78.1557 267.084C77.7487 267.084 77.3501 267.237 77.0448 267.542L75.4845 269.102L73.9243 267.542C73.619 267.237 73.2204 267.084 72.8134 267.084C72.4148 267.084 72.0078 267.237 71.7025 267.542C71.092 268.153 71.092 269.145 71.7025 269.755L73.2798 271.316Z" fill="#E5DFD8"/>
<path d="M33.2551 132.645L31.6948 134.205C31.0843 134.816 31.0843 135.808 31.6948 136.418C32.3054 137.029 33.2975 137.029 33.9081 136.418L35.4684 134.858L37.0287 136.418C37.6392 137.029 38.6314 137.029 39.2419 136.418C39.8525 135.808 39.8525 134.816 39.2419 134.205L37.6816 132.645L39.2419 131.085C39.8525 130.474 39.8525 129.482 39.2419 128.871C38.9366 128.566 38.5381 128.413 38.131 128.413C37.7325 128.413 37.3255 128.566 37.0202 128.871L35.4599 130.432L33.8996 128.871C33.5943 128.566 33.1958 128.413 32.7887 128.413C32.3902 128.413 31.9832 128.566 31.6779 128.871C31.0673 129.482 31.0673 130.474 31.6779 131.085L33.2551 132.645Z" fill="#E5DFD8"/>
<path d="M221.549 52.2388L219.989 53.7991C219.378 54.4096 219.378 55.4018 219.989 56.0123C220.6 56.6228 221.592 56.6228 222.202 56.0123L223.763 54.452L225.323 56.0123C225.933 56.6228 226.926 56.6228 227.536 56.0123C228.147 55.4018 228.147 54.4096 227.536 53.7991L225.976 52.2388L227.536 50.6785C228.147 50.0679 228.147 49.0758 227.536 48.4652C227.231 48.16 226.832 48.0073 226.425 48.0073C226.027 48.0073 225.62 48.16 225.314 48.4652L223.754 50.0255L222.194 48.4652C221.889 48.16 221.49 48.0073 221.083 48.0073C220.684 48.0073 220.277 48.16 219.972 48.4652C219.362 49.0758 219.362 50.0679 219.972 50.6785L221.549 52.2388Z" fill="#E5DFD8"/>
<path d="M192.913 273.495C195.431 273.495 197.483 275.547 197.483 278.066C197.483 280.584 195.431 282.636 192.913 282.636C190.394 282.636 188.342 280.584 188.342 278.066C188.334 275.547 190.386 273.495 192.913 273.495ZM192.913 279.516C193.71 279.516 194.354 278.871 194.354 278.074C194.354 277.277 193.71 276.633 192.913 276.633C192.116 276.633 191.471 277.277 191.471 278.074C191.471 278.871 192.116 279.516 192.913 279.516Z" fill="#E5DFD8"/>
<path d="M279.12 127.752C281.638 127.752 283.69 129.804 283.69 132.323C283.69 134.841 281.638 136.893 279.12 136.893C276.601 136.893 274.549 134.841 274.549 132.323C274.541 129.804 276.593 127.752 279.12 127.752ZM279.12 133.764C279.917 133.764 280.561 133.12 280.561 132.323C280.561 131.526 279.917 130.881 279.12 130.881C278.323 130.881 277.678 131.526 277.678 132.323C277.67 133.12 278.323 133.764 279.12 133.764Z" fill="#E5DFD8"/>
<path d="M87.6358 54.342C90.1543 54.342 92.2065 56.3941 92.2065 58.9126C92.2065 61.4311 90.1543 63.4833 87.6358 63.4833C85.1173 63.4833 83.0652 61.4311 83.0652 58.9126C83.0652 56.3941 85.1173 54.342 87.6358 54.342ZM87.6358 60.3542C88.4329 60.3542 89.0774 59.7097 89.0774 58.9126C89.0774 58.1155 88.4329 57.471 87.6358 57.471C86.8387 57.471 86.1943 58.1155 86.1943 58.9126C86.1943 59.7097 86.8387 60.3542 87.6358 60.3542Z" fill="#E5DFD8"/>
<path d="M34.349 197.151C36.8675 197.151 38.9196 199.203 38.9196 201.722C38.9196 204.24 36.8675 206.292 34.349 206.292C31.8304 206.292 29.7783 204.24 29.7783 201.722C29.7783 199.203 31.8304 197.151 34.349 197.151ZM34.349 203.172C35.1461 203.172 35.7905 202.527 35.7905 201.73C35.7905 200.933 35.1461 200.288 34.349 200.288C33.5519 200.288 32.9074 200.933 32.9074 201.73C32.9074 202.519 33.5519 203.172 34.349 203.172Z" fill="#E5DFD8"/>
<path d="M25.6228 141.235C29.8627 145.475 35.612 147.858 41.6073 147.858C46.1101 147.858 50.4772 146.509 54.1659 144.05L38.0712 160.145C33.8312 164.385 31.4484 170.134 31.4484 176.129C31.4484 182.125 33.8312 187.874 38.0712 192.114C42.3111 196.354 48.0604 198.737 54.0557 198.737C58.5585 198.737 62.9256 197.388 66.6143 194.929L58.1684 203.375C53.9285 207.615 51.5456 213.364 51.5456 219.36C51.5456 225.355 53.9285 231.104 58.1684 235.344C62.4083 239.584 68.1577 241.967 74.1529 241.967C78.6557 241.967 83.0228 240.619 86.7116 238.159L84.651 240.22C80.411 244.46 78.0282 250.209 78.0282 256.205C78.0282 262.2 80.411 267.949 84.651 272.189C88.8909 276.429 94.6402 278.812 100.635 278.812C106.631 278.812 112.38 276.429 116.62 272.189L138.065 250.777C135.598 254.466 134.258 258.833 134.258 263.336C134.258 269.331 136.641 275.081 140.881 279.321C145.121 283.561 150.87 285.943 156.865 285.943C162.861 285.943 168.61 283.561 172.85 279.321L205.404 246.767C202.936 250.455 201.596 254.822 201.596 259.325C201.596 265.32 203.979 271.07 208.219 275.31C212.459 279.55 218.209 281.932 224.204 281.932C230.199 281.932 235.948 279.55 240.188 275.31L290.872 224.626C295.112 220.386 297.495 214.636 297.495 208.641C297.495 202.646 295.112 196.897 290.872 192.657C286.632 188.417 280.883 186.034 274.888 186.034C270.385 186.034 266.018 187.382 262.329 189.841L272.937 179.233C277.177 174.993 279.56 169.244 279.56 163.249C279.56 157.253 277.177 151.504 272.937 147.264C268.698 143.024 262.948 140.641 256.953 140.641C252.45 140.641 248.083 141.99 244.394 144.449L265.823 123.02C270.063 118.78 272.446 113.031 272.446 107.036C272.446 101.04 270.063 95.2911 265.823 91.0511C261.583 86.8112 255.834 84.4284 249.838 84.4284C245.336 84.4284 240.968 85.7767 237.28 88.2358L250.924 74.5918C255.164 70.3518 257.547 64.6025 257.547 58.6073C257.547 52.612 255.164 46.8627 250.924 42.6228C246.684 38.3828 240.934 36 234.939 36C228.944 36 223.195 38.3828 218.955 42.6228L188.563 73.0145C191.031 69.3258 192.37 64.9587 192.37 60.4559C192.37 54.4606 189.988 48.7113 185.748 44.4714C181.508 40.2314 175.758 37.8486 169.763 37.8486C163.742 37.8486 157.993 40.223 153.753 44.4629L111.091 87.125C113.559 83.4362 114.899 79.0691 114.899 74.5663C114.899 68.5711 112.516 62.8217 108.276 58.5818C104.036 54.3419 98.2865 51.9591 92.2913 51.9591C86.296 51.9591 80.5467 54.3419 76.3068 58.5818L25.6228 109.257C21.3828 113.497 19 119.247 19 125.242C19 131.237 21.3828 136.995 25.6228 141.235Z" fill="#1C3D45"/>
<path d="M296.834 237.608L295.273 239.169C294.663 239.779 294.663 240.771 295.273 241.382C295.884 241.993 296.876 241.993 297.486 241.382L299.047 239.822L300.607 241.382C301.218 241.993 302.21 241.993 302.82 241.382C303.431 240.771 303.431 239.779 302.82 239.169L301.26 237.608L302.82 236.048C303.431 235.438 303.431 234.445 302.82 233.835C302.515 233.53 302.116 233.377 301.709 233.377C301.302 233.377 300.904 233.53 300.599 233.835L299.038 235.395L297.478 233.835C297.173 233.53 296.774 233.377 296.367 233.377C295.96 233.377 295.562 233.53 295.256 233.835C294.646 234.445 294.646 235.438 295.256 236.048L296.834 237.608Z" fill="#3D737F"/>
<path d="M73.2798 271.316L71.7195 272.876C71.1089 273.487 71.1089 274.479 71.7195 275.089C72.33 275.7 73.3222 275.7 73.9327 275.089L75.493 273.529L77.0533 275.089C77.6639 275.7 78.656 275.7 79.2666 275.089C79.8771 274.479 79.8771 273.487 79.2666 272.876L77.7063 271.316L79.2666 269.755C79.8771 269.145 79.8771 268.153 79.2666 267.542C78.9613 267.237 78.5627 267.084 78.1557 267.084C77.7487 267.084 77.3501 267.237 77.0448 267.542L75.4845 269.102L73.9243 267.542C73.619 267.237 73.2204 267.084 72.8134 267.084C72.4148 267.084 72.0078 267.237 71.7025 267.542C71.092 268.153 71.092 269.145 71.7025 269.755L73.2798 271.316Z" fill="#3D737F"/>
<path d="M33.2551 132.645L31.6948 134.205C31.0843 134.816 31.0843 135.808 31.6948 136.418C32.3054 137.029 33.2975 137.029 33.9081 136.418L35.4684 134.858L37.0287 136.418C37.6392 137.029 38.6314 137.029 39.2419 136.418C39.8525 135.808 39.8525 134.816 39.2419 134.205L37.6816 132.645L39.2419 131.085C39.8525 130.474 39.8525 129.482 39.2419 128.871C38.9366 128.566 38.5381 128.413 38.131 128.413C37.7325 128.413 37.3255 128.566 37.0202 128.871L35.4599 130.432L33.8996 128.871C33.5943 128.566 33.1958 128.413 32.7887 128.413C32.3902 128.413 31.9832 128.566 31.6779 128.871C31.0673 129.482 31.0673 130.474 31.6779 131.085L33.2551 132.645Z" fill="#3D737F"/>
<path d="M221.549 52.2388L219.989 53.7991C219.378 54.4096 219.378 55.4018 219.989 56.0123C220.6 56.6228 221.592 56.6228 222.202 56.0123L223.763 54.452L225.323 56.0123C225.933 56.6228 226.926 56.6228 227.536 56.0123C228.147 55.4018 228.147 54.4096 227.536 53.7991L225.976 52.2388L227.536 50.6785C228.147 50.0679 228.147 49.0758 227.536 48.4652C227.231 48.16 226.832 48.0073 226.425 48.0073C226.027 48.0073 225.62 48.16 225.314 48.4652L223.754 50.0255L222.194 48.4652C221.889 48.16 221.49 48.0073 221.083 48.0073C220.684 48.0073 220.277 48.16 219.972 48.4652C219.362 49.0758 219.362 50.0679 219.972 50.6785L221.549 52.2388Z" fill="#3D737F"/>
<path d="M192.913 273.495C195.431 273.495 197.483 275.547 197.483 278.066C197.483 280.584 195.431 282.636 192.913 282.636C190.394 282.636 188.342 280.584 188.342 278.066C188.334 275.547 190.386 273.495 192.913 273.495ZM192.913 279.516C193.71 279.516 194.354 278.871 194.354 278.074C194.354 277.277 193.71 276.633 192.913 276.633C192.116 276.633 191.471 277.277 191.471 278.074C191.471 278.871 192.116 279.516 192.913 279.516Z" fill="#3D737F"/>
<path d="M279.12 127.752C281.638 127.752 283.69 129.804 283.69 132.323C283.69 134.841 281.638 136.893 279.12 136.893C276.601 136.893 274.549 134.841 274.549 132.323C274.541 129.804 276.593 127.752 279.12 127.752ZM279.12 133.764C279.917 133.764 280.561 133.12 280.561 132.323C280.561 131.526 279.917 130.881 279.12 130.881C278.323 130.881 277.678 131.526 277.678 132.323C277.67 133.12 278.323 133.764 279.12 133.764Z" fill="#3D737F"/>
<path d="M87.6358 54.342C90.1543 54.342 92.2065 56.3941 92.2065 58.9126C92.2065 61.4311 90.1543 63.4833 87.6358 63.4833C85.1173 63.4833 83.0652 61.4311 83.0652 58.9126C83.0652 56.3941 85.1173 54.342 87.6358 54.342ZM87.6358 60.3542C88.4329 60.3542 89.0774 59.7097 89.0774 58.9126C89.0774 58.1155 88.4329 57.471 87.6358 57.471C86.8387 57.471 86.1943 58.1155 86.1943 58.9126C86.1943 59.7097 86.8387 60.3542 87.6358 60.3542Z" fill="#3D737F"/>
<path d="M34.349 197.151C36.8675 197.151 38.9196 199.203 38.9196 201.722C38.9196 204.24 36.8675 206.292 34.349 206.292C31.8304 206.292 29.7783 204.24 29.7783 201.722C29.7783 199.203 31.8304 197.151 34.349 197.151ZM34.349 203.172C35.1461 203.172 35.7905 202.527 35.7905 201.73C35.7905 200.933 35.1461 200.288 34.349 200.288C33.5519 200.288 32.9074 200.933 32.9074 201.73C32.9074 202.519 33.5519 203.172 34.349 203.172Z" fill="#3D737F"/>
</g>
<path d="M123.337 236.174C123.295 236.082 123.244 235.997 123.194 235.913C122.748 235.172 122.082 234.599 121.265 234.254C121.198 234.229 121.131 234.204 121.063 234.178L119.758 233.673L120.709 233.302L121.063 233.168C121.973 232.831 122.714 232.233 123.194 231.424C123.623 230.709 123.817 229.858 123.775 228.957C123.775 228.94 123.775 228.915 123.775 228.898C123.741 228.325 123.598 227.719 123.337 227.037C123.084 226.371 122.714 225.63 122.217 224.788L122.209 224.771C121.198 223.087 120.356 222.059 119.471 221.444C119.37 221.377 119.269 221.31 119.16 221.251C118.486 220.855 117.753 220.644 117.012 220.644C116.861 220.644 116.717 220.653 116.566 220.67C115.774 220.762 115.025 221.082 114.385 221.621L113.307 222.48L113.509 221.183C113.568 220.897 113.601 220.611 113.601 220.333C113.601 219.785 113.492 219.246 113.273 218.758C112.894 217.899 112.212 217.158 111.26 216.661C111.201 216.627 111.142 216.602 111.083 216.568C110.401 216.248 109.576 216.038 108.523 215.945C108.018 215.894 107.462 215.878 106.839 215.878C104.817 215.878 103.453 216.122 102.417 216.661C100.648 217.587 99.781 219.347 100.168 221.183L100.371 222.48L100.067 222.236L99.3178 221.638C98.5683 220.99 97.6419 220.636 96.6733 220.636C96.5049 220.636 96.328 220.644 96.1596 220.67C95.528 220.745 94.9132 220.981 94.3152 221.352C93.3383 221.967 92.454 223.019 91.4433 224.763C90.4748 226.43 89.9948 227.685 89.919 228.797C89.9105 228.847 89.9105 228.898 89.9105 228.948C89.8853 229.647 89.9948 230.304 90.239 230.885C90.3822 231.222 90.559 231.542 90.778 231.82C91.1401 232.292 91.6118 232.679 92.1676 232.957C92.3024 233.025 92.4455 233.092 92.5887 233.142L93.9109 233.656L92.5887 234.17C90.8875 234.81 89.8684 236.368 89.9105 238.255C89.9105 238.288 89.9105 238.33 89.9105 238.364C89.9611 239.526 90.4327 240.815 91.4602 242.541L91.4686 242.55V242.558C91.7549 243.03 92.0244 243.459 92.2939 243.83C92.9845 244.815 93.633 245.472 94.3068 245.91C94.4247 245.986 94.551 246.062 94.6773 246.129C95.3258 246.483 96.008 246.66 96.707 246.66C97.2292 246.66 97.7261 246.559 98.1977 246.365C98.3661 246.297 98.5262 246.222 98.6862 246.129C98.8967 246.011 99.0988 245.868 99.2925 245.708L99.5452 245.506L100.379 244.84L100.177 246.129V246.146C100.152 246.255 100.135 246.373 100.118 246.483C100.025 247.215 100.126 247.923 100.404 248.563C100.505 248.799 100.632 249.026 100.775 249.245H112.919C113.526 248.361 113.753 247.274 113.526 246.146V246.129L113.323 244.84L114.435 245.725C114.62 245.876 114.823 246.011 115.025 246.129C115.639 246.483 116.322 246.66 117.029 246.66C117.737 246.66 118.427 246.483 119.084 246.129C119.185 246.079 119.278 246.02 119.379 245.961C120.347 245.354 121.232 244.31 122.242 242.558C123.244 240.832 123.724 239.56 123.792 238.431C123.8 238.339 123.8 238.238 123.8 238.145C123.783 237.438 123.632 236.764 123.337 236.174ZM103.857 247.923C103.706 247.847 103.579 247.763 103.478 247.662C103.217 247.418 103.133 247.106 103.226 246.727L103.318 246.137L103.327 246.087L104.716 237.387L101.802 239.712L99.9916 241.16L97.305 243.308C97.1197 243.468 96.9176 243.552 96.6986 243.552C96.4796 243.552 96.2522 243.468 95.9996 243.308C95.8143 243.19 95.6037 242.996 95.3848 242.743C95.0816 242.398 94.7447 241.935 94.3741 241.345C94.2983 241.219 94.2226 241.093 94.1383 240.958C93.4225 239.745 93.0435 238.836 93.0182 238.238C92.993 237.64 93.2203 237.261 93.692 237.084L102.552 233.656L98.6188 232.132L93.692 230.228C93.2203 230.052 93.0014 229.673 93.0182 229.075C93.0266 228.948 93.0435 228.805 93.0856 228.645C93.2204 228.072 93.5741 227.289 94.1383 226.321C94.8542 225.083 95.469 224.299 95.9827 223.979C96.227 223.828 96.4544 223.744 96.6733 223.744C96.9007 223.744 97.1113 223.836 97.305 224.013L104.708 229.934L103.217 220.594C103.091 220.097 103.301 219.71 103.849 219.423C104.396 219.137 105.39 218.994 106.83 218.994C107.319 218.994 107.757 219.011 108.144 219.044C108.801 219.103 109.315 219.204 109.668 219.356C109.719 219.373 109.761 219.398 109.803 219.423C110.351 219.71 110.561 220.097 110.435 220.594L110.03 223.129L109.668 225.411L108.944 229.934L116.347 224.013C116.549 223.836 116.76 223.752 116.987 223.752C117.012 223.752 117.037 223.752 117.063 223.76C117.256 223.777 117.459 223.862 117.669 224.005C118.158 224.342 118.764 225.125 119.514 226.371C119.699 226.691 119.867 226.986 120.01 227.264C120.415 228.039 120.625 228.654 120.65 229.092C120.684 229.689 120.457 230.068 119.96 230.245L115.016 232.166L112.86 232.999L111.134 233.673L118.377 236.486L119.834 237.05L119.951 237.092C120.448 237.269 120.676 237.648 120.642 238.246C120.608 238.844 120.229 239.762 119.505 241C118.781 242.238 118.174 243.013 117.678 243.325C117.433 243.476 117.206 243.552 116.987 243.552C116.76 243.552 116.541 243.468 116.338 243.308L115.665 242.769L108.936 237.387L109.222 239.173L110.334 246.137L110.426 246.727C110.553 247.249 110.342 247.645 109.795 247.914C109.247 248.184 108.253 248.327 106.813 248.327C105.398 248.327 104.405 248.192 103.857 247.923Z" fill="#CEC7BF"/>
<path d="M158.953 236.174C158.911 236.082 158.861 235.997 158.81 235.913C158.364 235.172 157.707 234.599 156.881 234.254C156.814 234.229 156.747 234.204 156.679 234.178L155.374 233.673L156.317 233.302L156.671 233.168C157.58 232.831 158.322 232.233 158.802 231.424C159.231 230.709 159.425 229.858 159.383 228.957C159.383 228.94 159.383 228.915 159.383 228.898C159.349 228.325 159.206 227.719 158.945 227.037C158.692 226.371 158.322 225.639 157.825 224.788L157.816 224.771C156.806 223.087 155.963 222.059 155.079 221.444C154.978 221.377 154.877 221.31 154.768 221.251C154.094 220.855 153.361 220.644 152.62 220.644C152.468 220.644 152.325 220.653 152.182 220.67C151.39 220.754 150.641 221.082 150.001 221.621L148.923 222.48L149.125 221.183C149.184 220.897 149.217 220.611 149.217 220.333C149.217 219.777 149.108 219.246 148.889 218.758C148.51 217.899 147.828 217.158 146.876 216.661C146.817 216.627 146.758 216.602 146.699 216.568C146.017 216.248 145.192 216.038 144.139 215.945C143.634 215.894 143.078 215.878 142.455 215.878C140.433 215.878 139.069 216.122 138.033 216.661C136.265 217.587 135.397 219.347 135.785 221.183L135.987 222.48L135.683 222.236L134.934 221.638C134.184 220.99 133.258 220.636 132.289 220.636C132.113 220.636 131.944 220.644 131.776 220.67C131.144 220.745 130.529 220.981 129.931 221.352C128.954 221.967 128.07 223.019 127.059 224.763C126.091 226.43 125.611 227.685 125.535 228.797C125.535 228.847 125.527 228.898 125.527 228.948C125.493 229.647 125.611 230.304 125.855 230.885C125.998 231.222 126.175 231.542 126.394 231.82C126.756 232.292 127.228 232.679 127.784 232.957C127.918 233.025 128.062 233.092 128.205 233.142L129.527 233.656L128.205 234.17C126.504 234.81 125.485 236.368 125.527 238.255C125.527 238.288 125.527 238.33 125.527 238.364C125.577 239.526 126.049 240.815 127.076 242.541L127.085 242.55L127.093 242.558C127.379 243.03 127.649 243.459 127.918 243.83C128.609 244.815 129.258 245.472 129.931 245.91C130.049 245.986 130.176 246.062 130.302 246.129C130.95 246.483 131.633 246.66 132.332 246.66C132.854 246.66 133.351 246.559 133.822 246.365C133.991 246.297 134.151 246.222 134.311 246.129C134.521 246.011 134.723 245.868 134.917 245.708L135.17 245.506L135.995 244.84L135.793 246.129V246.146C135.768 246.255 135.751 246.373 135.742 246.483C135.65 247.215 135.751 247.923 136.029 248.563C136.13 248.799 136.256 249.026 136.399 249.245H148.544C149.15 248.361 149.377 247.274 149.15 246.146V246.129L148.948 244.84L150.06 245.725C150.245 245.876 150.447 246.011 150.649 246.129C151.264 246.483 151.946 246.66 152.654 246.66C153.361 246.66 154.052 246.483 154.709 246.129C154.81 246.079 154.902 246.02 155.003 245.961C155.972 245.354 156.856 244.31 157.867 242.558C158.869 240.832 159.349 239.56 159.416 238.431C159.425 238.339 159.425 238.238 159.425 238.145C159.4 237.438 159.248 236.764 158.953 236.174ZM139.473 247.923C139.322 247.847 139.195 247.763 139.094 247.662C138.833 247.418 138.749 247.106 138.842 246.727L138.934 246.137L138.943 246.087L140.332 237.387L137.418 239.712L135.608 241.16L132.921 243.308C132.736 243.468 132.534 243.552 132.315 243.552C132.096 243.552 131.868 243.468 131.616 243.308C131.43 243.19 131.22 242.996 131.001 242.743C130.698 242.398 130.361 241.935 129.99 241.345C129.914 241.219 129.83 241.093 129.754 240.958C129.03 239.745 128.66 238.836 128.634 238.238C128.609 237.64 128.836 237.261 129.308 237.084L138.168 233.656L134.235 232.132L129.308 230.228C128.836 230.052 128.617 229.673 128.634 229.075C128.643 228.948 128.66 228.805 128.702 228.645C128.836 228.072 129.19 227.289 129.754 226.321C130.47 225.083 131.085 224.299 131.599 223.979C131.843 223.828 132.07 223.744 132.289 223.744C132.517 223.744 132.727 223.836 132.921 224.013L140.324 229.934L138.833 220.594C138.707 220.097 138.917 219.71 139.465 219.423C140.012 219.137 141.006 218.994 142.438 218.994C142.926 218.994 143.364 219.011 143.752 219.044C144.409 219.103 144.922 219.204 145.276 219.356C145.327 219.373 145.369 219.398 145.411 219.423C145.958 219.71 146.169 220.097 146.042 220.594L145.638 223.129L145.276 225.411L144.552 229.934L151.955 224.013C152.157 223.836 152.367 223.752 152.595 223.752C152.62 223.752 152.645 223.752 152.67 223.76C152.864 223.777 153.066 223.862 153.277 224.005C153.765 224.342 154.372 225.125 155.121 226.371C155.307 226.691 155.475 226.986 155.618 227.264C156.022 228.039 156.233 228.654 156.258 229.092C156.292 229.689 156.064 230.068 155.568 230.245L150.624 232.166L148.468 232.999L146.741 233.673L153.984 236.486L155.441 237.05L155.559 237.092C156.056 237.269 156.283 237.648 156.25 238.246C156.216 238.844 155.837 239.762 155.113 241C154.397 242.238 153.782 243.013 153.285 243.325C153.041 243.476 152.814 243.552 152.595 243.552C152.367 243.552 152.148 243.468 151.946 243.308L151.272 242.769L144.543 237.387L144.83 239.173L145.941 246.137L146.034 246.727C146.16 247.249 145.95 247.645 145.402 247.914C144.855 248.184 143.861 248.327 142.421 248.327C141.015 248.327 140.021 248.192 139.473 247.923Z" fill="#CEC7BF"/>
<path d="M194.569 236.174C194.527 236.082 194.476 235.997 194.426 235.913C193.979 235.172 193.323 234.599 192.497 234.254C192.43 234.229 192.362 234.204 192.295 234.178L190.99 233.673L191.933 233.302L192.287 233.168C193.196 232.831 193.937 232.233 194.417 231.424C194.839 230.709 195.041 229.858 194.999 228.957C194.999 228.94 194.999 228.915 194.999 228.898C194.965 228.325 194.822 227.719 194.561 227.037C194.308 226.371 193.937 225.639 193.432 224.788L193.424 224.771C192.413 223.087 191.571 222.059 190.687 221.444C190.585 221.377 190.484 221.31 190.375 221.251C189.701 220.855 188.968 220.644 188.227 220.644C188.076 220.644 187.933 220.653 187.781 220.67C186.989 220.762 186.24 221.082 185.6 221.621L184.522 222.48L184.732 221.183C184.791 220.897 184.825 220.611 184.825 220.333C184.825 219.785 184.715 219.246 184.496 218.758C184.117 217.899 183.435 217.158 182.484 216.661C182.425 216.627 182.366 216.602 182.307 216.568C181.625 216.248 180.799 216.038 179.746 215.945C179.241 215.894 178.685 215.878 178.062 215.878C176.041 215.878 174.676 216.122 173.641 216.661C171.872 217.587 171.005 219.347 171.392 221.183L171.602 222.48L171.299 222.236L170.55 221.638C169.8 220.99 168.865 220.636 167.905 220.636C167.728 220.636 167.56 220.644 167.392 220.67C166.76 220.745 166.145 220.981 165.547 221.352C164.57 221.967 163.686 223.019 162.675 224.763C161.707 226.439 161.227 227.685 161.151 228.797C161.142 228.847 161.142 228.898 161.142 228.948C161.117 229.647 161.227 230.304 161.471 230.885C161.606 231.222 161.791 231.542 162.01 231.82C162.372 232.292 162.844 232.679 163.4 232.957C163.534 233.025 163.677 233.084 163.821 233.142L165.143 233.656L163.821 234.17C162.119 234.81 161.1 236.368 161.142 238.255C161.142 238.288 161.142 238.33 161.142 238.364C161.193 239.526 161.665 240.815 162.692 242.541L162.701 242.55V242.558C162.987 243.03 163.256 243.459 163.526 243.83C164.216 244.815 164.865 245.472 165.539 245.91C165.657 245.986 165.783 246.062 165.909 246.129C166.558 246.483 167.24 246.66 167.939 246.66C168.461 246.66 168.958 246.559 169.43 246.365C169.598 246.297 169.758 246.222 169.91 246.129C170.12 246.011 170.322 245.868 170.516 245.708L170.769 245.506L171.602 244.84L171.4 246.129V246.146C171.375 246.255 171.358 246.373 171.35 246.483C171.257 247.215 171.358 247.923 171.636 248.563C171.737 248.799 171.864 249.026 172.007 249.245H184.151C184.758 248.361 184.985 247.274 184.757 246.146V246.129L184.555 244.84L185.667 245.725C185.852 245.876 186.054 246.011 186.257 246.129C186.871 246.483 187.554 246.66 188.261 246.66C188.968 246.66 189.659 246.483 190.316 246.129C190.417 246.079 190.51 246.02 190.611 245.961C191.579 245.354 192.464 244.31 193.474 242.558C194.476 240.832 194.956 239.56 195.024 238.431C195.032 238.339 195.032 238.238 195.032 238.145C195.015 237.438 194.864 236.764 194.569 236.174ZM175.089 247.923C174.938 247.847 174.811 247.763 174.71 247.662C174.449 247.418 174.365 247.106 174.458 246.727L174.55 246.137L174.559 246.087L175.948 237.387L173.034 239.712L171.223 241.16L168.537 243.308C168.352 243.468 168.149 243.552 167.931 243.552C167.712 243.552 167.484 243.468 167.232 243.308C167.046 243.19 166.836 242.996 166.617 242.743C166.314 242.398 165.977 241.935 165.606 241.345C165.53 241.219 165.454 241.093 165.37 240.958C164.654 239.745 164.275 238.836 164.25 238.238C164.225 237.64 164.452 237.261 164.924 237.084L173.784 233.656L169.851 232.132L164.924 230.228C164.452 230.052 164.233 229.673 164.25 229.075C164.259 228.948 164.275 228.805 164.318 228.645C164.452 228.072 164.806 227.289 165.37 226.321C166.086 225.083 166.701 224.299 167.215 223.979C167.459 223.828 167.686 223.744 167.905 223.744C168.133 223.744 168.343 223.836 168.537 224.013L175.94 229.934L174.449 220.594C174.323 220.097 174.533 219.71 175.081 219.423C175.628 219.137 176.622 218.994 178.062 218.994C178.551 218.994 178.988 219.011 179.376 219.044C180.033 219.103 180.547 219.204 180.9 219.356C180.951 219.373 180.993 219.398 181.035 219.423C181.582 219.71 181.793 220.097 181.667 220.594L181.262 223.129L180.9 225.411L180.176 229.934L187.579 224.013C187.781 223.836 187.991 223.752 188.219 223.752C188.244 223.752 188.269 223.752 188.295 223.76C188.488 223.777 188.691 223.862 188.901 224.005C189.39 224.342 189.996 225.125 190.745 226.371C190.931 226.691 191.099 226.986 191.242 227.264C191.647 228.039 191.857 228.654 191.882 229.092C191.916 229.689 191.689 230.068 191.192 230.245L186.248 232.166L184.092 232.999L182.366 233.673L189.609 236.486L191.065 237.05L191.183 237.092C191.68 237.269 191.908 237.648 191.874 238.246C191.84 238.844 191.461 239.762 190.737 241C190.013 242.238 189.406 243.013 188.91 243.325C188.665 243.476 188.438 243.552 188.219 243.552C187.991 243.552 187.773 243.468 187.57 243.308L186.897 242.769L180.168 237.387L180.454 239.173L181.566 246.137L181.658 246.727C181.785 247.249 181.574 247.645 181.027 247.914C180.479 248.184 179.485 248.327 178.045 248.327C176.63 248.327 175.637 248.192 175.089 247.923Z" fill="#CEC7BF"/>
<path d="M228.113 234.246C228.046 234.22 227.978 234.195 227.911 234.17L226.606 233.665L227.549 233.294L227.903 233.159C228.812 232.822 229.553 232.224 230.033 231.416C230.471 230.683 230.673 229.816 230.615 228.889C230.547 227.752 230.059 226.489 229.048 224.78L229.04 224.763C228.029 223.078 227.187 222.051 226.302 221.436C226.201 221.369 226.1 221.301 225.991 221.242C225.317 220.846 224.584 220.636 223.843 220.636C223.692 220.636 223.549 220.644 223.405 220.661C222.614 220.745 221.864 221.074 221.224 221.613L220.146 222.472L220.357 221.175C220.416 220.889 220.449 220.602 220.449 220.324C220.449 219.777 220.34 219.238 220.121 218.749C219.742 217.89 219.06 217.149 218.108 216.652C218.049 216.619 217.99 216.593 217.931 216.568C217.249 216.24 216.424 216.038 215.371 215.945C214.866 215.894 214.31 215.878 213.686 215.878C211.665 215.878 210.301 216.122 209.265 216.661C207.496 217.587 206.629 219.347 207.016 221.183L207.218 222.48L206.915 222.236L206.166 221.638C205.416 220.99 204.49 220.636 203.521 220.636C203.344 220.636 203.176 220.644 203.007 220.67C202.376 220.745 201.761 220.981 201.163 221.352C200.186 221.967 199.302 223.019 198.291 224.763C197.323 226.439 196.843 227.685 196.767 228.797C196.758 228.847 196.758 228.898 196.758 228.948C196.733 229.647 196.843 230.304 197.087 230.885C197.222 231.222 197.407 231.542 197.626 231.82C197.988 232.292 198.46 232.679 199.016 232.957C199.15 233.025 199.293 233.084 199.437 233.142L200.759 233.656L199.437 234.17C197.735 234.81 196.716 236.368 196.758 238.255C196.758 238.288 196.758 238.33 196.758 238.364C196.809 239.526 197.281 240.815 198.308 242.541L198.316 242.55L198.325 242.558C198.611 243.03 198.881 243.459 199.15 243.83C199.841 244.815 200.489 245.472 201.163 245.91C201.281 245.986 201.407 246.062 201.534 246.129C202.182 246.483 202.864 246.66 203.563 246.66C204.085 246.66 204.582 246.559 205.054 246.365C205.222 246.297 205.382 246.222 205.542 246.129C205.753 246.011 205.955 245.868 206.149 245.708L206.402 245.506L207.235 244.84L207.033 246.129V246.146C207.008 246.255 206.991 246.373 206.983 246.483C206.89 247.215 206.991 247.923 207.269 248.563C207.37 248.799 207.496 249.026 207.64 249.245H219.784C220.39 248.361 220.618 247.274 220.39 246.146V246.129L220.188 244.84L221.3 245.725C221.485 245.876 221.687 246.011 221.889 246.129C222.504 246.483 223.186 246.66 223.894 246.66C224.601 246.66 225.292 246.483 225.949 246.129C226.05 246.079 226.142 246.02 226.244 245.961C227.212 245.354 228.096 244.31 229.107 242.558C230.109 240.832 230.589 239.56 230.657 238.431C230.716 237.513 230.513 236.638 230.075 235.905C229.595 235.164 228.939 234.599 228.113 234.246ZM210.705 247.923C210.554 247.847 210.427 247.763 210.326 247.662C210.065 247.418 209.981 247.106 210.073 246.727L210.166 246.137L210.175 246.087L211.564 237.387L208.65 239.712L206.839 241.16L204.153 243.308C203.968 243.468 203.765 243.552 203.546 243.552C203.328 243.552 203.1 243.468 202.847 243.308C202.662 243.19 202.452 242.996 202.233 242.743C201.929 242.398 201.593 241.935 201.222 241.345C201.146 241.219 201.07 241.093 200.986 240.958C200.262 239.745 199.891 238.836 199.866 238.238C199.841 237.64 200.068 237.261 200.54 237.084L209.4 233.656L205.467 232.132L200.54 230.228C200.068 230.052 199.849 229.673 199.866 229.075C199.875 228.948 199.891 228.805 199.933 228.645C200.068 228.072 200.422 227.289 200.986 226.321C201.702 225.083 202.317 224.299 202.831 223.979C203.075 223.828 203.302 223.744 203.521 223.744C203.749 223.744 203.959 223.836 204.153 224.013L211.556 229.934L210.065 220.594C209.939 220.097 210.149 219.71 210.697 219.423C211.244 219.137 212.238 218.994 213.678 218.994C214.167 218.994 214.604 219.011 214.992 219.044C215.649 219.103 216.162 219.204 216.516 219.356C216.567 219.373 216.609 219.398 216.651 219.423C217.198 219.71 217.409 220.097 217.283 220.594L216.878 223.129L216.516 225.411L215.792 229.934L223.195 224.013C223.397 223.836 223.607 223.752 223.835 223.752C223.86 223.752 223.885 223.752 223.911 223.76C224.104 223.777 224.306 223.862 224.517 224.005C225.005 224.342 225.612 225.125 226.361 226.371C226.547 226.691 226.715 226.986 226.858 227.264C227.263 228.039 227.473 228.654 227.498 229.092C227.532 229.689 227.305 230.068 226.808 230.245L221.864 232.166L219.708 232.999L217.982 233.673L225.224 236.486L226.681 237.05L226.799 237.092C227.296 237.269 227.524 237.648 227.49 238.246C227.456 238.844 227.077 239.762 226.353 241C225.629 242.238 225.022 243.013 224.525 243.325C224.281 243.476 224.054 243.552 223.835 243.552C223.607 243.552 223.389 243.468 223.186 243.308L222.513 242.769L215.784 237.387L216.07 239.173L217.182 246.137L217.274 246.727C217.401 247.249 217.19 247.645 216.643 247.914C216.095 248.184 215.101 248.327 213.661 248.327C212.246 248.327 211.253 248.192 210.705 247.923Z" fill="#CEC7BF"/>
<path d="M162.06 208.087C153.049 208.087 144.307 206.319 136.07 202.841C128.12 199.48 120.978 194.663 114.847 188.532C108.716 182.401 103.907 175.259 100.538 167.308C97.0517 159.072 95.2915 150.33 95.2915 141.319C95.2915 132.307 97.0601 123.565 100.538 115.328C103.899 107.378 108.716 100.236 114.847 94.1053C120.978 87.9741 128.12 83.1652 136.07 79.7965C144.307 76.3098 153.049 74.5496 162.06 74.5496C171.072 74.5496 179.814 76.3182 188.05 79.7965C196.001 83.1568 203.142 87.9741 209.274 94.1053C215.405 100.236 220.214 107.378 223.582 115.328C227.069 123.565 228.829 132.307 228.829 141.319C228.829 150.33 227.061 159.072 223.582 167.308C220.222 175.259 215.405 182.401 209.274 188.532C203.142 194.663 196.001 199.472 188.05 202.841C179.822 206.327 171.072 208.087 162.06 208.087Z" fill="#E5DFD8"/>
<path d="M104.64 247.696C102.914 247.696 101.743 247.51 100.968 247.123C99.806 246.542 99.2501 245.447 99.5028 244.243L100.353 238.92L96.1088 242.305C95.6456 242.701 95.0897 242.903 94.5086 242.903C93.9865 242.903 93.4643 242.735 92.959 242.407C92.2431 241.943 91.502 241.042 90.6093 239.56L90.6009 239.552C89.725 238.078 89.3039 236.983 89.2702 236.107C89.2197 234.844 89.8429 233.841 90.9461 233.429L96.033 231.458L90.9461 229.487C89.8429 229.075 89.2197 228.072 89.2702 226.809C89.3039 225.942 89.725 224.838 90.5924 223.339C91.4599 221.849 92.2094 220.931 92.9506 220.459C93.4474 220.147 93.9612 219.987 94.4749 219.987C95.0813 219.987 95.6456 220.206 96.1172 220.628L100.345 224.005L99.4944 218.69C99.2417 217.528 99.7891 216.442 100.935 215.835C101.726 215.423 102.897 215.229 104.632 215.229C106.367 215.229 107.537 215.423 108.329 215.835C109.483 216.442 110.022 217.528 109.769 218.69L108.918 224.005L113.155 220.619C113.635 220.215 114.199 219.996 114.789 219.996C115.328 219.996 115.858 220.173 116.355 220.518C117.037 220.99 117.77 221.891 118.646 223.365L118.654 223.373C119.522 224.838 119.951 225.925 120.002 226.784C120.086 228.072 119.446 229.083 118.3 229.496L113.239 231.458L118.3 233.42C119.446 233.833 120.078 234.844 120.002 236.132C119.951 236.991 119.522 238.086 118.663 239.568C117.778 241.084 117.054 241.969 116.313 242.432C115.816 242.743 115.311 242.895 114.797 242.895C114.216 242.895 113.652 242.693 113.172 242.305L108.91 238.903L109.761 244.226C110.013 245.422 109.458 246.516 108.295 247.106C107.537 247.51 106.367 247.696 104.64 247.696Z" fill="#3D737F"/>
<path d="M140.256 247.696C138.53 247.696 137.359 247.51 136.584 247.123C135.422 246.542 134.866 245.447 135.119 244.243L135.969 238.92L131.725 242.305C131.262 242.701 130.706 242.903 130.125 242.903C129.602 242.903 129.08 242.735 128.575 242.407C127.859 241.943 127.118 241.042 126.225 239.56L126.217 239.552C125.341 238.078 124.92 236.983 124.886 236.107C124.836 234.844 125.459 233.841 126.562 233.429L131.649 231.458L126.562 229.487C125.459 229.075 124.836 228.072 124.886 226.809C124.92 225.942 125.341 224.838 126.208 223.339C127.076 221.849 127.825 220.931 128.567 220.459C129.063 220.147 129.577 219.987 130.091 219.987C130.697 219.987 131.262 220.206 131.733 220.628L135.961 224.005L135.11 218.69C134.858 217.528 135.405 216.442 136.55 215.835C137.342 215.423 138.513 215.229 140.248 215.229C141.983 215.229 143.153 215.423 143.945 215.835C145.099 216.442 145.638 217.528 145.385 218.69L144.534 224.005L148.771 220.619C149.251 220.215 149.815 219.996 150.405 219.996C150.944 219.996 151.474 220.173 151.971 220.518C152.653 220.99 153.386 221.891 154.262 223.365L154.27 223.373C155.138 224.838 155.567 225.925 155.618 226.784C155.702 228.072 155.062 229.083 153.916 229.496L148.855 231.458L153.916 233.42C155.062 233.833 155.693 234.844 155.618 236.132C155.567 236.991 155.138 238.086 154.279 239.568C153.394 241.084 152.67 241.969 151.929 242.432C151.432 242.743 150.927 242.895 150.413 242.895C149.832 242.895 149.268 242.693 148.788 242.305L144.526 238.903L145.377 244.226C145.629 245.422 145.073 246.516 143.911 247.106C143.153 247.51 141.983 247.696 140.256 247.696Z" fill="#3D737F"/>
<path d="M175.872 247.696C174.146 247.696 172.975 247.51 172.2 247.123C171.038 246.542 170.482 245.447 170.735 244.243L171.586 238.92L167.341 242.314C166.878 242.71 166.322 242.912 165.741 242.912C165.219 242.912 164.696 242.743 164.191 242.415C163.475 241.952 162.734 241.051 161.841 239.568L161.833 239.56C160.957 238.086 160.536 236.991 160.502 236.115C160.452 234.852 161.075 233.85 162.178 233.437L167.265 231.467L162.178 229.496C161.075 229.083 160.452 228.081 160.502 226.818C160.536 225.95 160.957 224.847 161.825 223.348C162.692 221.857 163.442 220.939 164.183 220.468C164.68 220.156 165.193 219.996 165.707 219.996C166.313 219.996 166.878 220.215 167.349 220.636L171.577 224.013L170.727 218.699C170.474 217.537 171.021 216.45 172.167 215.844C172.958 215.431 174.129 215.238 175.864 215.238C177.599 215.238 178.769 215.431 179.561 215.844C180.715 216.45 181.254 217.537 181.001 218.699L180.151 224.013L184.387 220.628C184.867 220.223 185.431 220.004 186.021 220.004C186.56 220.004 187.09 220.181 187.587 220.527C188.269 220.998 189.002 221.899 189.878 223.373L189.886 223.382C190.754 224.847 191.183 225.933 191.234 226.792C191.318 228.081 190.678 229.092 189.533 229.504L184.471 231.467L189.533 233.429C190.678 233.842 191.31 234.852 191.234 236.141C191.183 237 190.754 238.095 189.895 239.577C189.011 241.093 188.286 241.977 187.545 242.44C187.048 242.752 186.543 242.904 186.029 242.904C185.448 242.904 184.884 242.701 184.404 242.314L180.142 238.912L180.993 244.234C181.246 245.43 180.69 246.525 179.527 247.114C178.769 247.51 177.599 247.696 175.872 247.696Z" fill="#3D737F"/>
<path d="M135.473 178.274C130.765 178.274 126.941 174.45 126.941 169.743V136.459C126.941 131.751 130.765 127.928 135.473 127.928H188.43C193.138 127.928 196.961 131.751 196.961 136.459V169.743C196.961 174.45 193.138 178.274 188.43 178.274H135.473Z" fill="#3D737F"/>
<path d="M161.951 167.384C159.45 167.384 157.412 165.346 157.412 162.845V157.497C155.989 156.764 154.776 155.703 153.841 154.372C152.67 152.705 152.056 150.743 152.056 148.704C152.056 143.255 156.494 138.817 161.943 138.817C167.392 138.817 171.83 143.255 171.83 148.704C171.83 150.743 171.216 152.705 170.045 154.372C169.118 155.695 167.897 156.764 166.474 157.497V162.845C166.491 165.355 164.453 167.384 161.951 167.384Z" fill="#E5DFD8"/>
<path d="M177.768 127.818V119.396C177.768 110.671 170.668 103.58 161.951 103.58C153.226 103.58 146.135 110.68 146.135 119.396V127.818H135.565V119.396C135.565 115.834 136.264 112.381 137.637 109.122C138.968 105.98 140.863 103.159 143.288 100.733C145.714 98.3078 148.527 96.4129 151.677 95.0822C154.936 93.7095 158.389 93.0104 161.951 93.0104C165.514 93.0104 168.967 93.7095 172.226 95.0822C175.367 96.4129 178.189 98.3078 180.614 100.733C183.031 103.15 184.935 105.972 186.265 109.122C187.638 112.381 188.337 115.834 188.337 119.396V127.818H177.768Z" fill="#B5B5B5"/>
<path d="M211.488 247.696C209.762 247.696 208.591 247.51 207.816 247.123C206.654 246.542 206.098 245.447 206.351 244.243L207.202 238.92L202.957 242.305C202.494 242.701 201.938 242.903 201.357 242.903C200.835 242.903 200.312 242.735 199.807 242.407C199.091 241.943 198.35 241.042 197.457 239.56L197.449 239.552C196.573 238.078 196.152 236.983 196.118 236.107C196.068 234.844 196.691 233.841 197.794 233.429L202.881 231.458L197.794 229.487C196.691 229.075 196.068 228.072 196.118 226.809C196.152 225.942 196.573 224.838 197.441 223.339C198.308 221.849 199.058 220.931 199.799 220.459C200.296 220.147 200.809 219.987 201.323 219.987C201.929 219.987 202.494 220.206 202.965 220.628L207.193 224.005L206.343 218.69C206.09 217.528 206.637 216.442 207.783 215.835C208.574 215.423 209.745 215.229 211.48 215.229C213.215 215.229 214.385 215.423 215.177 215.835C216.331 216.442 216.878 217.528 216.617 218.69L215.767 224.005L220.003 220.619C220.483 220.215 221.047 219.996 221.637 219.996C222.176 219.996 222.706 220.173 223.203 220.518C223.885 220.99 224.618 221.891 225.494 223.365L225.502 223.373C226.37 224.838 226.799 225.925 226.85 226.784C226.934 228.072 226.294 229.083 225.149 229.496L220.087 231.458L225.149 233.42C226.294 233.833 226.926 234.844 226.85 236.132C226.799 236.991 226.37 238.086 225.511 239.568C224.626 241.084 223.902 241.969 223.161 242.432C222.664 242.743 222.159 242.895 221.645 242.895C221.064 242.895 220.5 242.693 220.02 242.305L215.758 238.903L216.609 244.226C216.861 245.422 216.306 246.516 215.143 247.106C214.385 247.51 213.215 247.696 211.488 247.696Z" fill="#3D737F"/>
<path d="M227.213 116.92C223.768 108.785 218.841 101.474 212.576 95.2085C212.205 94.8379 211.843 94.4842 211.464 94.1221C205.442 88.3615 198.519 83.8052 190.855 80.5712C187.478 79.1395 184.008 77.9941 180.48 77.1351C175.208 75.8465 169.784 75.1981 164.259 75.1981C155.037 75.1981 146.093 77.0088 137.663 80.5712C129.527 84.0158 122.217 88.9342 115.943 95.2085C109.668 101.483 104.741 108.785 101.305 116.92C97.7428 125.351 95.9321 134.295 95.9321 143.517C95.9321 149.041 96.5806 154.465 97.8692 159.737C98.7282 163.266 99.8736 166.736 101.305 170.113C104.548 177.777 109.104 184.7 114.865 190.721C115.218 191.092 115.58 191.463 115.951 191.833C122.225 198.107 129.527 203.034 137.671 206.47C146.101 210.033 155.046 211.844 164.267 211.844C173.489 211.844 182.434 210.033 190.864 206.47C198.999 203.026 206.31 198.107 212.576 191.833C218.85 185.559 223.777 178.257 227.213 170.121C230.775 161.691 232.586 152.747 232.586 143.525C232.586 134.295 230.775 125.351 227.213 116.92ZM189.643 203.598C181.6 207.001 173.06 208.727 164.259 208.727C158.103 208.727 152.073 207.885 146.253 206.209C143.752 205.493 141.293 204.618 138.875 203.598C131.11 200.314 124.137 195.614 118.149 189.627C117.787 189.264 117.425 188.894 117.071 188.523C111.597 182.788 107.26 176.194 104.169 168.9C100.766 160.857 99.0398 152.317 99.0398 143.517C99.0398 134.716 100.766 126.176 104.169 118.133C107.453 110.368 112.153 103.395 118.141 97.4066C124.129 91.4187 131.102 86.7192 138.867 83.4347C146.91 80.0322 155.45 78.3057 164.251 78.3057C173.052 78.3057 181.591 80.0322 189.634 83.4347C196.928 86.5171 203.514 90.8544 209.249 96.3286C209.619 96.6823 209.99 97.0445 210.361 97.4151C216.349 103.403 221.048 110.376 224.333 118.141C225.352 120.55 226.219 123.009 226.935 125.502C228.611 131.33 229.453 137.36 229.453 143.525C229.453 152.326 227.727 160.866 224.324 168.909C221.04 176.674 216.34 183.647 210.352 189.635C204.381 195.614 197.408 200.314 189.643 203.598Z" fill="#CEC7BF"/>
<path d="M175.283 108.262C173.017 106.368 170.272 105.037 167.257 104.489C172.554 106.384 176.563 111.025 177.54 116.684C178.104 118.217 178.408 119.859 178.408 121.586V126.37H181.524V121.586C181.524 116.246 179.098 111.454 175.283 108.262ZM197.753 131.524C197.382 131.153 196.986 130.816 196.574 130.505C195.251 129.528 193.719 128.905 192.085 128.669V121.586C192.085 117.813 191.344 114.158 189.887 110.705C188.48 107.378 186.467 104.388 183.899 101.82C183.528 101.449 183.157 101.095 182.77 100.75C180.471 98.6868 177.869 97.0361 175.013 95.8317C173.38 95.1411 171.695 94.6106 169.977 94.2484C168.074 93.8442 166.12 93.642 164.132 93.642C160.359 93.642 156.704 94.3832 153.251 95.8402C149.925 97.2466 146.935 99.2594 144.366 101.82C141.806 104.388 139.793 107.37 138.387 110.705C136.93 114.149 136.188 117.813 136.188 121.586V128.669C135.431 128.778 134.698 128.972 133.99 129.241C132.702 129.738 131.523 130.513 130.521 131.515C128.617 133.419 127.564 135.954 127.564 138.649V171.932C127.564 172.336 127.59 172.741 127.632 173.136C127.834 174.863 128.474 176.488 129.501 177.886C129.805 178.299 130.142 178.695 130.512 179.065C132.415 180.969 134.95 182.022 137.645 182.022H190.602C193.297 182.022 195.832 180.969 197.736 179.065C199.639 177.162 200.692 174.627 200.692 171.932V138.649C200.709 135.962 199.664 133.427 197.753 131.524ZM197.593 171.94C197.593 175.789 194.468 178.914 190.619 178.914H137.662C136.593 178.914 135.574 178.67 134.673 178.24C133.477 177.667 132.466 176.766 131.759 175.655C131.085 174.577 130.689 173.305 130.689 171.94V138.657C130.689 134.808 133.814 131.684 137.662 131.684H190.619C191.984 131.684 193.255 132.08 194.333 132.753C195.453 133.452 196.355 134.463 196.927 135.667C197.357 136.577 197.601 137.588 197.601 138.657V171.94H197.593ZM177.54 116.693C178.104 118.226 178.408 119.868 178.408 121.594V128.568H149.883V121.594C149.883 113.728 156.283 107.336 164.141 107.336C167.518 107.336 170.617 108.515 173.068 110.477C175.081 112.094 176.639 114.234 177.54 116.693ZM139.321 121.594C139.321 118.242 139.978 114.992 141.275 111.926C142.522 108.97 144.316 106.317 146.59 104.035C148.872 101.752 151.525 99.9669 154.481 98.7204C157.546 97.4235 160.797 96.7666 164.149 96.7666C167.501 96.7666 170.752 97.4235 173.818 98.7204C176.302 99.7732 178.568 101.196 180.58 102.982C180.968 103.319 181.338 103.673 181.709 104.043C183.991 106.317 185.777 108.978 187.023 111.934C187.301 112.6 187.554 113.274 187.773 113.956C188.564 116.415 188.969 118.984 188.969 121.603V128.467H181.515V121.603C181.515 116.255 179.09 111.463 175.275 108.279C173.009 106.384 170.264 105.054 167.248 104.506C166.238 104.321 165.202 104.228 164.141 104.228C154.557 104.228 146.766 112.027 146.766 121.603V128.467H139.321V121.594Z" fill="#CEC7BF"/>
<path d="M172.242 142.809C171.872 142.439 171.484 142.102 171.072 141.79C169.505 140.594 167.661 139.828 165.707 139.567C165.193 139.499 164.679 139.466 164.149 139.466C161.092 139.466 158.22 140.653 156.055 142.818C153.891 144.982 152.703 147.854 152.703 150.911C152.703 151.442 152.737 151.964 152.813 152.486C153.057 154.271 153.722 155.973 154.775 157.472C154.859 157.598 154.952 157.716 155.045 157.842C155.306 158.179 155.575 158.508 155.87 158.811C156.35 159.316 156.872 159.771 157.428 160.175C157.639 160.327 157.849 160.47 158.06 160.605V165.051C158.06 165.093 158.06 165.136 158.06 165.169C158.077 166.247 158.38 167.25 158.893 168.117C159.955 169.928 161.917 171.14 164.157 171.14C167.518 171.14 170.255 168.403 170.255 165.043V160.596C171.543 159.788 172.655 158.727 173.539 157.463C174.895 155.535 175.603 153.261 175.603 150.903C175.594 147.845 174.398 144.974 172.242 142.809ZM157.26 155.594C156.35 154.255 155.811 152.646 155.811 150.903C155.811 146.304 159.542 142.573 164.14 142.573C165.884 142.573 167.492 143.104 168.831 144.022C170.111 144.898 171.139 146.119 171.771 147.551C172.225 148.578 172.478 149.715 172.478 150.903C172.478 154.457 170.255 157.489 167.122 158.684V165.043C167.122 166.685 165.791 168.024 164.14 168.024C163.441 168.024 162.793 167.78 162.288 167.376C161.774 166.972 161.403 166.399 161.243 165.75C161.193 165.523 161.159 165.287 161.159 165.051V158.684C160.359 158.381 159.626 157.952 158.969 157.43C158.312 156.916 157.731 156.293 157.26 155.594Z" fill="#CEC7BF"/>
<path d="M225.014 114.731C221.772 107.067 217.216 100.144 211.455 94.1221C211.101 93.7516 210.739 93.381 210.369 93.0104C204.094 86.7361 196.793 81.8093 188.649 78.3732C180.218 74.8107 171.274 73 162.052 73C152.83 73 143.886 74.8107 135.456 78.3732C127.32 81.8177 120.01 86.7361 113.744 93.0104C107.478 99.2848 102.543 106.587 99.1068 114.722C95.5444 123.152 93.7336 132.097 93.7336 141.319C93.7336 150.541 95.5444 159.485 99.1068 167.915C102.551 176.05 107.47 183.361 113.744 189.627C114.115 189.989 114.477 190.351 114.856 190.713C120.877 196.474 127.8 201.03 135.464 204.272C143.895 207.835 152.839 209.645 162.061 209.645C171.283 209.645 180.227 207.835 188.657 204.272C196.793 200.828 204.103 195.909 210.377 189.635C216.651 183.361 221.578 176.059 225.014 167.923C228.577 159.493 230.388 150.549 230.388 141.327C230.388 132.105 228.577 123.152 225.014 114.731ZM136.685 201.409C129.4 198.326 122.806 193.998 117.079 188.532C116.7 188.17 116.33 187.807 115.959 187.437C109.971 181.449 105.272 174.476 101.987 166.711C98.5847 158.668 96.8582 150.128 96.8582 141.327C96.8582 132.526 98.5847 123.986 101.987 115.943C105.272 108.178 109.971 101.205 115.959 95.217C121.947 89.229 128.92 84.5296 136.685 81.245C144.728 77.8426 153.268 76.1161 162.069 76.1161C170.87 76.1161 179.41 77.8426 187.453 81.245C195.218 84.5296 202.191 89.229 208.179 95.217C208.541 95.5791 208.903 95.9497 209.265 96.3287C214.74 102.064 219.068 108.65 222.151 115.943C225.553 123.986 227.28 132.526 227.28 141.327C227.28 150.128 225.553 158.668 222.151 166.711C218.866 174.476 214.167 181.449 208.179 187.437C202.191 193.425 195.218 198.124 187.453 201.409C179.41 204.811 170.87 206.538 162.069 206.538C153.268 206.538 144.72 204.811 136.685 201.409Z" fill="#575757"/>
<path d="M121.004 233.715C120.919 233.564 120.818 233.429 120.717 233.294C120.254 232.696 119.622 232.25 118.881 231.972L117.576 231.467L118.881 230.961C119.791 230.624 120.532 230.026 121.012 229.218C121.45 228.485 121.652 227.618 121.593 226.691C121.526 225.554 121.037 224.291 120.027 222.581L120.018 222.573L120.01 222.565C119.715 222.068 119.429 221.63 119.151 221.234C118.494 220.308 117.887 219.667 117.264 219.238C116.506 218.716 115.656 218.438 114.805 218.438C114.266 218.438 113.752 218.547 113.264 218.749C112.876 218.91 112.514 219.137 112.177 219.415L111.099 220.274L111.301 218.977C111.478 218.135 111.386 217.301 111.066 216.568C110.695 215.701 110.004 214.96 109.053 214.463C108.017 213.924 106.653 213.68 104.631 213.68C102.61 213.68 101.246 213.924 100.21 214.463C98.4412 215.389 97.5737 217.149 97.9612 218.985L98.1717 220.282L97.119 219.44C96.3694 218.792 95.443 218.438 94.4745 218.438C93.6576 218.438 92.8659 218.682 92.1164 219.154C91.1394 219.769 90.2551 220.821 89.2445 222.565C88.2339 224.316 87.7538 225.605 87.7117 226.759C87.6359 228.637 88.596 230.203 90.2298 230.894C90.2804 230.919 90.3309 230.936 90.3899 230.953L91.7121 231.467L90.7773 231.829L90.3899 231.98C88.655 232.637 87.6359 234.237 87.7117 236.174C87.7622 237.337 88.2339 238.617 89.2613 240.352L89.2697 240.36L89.2782 240.369C90.3056 242.087 91.1815 243.122 92.1164 243.729C92.1753 243.771 92.2343 243.805 92.2932 243.838C93.0007 244.259 93.7418 244.47 94.5082 244.47C95.4514 244.47 96.3442 244.142 97.0937 243.518L98.1801 242.651L97.9696 243.956C97.818 244.714 97.8685 245.455 98.1043 246.129C98.1296 246.205 98.1633 246.289 98.197 246.365C98.576 247.258 99.2918 248.016 100.277 248.504C100.319 248.521 100.353 248.546 100.395 248.563C101.397 249.035 102.72 249.245 104.648 249.245C106.653 249.245 108 249.018 109.019 248.504C110.089 247.974 110.838 247.123 111.184 246.129C111.419 245.455 111.47 244.714 111.318 243.956L111.108 242.651L112.219 243.535C112.977 244.15 113.879 244.47 114.822 244.47C115.63 244.47 116.422 244.234 117.172 243.771C118.14 243.165 119.024 242.12 120.035 240.369C121.037 238.642 121.517 237.37 121.585 236.242C121.627 235.534 121.517 234.861 121.273 234.246C121.189 234.069 121.105 233.884 121.004 233.715ZM114.813 241.354C114.586 241.354 114.367 241.27 114.165 241.11L106.754 235.189L108.244 244.529C108.371 245.051 108.16 245.447 107.613 245.716C107.065 245.986 106.071 246.129 104.631 246.129C104.143 246.129 103.705 246.112 103.317 246.079C102.568 246.02 102.012 245.893 101.658 245.716C101.111 245.447 100.9 245.051 101.027 244.529L101.793 239.712L102.517 235.189L95.1061 241.11C94.9209 241.27 94.7187 241.354 94.4998 241.354C94.4576 241.354 94.4155 241.354 94.3734 241.345C94.1966 241.32 94.0029 241.244 93.8092 241.11C93.3123 240.79 92.689 240.006 91.9479 238.768C91.2236 237.556 90.8531 236.646 90.8278 236.048C90.8025 235.45 91.0299 235.071 91.5016 234.894L98.6181 232.14L100.361 231.467L93.0933 228.654L91.51 228.039C91.0383 227.862 90.811 227.483 90.8362 226.885C90.8615 226.287 91.2321 225.369 91.9563 224.131C92.6722 222.893 93.287 222.11 93.8007 221.79C94.045 221.638 94.2724 221.554 94.4913 221.554C94.7187 221.554 94.9293 221.647 95.123 221.823L102.534 227.744L101.044 218.404C100.917 217.907 101.128 217.52 101.675 217.234C102.223 216.947 103.216 216.804 104.657 216.804C106.097 216.804 107.091 216.947 107.638 217.234C108.185 217.52 108.396 217.907 108.27 218.404L108.169 219.044L106.779 227.744L109.693 225.411L114.182 221.823C114.384 221.647 114.594 221.562 114.822 221.562C115.041 221.562 115.268 221.647 115.504 221.807C115.934 222.101 116.464 222.75 117.096 223.761C117.18 223.895 117.264 224.03 117.348 224.173C118.073 225.386 118.443 226.296 118.485 226.893C118.527 227.491 118.292 227.87 117.795 228.047L108.977 231.475L112.902 232.999L117.803 234.903C118.3 235.08 118.527 235.459 118.494 236.057C118.485 236.183 118.46 236.326 118.426 236.486C118.283 237.059 117.929 237.842 117.365 238.81C116.649 240.048 116.035 240.823 115.546 241.135C115.268 241.287 115.032 241.354 114.813 241.354Z" fill="#575757"/>
<path d="M156.62 233.715C156.536 233.564 156.435 233.429 156.334 233.294C155.871 232.696 155.239 232.25 154.498 231.972L153.192 231.467L154.498 230.961C155.407 230.624 156.148 230.026 156.629 229.218C157.066 228.485 157.269 227.618 157.21 226.691C157.142 225.554 156.654 224.291 155.643 222.581L155.635 222.573L155.626 222.565C155.332 222.068 155.045 221.63 154.767 221.234C154.11 220.308 153.504 219.667 152.881 219.238C152.123 218.716 151.272 218.438 150.422 218.438C149.883 218.438 149.369 218.547 148.88 218.749C148.493 218.91 148.131 219.137 147.794 219.415L146.716 220.274L146.926 218.977C147.103 218.135 147.011 217.301 146.691 216.568C146.32 215.701 145.63 214.96 144.678 214.463C143.642 213.924 142.278 213.68 140.256 213.68C138.235 213.68 136.871 213.924 135.835 214.463C134.066 215.389 133.199 217.149 133.586 218.985L133.797 220.282L132.744 219.44C131.994 218.792 131.06 218.438 130.1 218.438C129.283 218.438 128.491 218.682 127.741 219.154C126.764 219.769 125.88 220.821 124.869 222.565C123.859 224.316 123.379 225.605 123.337 226.759C123.337 226.851 123.328 226.936 123.337 227.02C123.345 227.719 123.497 228.367 123.775 228.94C124.196 229.807 124.92 230.49 125.855 230.885C125.905 230.911 125.956 230.928 126.015 230.944L127.337 231.458L126.402 231.82L126.015 231.972C124.28 232.62 123.261 234.229 123.337 236.166V236.174C123.362 236.781 123.505 237.421 123.783 238.145C124.036 238.802 124.398 239.526 124.886 240.352V240.36L124.895 240.369C125.922 242.087 126.798 243.122 127.733 243.729C127.792 243.771 127.851 243.805 127.91 243.838C128.617 244.259 129.358 244.47 130.125 244.47C131.068 244.47 131.961 244.142 132.71 243.518L133.797 242.651L133.586 243.956C133.435 244.714 133.485 245.455 133.721 246.129C133.746 246.205 133.78 246.289 133.814 246.365C134.193 247.258 134.908 248.016 135.894 248.504C135.936 248.521 135.97 248.546 136.012 248.563C137.014 249.035 138.336 249.245 140.265 249.245C142.269 249.245 143.617 249.018 144.636 248.504C145.705 247.974 146.455 247.123 146.8 246.129C147.036 245.455 147.086 244.714 146.935 243.956L146.724 242.651L147.836 243.535C148.594 244.15 149.495 244.47 150.438 244.47C151.247 244.47 152.039 244.234 152.788 243.771C153.757 243.165 154.641 242.12 155.652 240.369C156.654 238.642 157.134 237.37 157.201 236.242C157.243 235.534 157.134 234.861 156.89 234.246C156.805 234.069 156.721 233.884 156.62 233.715ZM150.43 241.354C150.203 241.354 149.984 241.27 149.782 241.11L142.37 235.189L143.861 244.529C143.987 245.051 143.777 245.447 143.229 245.716C142.682 245.986 141.688 246.129 140.248 246.129C139.759 246.129 139.321 246.112 138.934 246.079C138.185 246.02 137.629 245.893 137.275 245.716C136.728 245.447 136.517 245.051 136.643 244.529L137.41 239.712L138.134 235.189L130.731 241.11C130.546 241.27 130.344 241.354 130.125 241.354C130.083 241.354 130.041 241.354 129.998 241.345C129.822 241.32 129.628 241.244 129.434 241.11C128.937 240.79 128.314 240.006 127.573 238.768C126.849 237.556 126.478 236.646 126.453 236.048C126.428 235.45 126.655 235.071 127.127 234.894L134.243 232.14L135.986 231.467L128.718 228.654L127.135 228.039C126.663 227.862 126.436 227.483 126.461 226.885C126.487 226.287 126.857 225.369 127.581 224.131C128.297 222.893 128.912 222.11 129.426 221.79C129.67 221.638 129.897 221.554 130.116 221.554C130.344 221.554 130.554 221.647 130.748 221.823L138.151 227.744L136.66 218.404C136.534 217.907 136.744 217.52 137.292 217.234C137.839 216.947 138.833 216.804 140.265 216.804C141.705 216.804 142.699 216.947 143.246 217.234C143.794 217.52 144.004 217.907 143.878 218.404L143.777 219.044L142.387 227.744L145.301 225.411L149.798 221.823C150 221.647 150.211 221.562 150.438 221.562C150.657 221.562 150.885 221.647 151.121 221.807C151.55 222.101 152.081 222.75 152.712 223.761C152.797 223.895 152.881 224.03 152.965 224.173C153.681 225.386 154.06 226.296 154.102 226.893C154.144 227.491 153.908 227.87 153.411 228.047L144.594 231.475L148.518 232.999L153.42 234.903C153.917 235.08 154.144 235.459 154.11 236.057C154.102 236.183 154.077 236.326 154.043 236.486C153.9 237.059 153.546 237.842 152.982 238.81C152.266 240.048 151.651 240.823 151.154 241.135C150.885 241.287 150.649 241.354 150.43 241.354Z" fill="#575757"/>
<path d="M192.236 233.715C192.152 233.564 192.051 233.429 191.95 233.294C191.486 232.696 190.855 232.25 190.114 231.972L188.808 231.467L190.114 230.961C191.023 230.624 191.764 230.026 192.244 229.218C192.682 228.485 192.885 227.618 192.826 226.691C192.758 225.554 192.27 224.291 191.259 222.581L191.251 222.573L191.242 222.565C190.947 222.068 190.661 221.63 190.383 221.234C189.726 220.308 189.12 219.667 188.497 219.238C187.739 218.716 186.888 218.438 186.046 218.438C185.507 218.438 184.993 218.547 184.505 218.749C184.117 218.91 183.755 219.137 183.418 219.415L182.34 220.274L182.551 218.977C182.728 218.135 182.635 217.301 182.315 216.568C181.944 215.701 181.254 214.96 180.302 214.463C179.266 213.924 177.902 213.68 175.881 213.68C173.859 213.68 172.495 213.924 171.459 214.463C169.691 215.389 168.823 217.149 169.211 218.985L169.421 220.282L168.368 219.44C167.619 218.792 166.692 218.438 165.724 218.438C164.915 218.438 164.115 218.682 163.366 219.154C162.389 219.769 161.504 220.821 160.494 222.565C159.483 224.316 159.003 225.605 158.961 226.759C158.961 226.851 158.953 226.936 158.961 227.02C158.969 227.719 159.121 228.376 159.399 228.948C159.82 229.816 160.536 230.498 161.479 230.894C161.53 230.919 161.58 230.936 161.639 230.961L162.961 231.475L162.018 231.837L161.631 231.989C159.904 232.637 158.877 234.246 158.953 236.183V236.191C158.978 236.798 159.121 237.438 159.399 238.162C159.652 238.819 160.014 239.543 160.502 240.369V240.377L160.511 240.385C161.538 242.103 162.414 243.139 163.349 243.746C163.408 243.788 163.467 243.822 163.526 243.855C164.233 244.276 164.974 244.487 165.741 244.487C166.684 244.487 167.577 244.158 168.326 243.535L169.413 242.668L169.202 243.973C169.051 244.731 169.101 245.472 169.337 246.146C169.362 246.23 169.396 246.306 169.43 246.382C169.808 247.275 170.524 248.032 171.51 248.521C171.552 248.538 171.586 248.563 171.628 248.58C172.63 249.052 173.952 249.262 175.881 249.262C177.885 249.262 179.233 249.035 180.252 248.521C181.321 247.99 182.071 247.14 182.416 246.146C182.652 245.472 182.702 244.731 182.551 243.973L182.34 242.668L183.452 243.552C184.21 244.167 185.111 244.487 186.054 244.487C186.863 244.487 187.655 244.251 188.404 243.788C189.373 243.181 190.257 242.137 191.268 240.385C192.27 238.659 192.75 237.387 192.817 236.259C192.859 235.551 192.75 234.877 192.506 234.263C192.421 234.069 192.337 233.884 192.236 233.715ZM186.046 241.354C185.819 241.354 185.6 241.27 185.397 241.11L177.995 235.189L179.485 244.529C179.612 245.051 179.401 245.447 178.854 245.716C178.306 245.986 177.312 246.129 175.872 246.129C175.384 246.129 174.946 246.112 174.558 246.079C173.809 246.02 173.253 245.893 172.899 245.716C172.352 245.447 172.141 245.051 172.268 244.529L173.034 239.712L173.758 235.189L166.356 241.11C166.17 241.27 165.968 241.354 165.749 241.354C165.707 241.354 165.665 241.354 165.623 241.345C165.446 241.32 165.252 241.244 165.059 241.11C164.562 240.79 163.938 240.006 163.197 238.768C162.481 237.556 162.102 236.646 162.077 236.048C162.052 235.45 162.279 235.071 162.751 234.894L169.867 232.14L171.611 231.467L164.334 228.654L162.751 228.039C162.279 227.862 162.052 227.483 162.077 226.885C162.102 226.287 162.473 225.369 163.197 224.131C163.913 222.893 164.528 222.11 165.042 221.79C165.286 221.638 165.513 221.554 165.732 221.554C165.96 221.554 166.17 221.647 166.364 221.823L173.767 227.744L172.276 218.404C172.15 217.907 172.36 217.52 172.908 217.234C173.455 216.947 174.449 216.804 175.889 216.804C177.329 216.804 178.323 216.947 178.87 217.234C179.418 217.52 179.628 217.907 179.502 218.404L179.401 219.044L178.011 227.744L180.925 225.411L185.414 221.823C185.616 221.647 185.827 221.562 186.054 221.562C186.273 221.562 186.501 221.647 186.737 221.807C187.166 222.101 187.697 222.75 188.328 223.761C188.412 223.895 188.497 224.03 188.581 224.173C189.297 225.386 189.676 226.296 189.718 226.893C189.752 227.491 189.524 227.87 189.027 228.047L180.21 231.475L184.134 232.999L189.036 234.903C189.533 235.08 189.76 235.459 189.726 236.057C189.718 236.183 189.693 236.326 189.659 236.486C189.516 237.059 189.162 237.842 188.598 238.81C187.873 240.048 187.267 240.823 186.77 241.135C186.501 241.287 186.265 241.354 186.046 241.354Z" fill="#575757"/>
<path d="M196.574 130.513C196.271 130.101 195.934 129.705 195.563 129.334C194.561 128.332 193.374 127.557 192.093 127.06C191.386 126.791 190.653 126.597 189.904 126.488C189.601 126.446 189.289 126.412 188.977 126.395C188.8 126.387 188.615 126.378 188.43 126.378H135.473C134.976 126.378 134.488 126.412 134.008 126.479C131.868 126.791 129.898 127.776 128.34 129.326C126.436 131.229 125.384 133.764 125.384 136.459V169.743C125.384 172.438 126.436 174.973 128.34 176.876C128.71 177.246 129.106 177.583 129.519 177.887C131.237 179.15 133.3 179.832 135.473 179.832H188.43C191.125 179.832 193.66 178.779 195.563 176.876C197.467 174.973 198.519 172.438 198.519 169.743V136.459C198.519 134.295 197.837 132.223 196.574 130.513ZM131.767 175.646C129.805 174.408 128.508 172.227 128.508 169.743V136.459C128.508 132.61 131.633 129.486 135.481 129.486H188.438C190.923 129.486 193.104 130.791 194.342 132.745C195.016 133.823 195.412 135.095 195.412 136.459V169.743C195.412 173.591 192.287 176.716 188.438 176.716H135.481C134.109 176.716 132.837 176.328 131.767 175.646Z" fill="#575757"/>
<path d="M171.072 141.79C170.76 141.377 170.415 140.99 170.053 140.62C167.889 138.455 165.017 137.268 161.96 137.268C158.902 137.268 156.031 138.455 153.866 140.62C151.702 142.784 150.514 145.656 150.514 148.713C150.514 151.08 151.23 153.345 152.578 155.274C153.268 156.259 154.102 157.118 155.037 157.834C155.306 158.036 155.576 158.23 155.862 158.407V162.853C155.862 165.094 157.075 167.056 158.886 168.117C159.787 168.648 160.839 168.951 161.951 168.951C165.311 168.951 168.049 166.214 168.049 162.853V158.407C169.337 157.598 170.449 156.537 171.333 155.274C172.689 153.345 173.396 151.071 173.396 148.713C173.396 146.178 172.58 143.769 171.072 141.79ZM161.951 165.826C161.707 165.826 161.471 165.801 161.252 165.742C159.947 165.422 158.978 164.251 158.978 162.845V156.495C158.372 156.259 157.791 155.956 157.26 155.594C155.062 154.095 153.622 151.568 153.622 148.713C153.622 144.115 157.353 140.384 161.951 140.384C164.815 140.384 167.333 141.824 168.84 144.022C169.75 145.361 170.289 146.97 170.289 148.713C170.289 152.267 168.065 155.299 164.932 156.495V162.853C164.932 164.496 163.602 165.826 161.951 165.826Z" fill="#575757"/>
<path d="M187.697 108.515C186.492 105.66 184.842 103.058 182.778 100.759C182.433 100.371 182.079 100.001 181.709 99.63C179.149 97.0697 176.159 95.0569 172.824 93.642C169.379 92.185 165.716 91.4439 161.943 91.4439C158.17 91.4439 154.514 92.185 151.061 93.642C147.735 95.0485 144.745 97.0613 142.176 99.63C139.616 102.19 137.603 105.18 136.188 108.515C134.731 111.968 133.99 115.623 133.99 119.396V129.376H147.676V119.396C147.676 111.53 154.076 105.138 161.934 105.138C166.423 105.138 170.432 107.227 173.051 110.477C175.013 112.92 176.192 116.027 176.192 119.396V129.376H189.878V119.396C189.895 115.632 189.154 111.968 187.697 108.515ZM161.951 102.022C152.367 102.022 144.577 109.821 144.577 119.396V126.26H137.123V119.396C137.123 116.044 137.78 112.793 139.077 109.728C140.324 106.772 142.117 104.119 144.391 101.837C146.674 99.5542 149.327 97.7688 152.283 96.5223C155.348 95.2253 158.599 94.5684 161.951 94.5684C165.303 94.5684 168.554 95.2253 171.619 96.5223C174.575 97.7688 177.228 99.5626 179.511 101.837C179.881 102.207 180.235 102.586 180.572 102.974C182.349 104.986 183.772 107.252 184.825 109.728C186.122 112.793 186.779 116.044 186.779 119.396V126.26H179.325V119.396C179.325 115.168 177.801 111.278 175.283 108.262C172.091 104.456 167.299 102.022 161.951 102.022Z" fill="#575757"/>
<path d="M227.852 233.715C227.768 233.564 227.667 233.429 227.566 233.294C227.103 232.696 226.471 232.25 225.73 231.972L224.425 231.467L225.73 230.961C226.64 230.624 227.381 230.026 227.861 229.218C228.299 228.485 228.501 227.618 228.442 226.691C228.375 225.554 227.886 224.291 226.875 222.581L226.867 222.573L226.859 222.565C226.564 222.068 226.277 221.63 226 221.234C225.343 220.308 224.736 219.667 224.113 219.238C223.355 218.716 222.504 218.438 221.662 218.438C221.123 218.438 220.61 218.547 220.121 218.749C219.734 218.91 219.372 219.137 219.035 219.415L217.957 220.274L218.159 218.977C218.336 218.135 218.243 217.301 217.923 216.568C217.552 215.701 216.853 214.96 215.91 214.463C214.874 213.924 213.51 213.68 211.489 213.68C209.467 213.68 208.103 213.924 207.067 214.463C205.299 215.389 204.431 217.149 204.818 218.985L205.021 220.282L203.968 219.44C203.218 218.792 202.292 218.438 201.323 218.438C200.506 218.438 199.715 218.682 198.965 219.154C197.988 219.769 197.104 220.821 196.093 222.565C195.083 224.316 194.603 225.605 194.561 226.759C194.561 226.851 194.552 226.936 194.561 227.02C194.569 227.719 194.721 228.376 195.007 228.948C195.428 229.816 196.152 230.498 197.087 230.894C197.138 230.919 197.188 230.936 197.247 230.961L198.569 231.475L197.626 231.837L197.239 231.989C195.504 232.637 194.485 234.246 194.561 236.183V236.191C194.586 236.798 194.729 237.438 195.007 238.162C195.26 238.819 195.622 239.543 196.11 240.369L196.119 240.377L196.127 240.385C197.155 242.103 198.03 243.139 198.965 243.746C199.024 243.788 199.083 243.822 199.142 243.855C199.85 244.276 200.591 244.487 201.357 244.487C202.3 244.487 203.193 244.158 203.943 243.535L205.029 242.668L204.818 243.973C204.667 244.731 204.717 245.472 204.953 246.146C204.979 246.23 205.012 246.306 205.046 246.382C205.425 247.275 206.141 248.032 207.126 248.521C207.168 248.538 207.202 248.563 207.244 248.58C208.246 249.052 209.568 249.262 211.497 249.262C213.501 249.262 214.849 249.035 215.868 248.521C216.938 247.99 217.687 247.14 218.032 246.146C218.268 245.472 218.319 244.731 218.167 243.973L217.957 242.668L219.068 243.552C219.826 244.167 220.727 244.487 221.671 244.487C222.479 244.487 223.271 244.251 224.02 243.788C224.989 243.181 225.873 242.137 226.884 240.385C227.886 238.659 228.366 237.387 228.433 236.259C228.476 235.551 228.366 234.877 228.122 234.263C228.038 234.069 227.953 233.884 227.852 233.715ZM221.671 241.354C221.443 241.354 221.224 241.27 221.022 241.11L213.619 235.189L215.11 244.529C215.236 245.051 215.026 245.447 214.478 245.716C213.931 245.986 212.937 246.129 211.497 246.129C211.009 246.129 210.571 246.112 210.183 246.079C209.434 246.02 208.878 245.893 208.524 245.716C207.977 245.447 207.766 245.051 207.892 244.529L208.659 239.712L209.383 235.189L201.98 241.11C201.795 241.27 201.593 241.354 201.374 241.354C201.332 241.354 201.29 241.354 201.248 241.345C201.071 241.32 200.877 241.244 200.683 241.11C200.186 240.79 199.563 240.006 198.822 238.768C198.098 237.556 197.727 236.646 197.702 236.048C197.677 235.45 197.904 235.071 198.376 234.894L205.492 232.14L207.236 231.467L199.967 228.654L198.384 228.039C197.913 227.862 197.694 227.483 197.71 226.885C197.736 226.287 198.106 225.369 198.83 224.131C199.546 222.893 200.161 222.11 200.675 221.79C200.919 221.638 201.147 221.554 201.365 221.554C201.593 221.554 201.803 221.647 201.997 221.823L209.4 227.744L207.909 218.404C207.783 217.907 207.994 217.52 208.541 217.234C209.088 216.947 210.082 216.804 211.514 216.804C212.946 216.804 213.948 216.947 214.495 217.234C215.043 217.52 215.253 217.907 215.127 218.404L215.026 219.044L213.636 227.744L216.55 225.411L221.039 221.823C221.241 221.647 221.452 221.562 221.679 221.562C221.898 221.562 222.126 221.647 222.361 221.807C222.791 222.101 223.321 222.75 223.953 223.761C224.037 223.895 224.121 224.03 224.206 224.173C224.922 225.386 225.301 226.296 225.343 226.893C225.376 227.491 225.149 227.87 224.652 228.047L215.834 231.475L219.759 232.999L224.661 234.903C225.157 235.08 225.385 235.459 225.351 236.057C225.343 236.183 225.317 236.326 225.284 236.486C225.141 237.059 224.787 237.842 224.223 238.81C223.498 240.048 222.892 240.823 222.395 241.135C222.117 241.287 221.881 241.354 221.671 241.354Z" fill="#575757"/>
<path d="M259.628 247.696C259.628 248.555 258.929 249.254 258.07 249.254H58.0832C57.2242 249.254 56.5251 248.555 56.5251 247.696C56.5251 246.836 57.2242 246.137 58.0832 246.137H258.07C258.929 246.137 259.628 246.836 259.628 247.696Z" fill="#575757"/>
<path d="M51.6577 249.254H44.5581C43.699 249.254 43 248.555 43 247.696C43 246.836 43.699 246.137 44.5581 246.137H51.6577C52.5168 246.137 53.2158 246.836 53.2158 247.696C53.2158 248.555 52.5168 249.254 51.6577 249.254Z" fill="#575757"/>
<path d="M83.2317 241.615H76.132C75.273 241.615 74.574 240.916 74.574 240.057C74.574 239.198 75.273 238.499 76.132 238.499H83.2317C84.0907 238.499 84.7898 239.198 84.7898 240.057C84.7898 240.916 84.0907 241.615 83.2317 241.615Z" fill="#575757"/>
<path d="M69.7056 241.615H62.6059C61.7469 241.615 61.0479 240.916 61.0479 240.057C61.0479 239.198 61.7469 238.499 62.6059 238.499H69.7056C70.5646 238.499 71.2636 239.198 71.2636 240.057C71.2636 240.916 70.5646 241.615 69.7056 241.615Z" fill="#575757"/>
<path d="M240.022 241.615H232.923C232.064 241.615 231.365 240.916 231.365 240.057C231.365 239.198 232.064 238.499 232.923 238.499H240.022C240.881 238.499 241.58 239.198 241.58 240.057C241.58 240.916 240.881 241.615 240.022 241.615Z" fill="#575757"/>
<path d="M253.539 241.615H246.439C245.58 241.615 244.881 240.916 244.881 240.057C244.881 239.198 245.58 238.499 246.439 238.499H253.539C254.398 238.499 255.097 239.198 255.097 240.057C255.097 240.916 254.407 241.615 253.539 241.615Z" fill="#575757"/>
<path d="M271.596 249.254H264.497C263.637 249.254 262.938 248.555 262.938 247.696C262.938 246.836 263.637 246.137 264.497 246.137H271.596C272.455 246.137 273.154 246.836 273.154 247.696C273.154 248.555 272.455 249.254 271.596 249.254Z" fill="#575757"/>
</svg>
