<svg width="40" height="38" viewBox="0 0 40 38" fill="none" xmlns="http://www.w3.org/2000/svg">
<g filter="url(#filter0_d_554_2893)">
<path d="M35.5 14C35.5 11.5855 33.7795 9.56537 31.5 9.1008V5.51514C31.5 4.57422 31.135 3.69092 30.4722 3.02783C29.8096 2.36523 28.9265 2 27.9851 2C27.5347 2 27.0808 2.08789 26.6787 2.25146L18.3787 5.57129L19.1213 7.42871L27.4272 4.10645C27.9558 3.89062 28.6375 4.021 29.0579 4.44189C29.343 4.72705 29.5 5.1084 29.5 5.51514V9V19V20.9849C29.5 21.8203 28.8203 22.5 27.9851 22.5C27.791 22.5 27.5979 22.4634 27.4214 22.3911L16 17.8228V7H10.155C8.82056 7 7.56616 7.51953 6.62256 8.46338L6.38306 8.70264C5.78052 9.30518 5.31055 10.0063 4.98511 10.7891C4.66333 11.5713 4.5 12.3994 4.5 13.25C4.5 14.9678 5.1687 16.5825 6.38281 17.7969L7.5752 18.9894L9.36279 28.374C9.54224 29.3164 10.3684 30 11.3274 30H15.7915C16.3896 30 16.9514 29.7358 17.3325 29.2749C17.7139 28.8145 17.8682 28.2134 17.7563 27.626L16.8396 22.813L14.8748 23.187L15.7915 28H11.3276L9.70853 19.5H14.8069L26.6729 24.2461C27.0808 24.4121 27.5347 24.5 27.9851 24.5C29.9233 24.5 31.5 22.9233 31.5 20.9849V18.8992C33.7795 18.4346 35.5 16.4145 35.5 14ZM14 17.5H8.91431L7.79712 16.3828C6.96069 15.5464 6.5 14.4336 6.5 13.25C6.5 12.6616 6.61255 12.0898 6.8335 11.5537C7.0564 11.0171 7.38062 10.5337 7.79761 10.1167L8.03711 9.87695C8.60278 9.31152 9.35498 9 10.155 9H14V17.5ZM31.5 16.8286V11.1714C32.6641 11.584 33.5 12.6963 33.5 14C33.5 15.3037 32.6641 16.416 31.5 16.8286Z" fill="#CEC7BF"/>
</g>
<defs>
<filter id="filter0_d_554_2893" x="0" y="0" width="40" height="40" filterUnits="userSpaceOnUse" color-interpolation-filters="sRGB">
<feFlood flood-opacity="0" result="BackgroundImageFix"/>
<feColorMatrix in="SourceAlpha" type="matrix" values="0 0 0 0 0 0 0 0 0 0 0 0 0 0 0 0 0 0 127 0" result="hardAlpha"/>
<feOffset dy="4"/>
<feGaussianBlur stdDeviation="2"/>
<feComposite in2="hardAlpha" operator="out"/>
<feColorMatrix type="matrix" values="0 0 0 0 0 0 0 0 0 0 0 0 0 0 0 0 0 0 0.25 0"/>
<feBlend mode="normal" in2="BackgroundImageFix" result="effect1_dropShadow_554_2893"/>
<feBlend mode="normal" in="SourceGraphic" in2="effect1_dropShadow_554_2893" result="shape"/>
</filter>
</defs>
</svg>
