<svg width="25" height="24" viewBox="0 0 25 24" fill="none" xmlns="http://www.w3.org/2000/svg">
<path d="M19.8912 9.56614C19.8912 9.56614 18.3275 7.72864 16.2912 7.72864C15.232 7.72252 14.1832 7.93841 13.2125 8.36239C12.9673 8.47518 12.6882 8.48993 12.4325 8.40364C11.645 8.14864 10.13 7.70239 8.77247 7.81114C7.22372 7.93489 6.10622 9.39364 6.10622 9.39364C6.10622 9.39364 4.85372 10.8936 4.85372 13.6386C4.8342 14.862 5.05599 16.0773 5.50641 17.2149C5.95682 18.3525 6.62703 19.3902 7.47872 20.2686C7.47872 20.2686 9.18122 22.3274 10.6512 21.4349C11.2067 21.0803 11.8458 20.8784 12.5041 20.8494C13.1624 20.8205 13.8168 20.9655 14.4012 21.2699C15.1512 21.7311 16.5537 21.9111 17.4012 21.0599C18.592 19.9204 19.4811 18.5029 19.9887 16.9349C19.9887 16.9349 17.57 15.2661 17.6525 13.2186C17.735 11.1711 19.8912 9.56614 19.8912 9.56614Z" stroke="#E5DFD8" stroke-width="1.25"/>
<path d="M12.5148 7.16625C12.4289 6.18755 12.7181 5.21277 13.3239 4.43925C13.9296 3.66573 14.8066 3.15126 15.7773 3C15.7773 3 16.1111 6.76875 12.5148 7.16625Z" stroke="#E5DFD8" stroke-width="1.25"/>
</svg>
