<svg width="24" height="24" viewBox="0 0 24 24" fill="none" xmlns="http://www.w3.org/2000/svg">
<path d="M19.3912 9.56626C19.3912 9.56626 17.8275 7.72876 15.7912 7.72876C14.732 7.72265 13.6832 7.93853 12.7125 8.36251C12.4673 8.4753 12.1882 8.49006 11.9325 8.40376C11.145 8.14876 9.62997 7.70251 8.27247 7.81126C6.72372 7.93501 5.60622 9.39376 5.60622 9.39376C5.60622 9.39376 4.35372 10.8938 4.35372 13.6388C4.3342 14.8621 4.55599 16.0774 5.00641 17.215C5.45682 18.3526 6.12703 19.3903 6.97872 20.2688C6.97872 20.2688 8.68122 22.3275 10.1512 21.435C10.7067 21.0804 11.3458 20.8785 12.0041 20.8495C12.6624 20.8206 13.3168 20.9656 13.9012 21.27C14.6512 21.7313 16.0537 21.9113 16.9012 21.06C18.092 19.9205 18.9811 18.5031 19.4887 16.935C19.4887 16.935 17.07 15.2663 17.1525 13.2188C17.235 11.1713 19.3912 9.56626 19.3912 9.56626Z" stroke="white"/>
<path d="M12.0148 7.16625C11.9289 6.18755 12.2181 5.21277 12.8239 4.43925C13.4296 3.66573 14.3066 3.15126 15.2773 3C15.2773 3 15.6111 6.76875 12.0148 7.16625Z" stroke="white"/>
</svg>
