<?xml version="1.0" encoding="UTF-8"?>
<svg version="1.1" xmlns="http://www.w3.org/2000/svg" width="35" height="19">
<path d="M0 0 C4.85670173 0.41730344 7.45136075 2.8000858 10.8125 6.0625 C11.56563477 6.77116211 11.56563477 6.77116211 12.33398438 7.49414062 C13.56422789 8.65408452 14.78327065 9.82588815 16 11 C19.84142234 8.22616898 23.46545062 5.55884708 26.75 2.125 C29 0 29 0 33 0 C32.7936229 5.66993929 28.98981749 8.63764673 25.1875 12.375 C24.55779297 13.02855469 23.92808594 13.68210937 23.27929688 14.35546875 C22.66505859 14.96777344 22.05082031 15.58007812 21.41796875 16.2109375 C20.85875732 16.77087402 20.2995459 17.33081055 19.72338867 17.90771484 C18 19 18 19 16.00219727 18.86303711 C12.20120775 17.2246396 9.62261783 14.09223043 6.75 11.1875 C5.77546875 10.24293945 5.77546875 10.24293945 4.78125 9.27929688 C3.86085938 8.35793945 3.86085938 8.35793945 2.921875 7.41796875 C2.36081055 6.85875732 1.79974609 6.2995459 1.22167969 5.72338867 C0 4 0 4 0 0 Z " fill="#FFFFFF" transform="translate(1,0)"/>
</svg>
