<svg width="28" height="31" viewBox="0 0 28 31" fill="none" xmlns="http://www.w3.org/2000/svg">
<g filter="url(#filter0_d_103_441)">
<path d="M9 16.01L9.01 15.9989" stroke="white" stroke-linecap="round" stroke-linejoin="round"/>
<path d="M19 16.01L19.01 15.9989" stroke="white" stroke-linecap="round" stroke-linejoin="round"/>
<path d="M5 12H23V19C23 19.5523 22.5523 20 22 20H6C5.44772 20 5 19.5523 5 19V12Z" stroke="white" stroke-linecap="round" stroke-linejoin="round"/>
<path d="M23 8V6C23 3.79086 21.2091 2 19 2H9C6.79086 2 5 3.79086 5 6V8" stroke="white" stroke-linecap="round" stroke-linejoin="round"/>
<path d="M9 8H19" stroke="white" stroke-linecap="round" stroke-linejoin="round"/>
<path d="M6 20H10V22C10 22.5523 9.55228 23 9 23H7C6.44772 23 6 22.5523 6 22V20Z" fill="white"/>
<path d="M18 20H22V22C22 22.5523 21.5523 23 21 23H19C18.4477 23 18 22.5523 18 22V20Z" fill="white"/>
</g>
<defs>
<filter id="filter0_d_103_441" x="-2" y="0" width="32" height="32" filterUnits="userSpaceOnUse" color-interpolation-filters="sRGB">
<feFlood flood-opacity="0" result="BackgroundImageFix"/>
<feColorMatrix in="SourceAlpha" type="matrix" values="0 0 0 0 0 0 0 0 0 0 0 0 0 0 0 0 0 0 127 0" result="hardAlpha"/>
<feOffset dy="4"/>
<feGaussianBlur stdDeviation="2"/>
<feComposite in2="hardAlpha" operator="out"/>
<feColorMatrix type="matrix" values="0 0 0 0 0 0 0 0 0 0 0 0 0 0 0 0 0 0 0.25 0"/>
<feBlend mode="normal" in2="BackgroundImageFix" result="effect1_dropShadow_103_441"/>
<feBlend mode="normal" in="SourceGraphic" in2="effect1_dropShadow_103_441" result="shape"/>
</filter>
</defs>
</svg>
