<svg width="20" height="20" viewBox="0 0 20 20" fill="none" xmlns="http://www.w3.org/2000/svg">
<path d="M9.75 0.25C7.82164 0.25 5.93657 0.821828 4.33319 1.89317C2.72981 2.96451 1.48013 4.48726 0.742179 6.26884C0.00422451 8.05042 -0.188858 10.0108 0.187348 11.9021C0.563554 13.7934 1.49215 15.5307 2.85571 16.8943C4.21927 18.2579 5.95656 19.1864 7.84787 19.5627C9.73919 19.9389 11.6996 19.7458 13.4812 19.0078C15.2627 18.2699 16.7855 17.0202 17.8568 15.4168C18.9282 13.8134 19.5 11.9284 19.5 10C19.4973 7.41498 18.4692 4.93661 16.6413 3.10872C14.8134 1.28084 12.335 0.25273 9.75 0.25ZM10.5 18.2153V12.25H12.75C12.9489 12.25 13.1397 12.171 13.2803 12.0303C13.421 11.8897 13.5 11.6989 13.5 11.5C13.5 11.3011 13.421 11.1103 13.2803 10.9697C13.1397 10.829 12.9489 10.75 12.75 10.75H10.5V8.5C10.5 8.10217 10.658 7.72064 10.9393 7.43934C11.2206 7.15803 11.6022 7 12 7H13.5C13.6989 7 13.8897 6.92098 14.0303 6.78033C14.171 6.63968 14.25 6.44891 14.25 6.25C14.25 6.05109 14.171 5.86032 14.0303 5.71967C13.8897 5.57902 13.6989 5.5 13.5 5.5H12C11.2044 5.5 10.4413 5.81607 9.87868 6.37868C9.31607 6.94129 9 7.70435 9 8.5V10.75H6.75C6.55109 10.75 6.36033 10.829 6.21967 10.9697C6.07902 11.1103 6 11.3011 6 11.5C6 11.6989 6.07902 11.8897 6.21967 12.0303C6.36033 12.171 6.55109 12.25 6.75 12.25H9V18.2153C6.88575 18.0223 4.92728 17.0217 3.53198 15.4215C2.13667 13.8214 1.41195 11.7449 1.50855 9.62408C1.60515 7.50324 2.51564 5.50127 4.05064 4.0346C5.58563 2.56793 7.62696 1.74947 9.75 1.74947C11.873 1.74947 13.9144 2.56793 15.4494 4.0346C16.9844 5.50127 17.8949 7.50324 17.9915 9.62408C18.0881 11.7449 17.3633 13.8214 15.968 15.4215C14.5727 17.0217 12.6143 18.0223 10.5 18.2153Z" fill="#E5DFD8"/>
</svg>
