<svg width="24" height="24" viewBox="0 0 24 24" fill="none" xmlns="http://www.w3.org/2000/svg">
<path d="M21.375 12C21.375 10.1458 20.8252 8.33333 19.7951 6.79164C18.765 5.24995 17.3009 4.04834 15.5879 3.33873C13.8749 2.62913 11.99 2.44341 10.1714 2.80507C8.35288 3.16672 6.68241 4.05949 5.37125 5.37051C4.06009 6.68152 3.16713 8.35188 2.80527 10.1704C2.44342 11.9889 2.62892 13.8739 3.33833 15.5869C4.04774 17.3 5.2492 18.7643 6.79077 19.7945C8.33234 20.8248 10.1448 21.3748 11.999 21.375L12 21.3751L12.0011 21.375C14.4864 21.3719 16.8691 20.3832 18.6264 18.6257C20.3837 16.8681 21.3722 14.4854 21.375 12ZM12.375 20.6164V13.8751H15C15.0995 13.8751 15.1948 13.8356 15.2652 13.7653C15.3355 13.6949 15.375 13.5996 15.375 13.5001C15.375 13.4006 15.3355 13.3053 15.2652 13.2349C15.1948 13.1646 15.0995 13.1251 15 13.1251H12.375V10.5001C12.3756 10.003 12.5733 9.52639 12.9248 9.17488C13.2763 8.82337 13.7529 8.62565 14.25 8.6251H15.75C15.8495 8.6251 15.9448 8.58559 16.0152 8.51526C16.0855 8.44494 16.125 8.34955 16.125 8.2501C16.125 8.15064 16.0855 8.05526 16.0152 7.98493C15.9448 7.91461 15.8495 7.8751 15.75 7.8751H14.25C13.5541 7.87588 12.8868 8.15269 12.3947 8.6448C11.9026 9.13692 11.6258 9.80414 11.625 10.5001V13.1251H9C8.90055 13.1251 8.80517 13.1646 8.73484 13.2349C8.66451 13.3053 8.625 13.4006 8.625 13.5001C8.625 13.5996 8.66451 13.6949 8.73484 13.7653C8.80517 13.8356 8.90055 13.8751 9 13.8751H11.625V20.6164C9.37212 20.5183 7.24724 19.5419 5.70555 17.8962C4.16387 16.2505 3.32801 14.0664 3.37704 11.812C3.42608 9.55749 4.3561 7.41187 5.96788 5.83476C7.57966 4.25766 9.74499 3.37451 12 3.37451C14.255 3.37451 16.4204 4.25766 18.0321 5.83476C19.6439 7.41187 20.5739 9.55749 20.623 11.812C20.672 14.0664 19.8361 16.2505 18.2945 17.8962C16.7528 19.5419 14.6279 20.5183 12.375 20.6164Z" fill="white"/>
</svg>
