<svg width="32" height="32" viewBox="0 0 32 32" fill="none" xmlns="http://www.w3.org/2000/svg">
<path d="M24.6663 26H19.333" stroke="#CEC7BF" stroke-width="1.5" stroke-linecap="round" stroke-linejoin="round"/>
<path d="M22 28.6666V23.3333" stroke="#CEC7BF" stroke-width="1.5" stroke-linecap="round" stroke-linejoin="round"/>
<path d="M16.2135 14.4934C16.0802 14.4801 15.9202 14.4801 15.7735 14.4934C12.6001 14.3867 10.0801 11.7867 10.0801 8.58675C10.0668 5.32008 12.7201 2.66675 15.9868 2.66675C19.2535 2.66675 21.9068 5.32008 21.9068 8.58675C21.9068 11.7867 19.3735 14.3867 16.2135 14.4934Z" stroke="#CEC7BF" stroke-width="1.5" stroke-linecap="round" stroke-linejoin="round"/>
<path d="M15.9867 29.0802C13.56 29.0802 11.1467 28.4668 9.30672 27.2402C6.08005 25.0802 6.08005 21.5602 9.30672 19.4135C12.9734 16.9602 18.9867 16.9602 22.6533 19.4135" stroke="#CEC7BF" stroke-width="1.5" stroke-linecap="round" stroke-linejoin="round"/>
</svg>
