<svg width="19" height="18" viewBox="0 0 19 18" fill="none" xmlns="http://www.w3.org/2000/svg">
<path fill-rule="evenodd" clip-rule="evenodd" d="M9.5 2C5.63401 2 2.5 5.13401 2.5 9C2.5 12.866 5.63401 16 9.5 16C13.0265 16 15.9439 13.3923 16.4291 10H10.5C9.9477 10 9.5 9.5523 9.5 9C9.5 8.4477 9.9477 8 10.5 8H17.5C18.0523 8 18.5 8.4477 18.5 9C18.5 13.9706 14.4706 18 9.5 18C4.52944 18 0.5 13.9706 0.5 9C0.5 4.02944 4.52944 0 9.5 0C11.6424 0 13.6123 0.74979 15.1578 2.00041C15.5871 2.34782 15.6535 2.97749 15.3061 3.40682C14.9587 3.83615 14.329 3.90256 13.8997 3.55515C12.6972 2.58212 11.168 2 9.5 2Z" fill="#E5DFD8"/>
</svg>
