<svg width="100" height="100" viewBox="0 0 100 100" fill="none" xmlns="http://www.w3.org/2000/svg">
<path d="M41.9584 11.7503L13.0834 34.8753C9.83344 37.4586 7.75011 42.9171 8.45844 47.0004L14.0001 80.1671C15.0001 86.0837 20.6668 90.8754 26.6668 90.8754H73.3334C79.2917 90.8754 85 86.0421 86 80.1671L91.5417 47.0004C92.2083 42.9171 90.125 37.4586 86.9167 34.8753L58.0417 11.7921C53.5834 8.20872 46.375 8.20868 41.9584 11.7503Z" stroke="white" stroke-width="5" stroke-linecap="round" stroke-linejoin="round"/>
<path d="M50 64.5833C55.7529 64.5833 60.4166 59.9196 60.4166 54.1667C60.4166 48.4137 55.7529 43.75 50 43.75C44.2471 43.75 39.5833 48.4137 39.5833 54.1667C39.5833 59.9196 44.2471 64.5833 50 64.5833Z" stroke="white" stroke-width="5" stroke-linecap="round" stroke-linejoin="round"/>
</svg>
