<svg width="24" height="24" viewBox="0 0 24 24" fill="none" xmlns="http://www.w3.org/2000/svg">
<path d="M11.9179 22.7798C16.4573 20.4685 20 16.6408 20 11.9869C20 7.02356 15.9706 3 11 3C6.02943 3 2 7.02356 2 11.9869C2 16.6408 5.54273 20.4685 10.0821 22.7798C10.6589 23.0734 11.3411 23.0734 11.9179 22.7798Z" stroke="white" stroke-linecap="round" stroke-linejoin="round"/>
<path d="M14 12C14 13.6569 12.6569 15 11 15C9.3431 15 8 13.6569 8 12C8 10.3432 9.3431 9 11 9C12.6569 9 14 10.3432 14 12Z" stroke="white" stroke-linecap="round" stroke-linejoin="round"/>
</svg>
