<svg width="24" height="25" viewBox="0 0 24 25" fill="none" xmlns="http://www.w3.org/2000/svg">
<path d="M19.38 14.4235C19.5768 14.6205 19.7329 14.8544 19.8392 15.1118C19.9456 15.3691 20.0002 15.645 20 15.9235C20 16.4857 19.7766 17.0249 19.3791 17.4225C18.9815 17.8201 18.4423 18.0435 17.88 18.0435H6.12C5.55774 18.0435 5.01851 17.8201 4.62093 17.4225C4.22336 17.0249 4 16.4857 4 15.9235C3.99976 15.645 4.05438 15.3691 4.16077 15.1118C4.26715 14.8544 4.4232 14.6205 4.62 14.4235L6 13.0435V9.04346C6 7.45216 6.63214 5.92603 7.75736 4.80082C8.88258 3.6756 10.4087 3.04346 12 3.04346C13.5913 3.04346 15.1174 3.6756 16.2426 4.80082C17.3679 5.92603 18 7.45216 18 9.04346V13.0435L19.38 14.4235ZM15 18.0435H9C9 18.8391 9.31607 19.6022 9.87868 20.1648C10.4413 20.7274 11.2044 21.0435 12 21.0435C12.7957 21.0435 13.5587 20.7274 14.1213 20.1648C14.6839 19.6022 15 18.8391 15 18.0435Z" stroke="#CEC7BF" stroke-linecap="round" stroke-linejoin="round"/>
</svg>
