<svg width="20" height="20" viewBox="0 0 20 20" fill="none" xmlns="http://www.w3.org/2000/svg">
<path d="M13.6009 16.3297C13.5338 16.3295 13.469 16.3054 13.4182 16.2617C13.3673 16.218 13.3338 16.1575 13.3236 16.0912C13.3134 16.0249 13.3272 15.9572 13.3626 15.9002C13.398 15.8432 13.4526 15.8008 13.5166 15.7806L14.5567 15.4545C14.5922 15.4419 14.63 15.4367 14.6676 15.439C14.7053 15.4414 14.7421 15.4513 14.7758 15.4681C14.8095 15.485 14.8395 15.5085 14.864 15.5372C14.8885 15.5659 14.9069 15.5992 14.9183 15.6352C14.9296 15.6712 14.9335 15.7091 14.9299 15.7466C14.9263 15.7842 14.9151 15.8206 14.8971 15.8537C14.8791 15.8869 14.8547 15.9161 14.8251 15.9396C14.7956 15.9631 14.7617 15.9804 14.7253 15.9904L13.6852 16.3165C13.658 16.3255 13.6295 16.3299 13.6009 16.3297Z" fill="#E5DFD8"/>
<path d="M9.92564 17.4694C9.88909 17.4704 9.8527 17.464 9.81863 17.4507C9.78457 17.4374 9.75351 17.4174 9.72731 17.3919C9.7011 17.3664 9.68027 17.3359 9.66605 17.3022C9.65184 17.2685 9.64452 17.2323 9.64453 17.1957V8.05213C9.64427 7.99227 9.66326 7.93391 9.69869 7.88566C9.73412 7.8374 9.78412 7.80181 9.84131 7.78414L16.9403 5.57086C16.9825 5.55779 17.0271 5.55471 17.0707 5.56187C17.1143 5.56902 17.1556 5.58622 17.1914 5.61209C17.2268 5.63837 17.2556 5.67255 17.2755 5.71192C17.2953 5.75129 17.3057 5.79476 17.3057 5.83885V11.1931C17.3057 11.2676 17.2761 11.3391 17.2234 11.3919C17.1707 11.4446 17.0992 11.4742 17.0246 11.4742C16.9501 11.4742 16.8786 11.4446 16.8259 11.3919C16.7731 11.3391 16.7435 11.2676 16.7435 11.1931V6.22116L10.2143 8.2639V17.1807C10.2145 17.2187 10.2072 17.2564 10.1928 17.2915C10.1784 17.3266 10.1571 17.3585 10.1303 17.3854C10.1034 17.4122 10.0715 17.4335 10.0364 17.4479C10.0013 17.4623 9.96361 17.4696 9.92564 17.4694Z" fill="#E5DFD8"/>
<path d="M9.92608 17.4765C9.85901 17.4764 9.7942 17.4523 9.74335 17.4086C9.69249 17.3649 9.65895 17.3044 9.64877 17.2381C9.63859 17.1718 9.65244 17.1041 9.68783 17.0471C9.72322 16.9901 9.77781 16.9477 9.84175 16.9274L13.5093 15.7805C13.5451 15.7671 13.5833 15.7612 13.6215 15.763C13.6597 15.7649 13.6971 15.7745 13.7315 15.7914C13.7658 15.8082 13.7964 15.8319 13.8212 15.8609C13.8461 15.8899 13.8648 15.9238 13.8762 15.9603C13.8875 15.9968 13.8913 16.0352 13.8873 16.0733C13.8833 16.1113 13.8716 16.1481 13.8529 16.1815C13.8341 16.2148 13.8088 16.244 13.7784 16.2672C13.748 16.2904 13.7132 16.3072 13.6761 16.3165L10.0179 17.4634C9.98831 17.4732 9.95723 17.4776 9.92608 17.4765Z" fill="#E5DFD8"/>
<path d="M11.0501 15.7899C10.983 15.7898 10.9182 15.7657 10.8674 15.7219C10.8165 15.6782 10.783 15.6178 10.7728 15.5515C10.7626 15.4852 10.7765 15.4174 10.8119 15.3605C10.8472 15.3035 10.9018 15.261 10.9658 15.2408L13.5576 14.4237C13.5932 14.4112 13.6309 14.4059 13.6686 14.4083C13.7062 14.4106 13.743 14.4205 13.7768 14.4374C13.8105 14.4542 13.8405 14.4777 13.865 14.5064C13.8894 14.5351 13.9079 14.5685 13.9192 14.6044C13.9305 14.6404 13.9345 14.6783 13.9309 14.7159C13.9272 14.7534 13.9161 14.7898 13.8981 14.823C13.8801 14.8561 13.8556 14.8853 13.8261 14.9088C13.7966 14.9323 13.7626 14.9496 13.7263 14.9597L11.1419 15.7768C11.1123 15.7865 11.0812 15.791 11.0501 15.7899Z" fill="#E5DFD8"/>
<path d="M11.0501 14.478C10.983 14.4779 10.9182 14.4538 10.8674 14.4101C10.8165 14.3663 10.783 14.3059 10.7728 14.2396C10.7626 14.1733 10.7765 14.1056 10.8119 14.0486C10.8472 13.9916 10.9018 13.9492 10.9658 13.9289L12.9392 13.3124C13.0102 13.2895 13.0875 13.2958 13.1539 13.3299C13.2203 13.364 13.2705 13.4231 13.2934 13.4941C13.3162 13.5652 13.3099 13.6425 13.2758 13.7089C13.2417 13.7753 13.1827 13.8255 13.1116 13.8483L11.1419 14.4649C11.1123 14.4747 11.0812 14.4791 11.0501 14.478Z" fill="#E5DFD8"/>
<path d="M9.92616 17.4616C9.89813 17.462 9.87024 17.4575 9.8437 17.4485L2.74846 15.2296C2.69091 15.2122 2.6405 15.1768 2.60471 15.1285C2.56893 15.0802 2.54967 15.0217 2.54981 14.9616V5.82361C2.54981 5.74906 2.57942 5.67755 2.63214 5.62484C2.68486 5.57212 2.75636 5.5425 2.83092 5.5425C2.86018 5.54214 2.8893 5.54657 2.91712 5.55562L4.8418 6.15532C4.89883 6.17387 4.94855 6.20994 4.98389 6.25839C5.01922 6.30685 5.03836 6.36522 5.03858 6.42519V10.2895C5.06074 10.3256 5.07475 10.3661 5.0796 10.4082C5.08446 10.4503 5.08005 10.493 5.06669 10.5332C5.04124 10.6033 4.98929 10.6606 4.922 10.6929C4.85472 10.7251 4.77747 10.7297 4.70686 10.7056L4.66376 10.6906C4.60893 10.6709 4.56151 10.6348 4.52797 10.5872C4.49443 10.5395 4.4764 10.4827 4.47635 10.4245V6.63134L3.11203 6.20405V14.7554L9.65255 16.7982V8.24866L8.12143 7.77077V11.4252C8.12143 11.4998 8.09181 11.5713 8.03909 11.624C7.98637 11.6767 7.91487 11.7063 7.84032 11.7063C7.76576 11.7063 7.69426 11.6767 7.64154 11.624C7.58882 11.5713 7.55921 11.4998 7.55921 11.4252V7.38846C7.55843 7.34408 7.56818 7.30015 7.58766 7.26026C7.60713 7.22037 7.63577 7.18566 7.67124 7.15897C7.7067 7.13228 7.74799 7.11437 7.79171 7.1067C7.83543 7.09903 7.88034 7.10182 7.92278 7.11485L10.018 7.77077C10.0736 7.78983 10.1217 7.82605 10.1554 7.87421C10.1891 7.92238 10.2066 7.98 10.2054 8.03877V17.1805C10.2058 17.2247 10.1956 17.2683 10.1757 17.3077C10.1558 17.3472 10.1268 17.3813 10.0911 17.4073C10.0432 17.4423 9.98549 17.4614 9.92616 17.4616Z" fill="#E5DFD8"/>
<path d="M7.84047 11.7121C7.76591 11.7121 7.69441 11.6824 7.64169 11.6297C7.58897 11.577 7.55936 11.5055 7.55936 11.431V7.42606C7.55223 7.38344 7.55545 7.33974 7.56873 7.29862C7.57921 7.26296 7.59671 7.22975 7.62019 7.20095C7.64368 7.17214 7.67268 7.14831 7.70549 7.13085C7.73831 7.1134 7.77428 7.10267 7.81129 7.0993C7.84831 7.09592 7.88562 7.09998 7.92105 7.11121C7.97848 7.12961 8.0287 7.16553 8.06467 7.21393C8.10064 7.26233 8.12054 7.32079 8.12158 7.38108V11.4253C8.12233 11.4627 8.11561 11.4999 8.10182 11.5346C8.08802 11.5694 8.06744 11.6011 8.04126 11.6278C8.01508 11.6545 7.98384 11.6757 7.94936 11.6901C7.91488 11.7046 7.87786 11.7121 7.84047 11.7121Z" fill="#E5DFD8"/>
<path d="M4.80078 10.7205C4.76898 10.7201 4.73741 10.7151 4.70707 10.7055L4.66397 10.6905C4.60914 10.6709 4.56172 10.6348 4.52818 10.5871C4.49464 10.5395 4.47661 10.4827 4.47656 10.4244V6.42515C4.47656 6.3506 4.50618 6.2791 4.5589 6.22638C4.61162 6.17366 4.68312 6.14404 4.75767 6.14404C4.83223 6.14404 4.90373 6.17366 4.95645 6.22638C5.00917 6.2791 5.03878 6.3506 5.03878 6.42515V10.2895C5.06095 10.3256 5.07496 10.3661 5.07981 10.4082C5.08467 10.4503 5.08026 10.4929 5.0669 10.5331C5.04699 10.5878 5.01082 10.6351 4.96324 10.6686C4.91566 10.7021 4.85897 10.7202 4.80078 10.7205Z" fill="#E5DFD8"/>
<path d="M9.92589 8.33134C9.88946 8.3311 9.85344 8.32368 9.81989 8.30952C9.78633 8.29535 9.75589 8.27471 9.73031 8.24878C9.70473 8.22285 9.6845 8.19214 9.67079 8.15839C9.65708 8.12465 9.65015 8.08853 9.6504 8.05211C9.6504 7.97755 9.68001 7.90605 9.73273 7.85333C9.78545 7.80061 9.85695 7.771 9.93151 7.771C10.0061 7.771 10.0776 7.80061 10.1303 7.85333C10.183 7.90605 10.2126 7.97755 10.2126 8.05211C10.2111 8.127 10.1802 8.1983 10.1266 8.25057C10.0729 8.30283 10.0008 8.33185 9.92589 8.33134Z" fill="#E5DFD8"/>
<path d="M2.83433 6.10302C2.76966 6.10268 2.70709 6.08006 2.65716 6.03896C2.60722 5.99786 2.57299 5.94081 2.56022 5.87741C2.54745 5.81401 2.55693 5.74815 2.58707 5.69093C2.6172 5.63371 2.66614 5.58863 2.72564 5.56329L9.84712 2.5985C9.91596 2.56967 9.99343 2.56937 10.0625 2.59766C10.1316 2.62596 10.1865 2.68052 10.2154 2.74936C10.2442 2.8182 10.2445 2.89568 10.2162 2.96474C10.1879 3.0338 10.1333 3.08879 10.0645 3.11762L2.94303 6.0824C2.90861 6.09671 2.8716 6.10373 2.83433 6.10302Z" fill="#E5DFD8"/>
<path d="M4.98194 6.71212C4.91885 6.71072 4.85805 6.68814 4.80935 6.648C4.76065 6.60786 4.72687 6.5525 4.71346 6.49083C4.70004 6.42916 4.70777 6.36477 4.73539 6.30802C4.76302 6.25128 4.80893 6.20548 4.86575 6.178L8.08353 4.83992C8.15199 4.81329 8.22816 4.81452 8.29572 4.84334C8.36329 4.87216 8.41689 4.92628 8.44505 4.99412C8.47322 5.06197 8.47371 5.13814 8.44642 5.20633C8.41914 5.27453 8.36624 5.32934 8.29905 5.35903L5.08877 6.68963C5.05503 6.70422 5.0187 6.71187 4.98194 6.71212Z" fill="#E5DFD8"/>
<path d="M7.83291 7.66567C7.77708 7.66575 7.72253 7.64898 7.67638 7.61755C7.63024 7.58612 7.59466 7.54149 7.57429 7.48951C7.55892 7.45514 7.55061 7.41803 7.54986 7.38038C7.54911 7.34274 7.55593 7.30533 7.56991 7.27037C7.58389 7.23541 7.60476 7.20361 7.63127 7.17687C7.65777 7.15013 7.68938 7.12899 7.72421 7.1147L10.5578 5.9359C10.6267 5.90707 10.7041 5.90677 10.7732 5.93507C10.8422 5.96336 10.8972 6.01793 10.9261 6.08677C10.9549 6.15561 10.9552 6.23308 10.9269 6.30214C10.8986 6.3712 10.844 6.42619 10.7752 6.45502L7.94161 7.64506C7.90711 7.65911 7.87016 7.66612 7.83291 7.66567Z" fill="#E5DFD8"/>
<path d="M12.1283 4.05258C12.0909 4.05234 12.0539 4.04469 12.0196 4.03009L9.855 3.11555C9.81869 3.10295 9.78535 3.08305 9.75704 3.05706C9.72873 3.03107 9.70605 2.99956 9.69039 2.96446C9.67474 2.92936 9.66645 2.89143 9.66603 2.853C9.66562 2.81457 9.67308 2.77647 9.68797 2.74104C9.70286 2.70561 9.72486 2.67361 9.7526 2.64702C9.78035 2.62043 9.81325 2.5998 9.84928 2.58643C9.8853 2.57305 9.92369 2.5672 9.96207 2.56924C10.0004 2.57129 10.038 2.58118 10.0724 2.5983L12.2388 3.51285C12.2737 3.52714 12.3053 3.54828 12.3318 3.57503C12.3583 3.60177 12.3791 3.63356 12.3931 3.66852C12.4071 3.70348 12.4139 3.74089 12.4132 3.77854C12.4124 3.81618 12.4041 3.85329 12.3887 3.88766C12.3657 3.93725 12.3289 3.97917 12.2827 4.00841C12.2366 4.03765 12.1829 4.05299 12.1283 4.05258Z" fill="#E5DFD8"/>
<path d="M17.0269 6.11965C16.9896 6.11941 16.9526 6.11176 16.9182 6.09716L12.0194 4.03568C11.984 4.02228 11.9517 4.00187 11.9244 3.97568C11.8971 3.94949 11.8754 3.91806 11.8605 3.88327C11.8456 3.84848 11.8379 3.81105 11.8379 3.77321C11.8378 3.73538 11.8454 3.69793 11.8602 3.66309C11.875 3.62826 11.8966 3.59677 11.9238 3.5705C11.9511 3.54423 11.9833 3.52373 12.0186 3.51023C12.054 3.49672 12.0917 3.49048 12.1295 3.49189C12.1673 3.49331 12.2044 3.50233 12.2387 3.51844L17.1375 5.57992C17.1971 5.60533 17.2462 5.65057 17.2763 5.70798C17.3064 5.76539 17.3157 5.83145 17.3027 5.89496C17.2897 5.95847 17.2551 6.01553 17.2049 6.05648C17.1546 6.09743 17.0917 6.11974 17.0269 6.11965Z" fill="#E5DFD8"/>
<path d="M7.84058 11.7122C7.79308 11.7121 7.74639 11.7 7.70479 11.6771C7.6632 11.6541 7.62804 11.6211 7.60257 11.581L6.10331 9.22907C6.06575 9.16625 6.05417 9.09125 6.07105 9.02002C6.08792 8.94879 6.13191 8.88696 6.19367 8.84766C6.25542 8.80836 6.33007 8.7947 6.40174 8.80958C6.47341 8.82446 6.53645 8.86671 6.57745 8.92735L8.07671 11.2793C8.1033 11.3219 8.1181 11.3707 8.11958 11.4209C8.12106 11.4711 8.10918 11.5207 8.08515 11.5648C8.06112 11.6088 8.02581 11.6457 7.98283 11.6716C7.93985 11.6975 7.89075 11.7115 7.84058 11.7122Z" fill="#E5DFD8"/>
<path d="M4.80005 10.7206C4.76023 10.7208 4.72085 10.7123 4.68462 10.6958C4.64838 10.6793 4.61615 10.6552 4.59015 10.625C4.56567 10.5975 4.54688 10.5654 4.53485 10.5306C4.52282 10.4958 4.5178 10.459 4.52006 10.4222C4.52232 10.3855 4.53184 10.3496 4.54805 10.3165C4.56426 10.2834 4.58685 10.2539 4.61451 10.2296L6.15313 8.86715C6.20904 8.81745 6.28242 8.79199 6.3571 8.79639C6.43178 8.80078 6.50167 8.83466 6.55137 8.89058C6.60107 8.94649 6.62653 9.01986 6.62213 9.09455C6.61774 9.16923 6.58386 9.23911 6.52794 9.28882L4.98933 10.6494C4.93775 10.6966 4.86995 10.7221 4.80005 10.7206Z" fill="#E5DFD8"/>
<path d="M10.6757 6.48727C10.6357 6.48751 10.5961 6.47921 10.5595 6.46291L8.08951 5.35158C8.02621 5.31822 7.97801 5.26198 7.95473 5.19431C7.93146 5.12665 7.93487 5.05265 7.96427 4.98741C7.99366 4.92217 8.04683 4.8706 8.11293 4.8432C8.17903 4.8158 8.25309 4.81464 8.32002 4.83996L10.7826 5.94941C10.8408 5.97533 10.8885 6.0203 10.9179 6.07692C10.9472 6.13354 10.9565 6.19846 10.944 6.26102C10.9316 6.32357 10.8983 6.38004 10.8495 6.42116C10.8008 6.46227 10.7395 6.48558 10.6757 6.48727Z" fill="#E5DFD8"/>
<path d="M15.9003 16.3355C15.3384 16.337 14.7887 16.1718 14.3207 15.8609C13.8526 15.5499 13.4873 15.1071 13.2709 14.5886C13.0545 14.07 12.9967 13.4989 13.1049 12.9475C13.2131 12.3961 13.4823 11.8891 13.8786 11.4908C14.2749 11.0924 14.7804 10.8205 15.3312 10.7094C15.8821 10.5983 16.4535 10.6531 16.9732 10.8667C17.4929 11.0804 17.9375 11.4434 18.251 11.9098C18.5644 12.3761 18.7325 12.925 18.7339 13.4869C18.7349 14.2401 18.4372 14.963 17.906 15.497C17.3748 16.031 16.6535 16.3325 15.9003 16.3355ZM15.9003 11.2155C15.449 11.2141 15.0074 11.3466 14.6315 11.5965C14.2555 11.8463 13.9623 12.2021 13.7889 12.6189C13.6155 13.0356 13.5697 13.4944 13.6574 13.9371C13.7451 14.3799 13.9623 14.7866 14.2814 15.1058C14.6006 15.425 15.0074 15.6422 15.4501 15.7298C15.8929 15.8175 16.3517 15.7718 16.7684 15.5984C17.1851 15.425 17.5409 15.1317 17.7908 14.7558C18.0406 14.3799 18.1732 13.9383 18.1717 13.4869C18.1693 12.8853 17.9292 12.309 17.5037 11.8835C17.0783 11.4581 16.502 11.218 15.9003 11.2155Z" fill="#E5DFD8"/>
<path d="M15.6024 14.6897C15.5279 14.6906 15.4559 14.6623 15.4019 14.611L14.4124 13.6178C14.3627 13.5645 14.3357 13.494 14.337 13.4212C14.3382 13.3483 14.3677 13.2789 14.4192 13.2274C14.4708 13.1758 14.5402 13.1463 14.6131 13.1451C14.6859 13.1438 14.7564 13.1708 14.8097 13.2205L15.801 14.2137C15.8532 14.2667 15.8825 14.338 15.8825 14.4124C15.8825 14.4867 15.8532 14.5581 15.801 14.611C15.7474 14.6619 15.6763 14.6901 15.6024 14.6897Z" fill="#E5DFD8"/>
<path d="M15.6024 14.6898C15.5468 14.6892 15.4927 14.6723 15.4467 14.6412C15.4007 14.61 15.3648 14.5661 15.3436 14.5147C15.3225 14.4633 15.3169 14.4069 15.3275 14.3524C15.3382 14.2979 15.3647 14.2477 15.4037 14.2081L17.0735 12.5383C17.1268 12.4887 17.1973 12.4616 17.2701 12.4629C17.343 12.4642 17.4124 12.4937 17.4639 12.5452C17.5154 12.5967 17.5449 12.6662 17.5462 12.739C17.5475 12.8119 17.5205 12.8824 17.4708 12.9356L15.801 14.6111C15.7474 14.6619 15.6763 14.6901 15.6024 14.6898Z" fill="#E5DFD8"/>
</svg>
