<svg width="24" height="24" viewBox="0 0 24 24" fill="none" xmlns="http://www.w3.org/2000/svg">
<g clip-path="url(#clip0_1300_6433)">
<path d="M22.122 1.02466H1.87809C0.842484 1.02466 0 1.86714 0 2.90275V6.235C0 7.27052 0.842484 8.1131 1.87809 8.1131H4.11159V22.4972C4.11159 22.7612 4.32567 22.9752 4.58967 22.9752H19.4104C19.6744 22.9752 19.8885 22.7612 19.8885 22.4971V8.1131H22.122C23.1575 8.1131 24 7.27056 24 6.235V2.90275C24 1.86714 23.1575 1.02466 22.122 1.02466ZM5.06775 22.019V20.0657L7.02108 22.019H5.06775ZM18.9323 22.019H16.9789L18.9323 20.0657V22.019ZM18.9323 18.7134L15.6266 22.019H8.37338L5.06775 18.7135V5.04691H9.28603C8.19122 5.87214 7.48209 7.183 7.48209 8.65647C7.48209 11.1476 9.50883 13.1744 12 13.1744C14.4912 13.1744 16.518 11.1476 16.518 8.65647C16.518 7.183 15.8088 5.87214 14.714 5.04691H18.9323V18.7134H18.9323ZM12 5.09472C13.9639 5.09472 15.5618 6.69255 15.5618 8.65647C15.5618 10.6204 13.9639 12.2182 12 12.2182C10.0361 12.2182 8.43825 10.6204 8.43825 8.65647C8.43825 6.6925 10.0361 5.09472 12 5.09472ZM22.122 7.15694H19.8885V4.99919H21.0837C21.3477 4.99919 21.5618 4.78516 21.5618 4.52111C21.5618 4.25706 21.3477 4.04303 21.0837 4.04303H2.91633C2.65233 4.04303 2.43825 4.25706 2.43825 4.52111C2.43825 4.78516 2.65233 4.99919 2.91633 4.99919H4.11155V7.15694H1.87809C1.36973 7.15694 0.956203 6.74336 0.956203 6.23505V2.90275C0.956203 2.39439 1.36973 1.98086 1.87809 1.98086H22.122C22.6303 1.98086 23.0438 2.39439 23.0438 2.90275V6.235C23.0438 6.74336 22.6303 7.15694 22.122 7.15694Z" fill="white" stroke="white" stroke-width="0.00256"/>
<path d="M14.5446 8.43095H14.3659C14.2828 7.79252 13.9317 7.19233 13.1209 7.19233C12.3036 7.19233 12.0546 7.84994 11.8375 8.43095H10.567C10.6309 7.86911 11.0459 7.67758 11.0459 7.43496C11.0459 7.23705 10.7778 7.07739 10.599 7.07739C10.2414 7.07739 9.82643 7.65836 9.80726 8.43095H9.62853C9.54551 8.43095 9.46887 8.52672 9.46887 8.64803C9.46878 8.7566 9.54537 8.86516 9.62843 8.86516H9.82634C9.94123 9.58024 10.3946 10.0719 11.1799 10.0719C12.0482 10.0719 12.3356 9.43342 12.5462 8.86516H13.6699C13.638 9.29289 13.4337 9.43975 13.4337 9.61853C13.4337 9.85474 13.7274 9.95692 13.8742 9.95692C14.2445 9.95692 14.3659 9.28019 14.3787 8.86516H14.5446C14.6277 8.86516 14.7043 8.7566 14.7043 8.64808C14.7043 8.52672 14.6277 8.43095 14.5446 8.43095ZM11.0969 9.29299C10.7968 9.29299 10.6309 9.09508 10.5734 8.81411H11.6843C11.563 9.08861 11.4097 9.29299 11.0969 9.29299ZM12.6867 8.48214C12.8015 8.18842 12.9229 7.97135 13.2038 7.97135C13.4464 7.97135 13.5996 8.16288 13.6507 8.48214H12.6867Z" fill="white" stroke="white" stroke-width="0.00256"/>
<path d="M13.243 18.7203C12.979 18.7203 12.765 18.9343 12.765 19.1984V19.6764C12.765 19.9405 12.979 20.1545 13.243 20.1545C13.507 20.1545 13.7211 19.9405 13.7211 19.6764V19.1984C13.7211 18.9343 13.507 18.7203 13.243 18.7203Z" fill="white" stroke="white" stroke-width="0.00256"/>
<path d="M13.243 14.7999C12.979 14.7999 12.765 15.014 12.765 15.278V17.286C12.765 17.55 12.979 17.7641 13.243 17.7641C13.507 17.7641 13.7211 17.55 13.7211 17.286V15.278C13.7211 15.014 13.507 14.7999 13.243 14.7999Z" fill="white" stroke="white" stroke-width="0.00256"/>
<path d="M10.7569 14.7999C10.4929 14.7999 10.2789 15.014 10.2789 15.278V19.6764C10.2789 19.9405 10.4929 20.1545 10.7569 20.1545C11.0209 20.1545 11.235 19.9405 11.235 19.6764V15.278C11.235 15.014 11.0209 14.7999 10.7569 14.7999Z" fill="white" stroke="white" stroke-width="0.00256"/>
</g>
<defs>
<clipPath id="clip0_1300_6433">
<rect width="24" height="24" fill="white"/>
</clipPath>
</defs>
</svg>
