<svg width="34" height="39" viewBox="0 0 34 39" fill="none" xmlns="http://www.w3.org/2000/svg">
<g filter="url(#filter0_d_554_2883)">
<path d="M10.333 21.3466L10.3463 21.3318" stroke="#CEC7BF" stroke-width="1.5" stroke-linecap="round" stroke-linejoin="round"/>
<path d="M23.667 21.3466L23.6803 21.3318" stroke="#CEC7BF" stroke-width="1.5" stroke-linecap="round" stroke-linejoin="round"/>
<path d="M5 16H29V25.3333C29 26.0697 28.4031 26.6667 27.6667 26.6667H6.33333C5.59696 26.6667 5 26.0697 5 25.3333V16Z" stroke="#CEC7BF" stroke-width="1.5" stroke-linecap="round" stroke-linejoin="round"/>
<path d="M29 10.6667V8.00008C29 5.05456 26.6121 2.66675 23.6667 2.66675H10.3333C7.38781 2.66675 5 5.05456 5 8.00008V10.6667" stroke="#CEC7BF" stroke-width="1.5" stroke-linecap="round" stroke-linejoin="round"/>
<path d="M10.333 10.6667H23.6663" stroke="#CEC7BF" stroke-width="1.5" stroke-linecap="round" stroke-linejoin="round"/>
<path d="M6.33301 26.6667H11.6663V29.3334C11.6663 30.0698 11.0694 30.6667 10.333 30.6667H7.66634C6.92997 30.6667 6.33301 30.0698 6.33301 29.3334V26.6667Z" fill="#CEC7BF"/>
<path d="M22.333 26.6667H27.6663V29.3334C27.6663 30.0698 27.0694 30.6667 26.333 30.6667H23.6663C22.9299 30.6667 22.333 30.0698 22.333 29.3334V26.6667Z" fill="#CEC7BF"/>
</g>
<defs>
<filter id="filter0_d_554_2883" x="-3" y="0" width="40" height="40" filterUnits="userSpaceOnUse" color-interpolation-filters="sRGB">
<feFlood flood-opacity="0" result="BackgroundImageFix"/>
<feColorMatrix in="SourceAlpha" type="matrix" values="0 0 0 0 0 0 0 0 0 0 0 0 0 0 0 0 0 0 127 0" result="hardAlpha"/>
<feOffset dy="4"/>
<feGaussianBlur stdDeviation="2"/>
<feComposite in2="hardAlpha" operator="out"/>
<feColorMatrix type="matrix" values="0 0 0 0 0 0 0 0 0 0 0 0 0 0 0 0 0 0 0.25 0"/>
<feBlend mode="normal" in2="BackgroundImageFix" result="effect1_dropShadow_554_2883"/>
<feBlend mode="normal" in="SourceGraphic" in2="effect1_dropShadow_554_2883" result="shape"/>
</filter>
</defs>
</svg>
