<svg width="24" height="24" viewBox="0 0 24 24" fill="none" xmlns="http://www.w3.org/2000/svg">
<path d="M16.6999 18.98H7.29989C6.87989 18.98 6.40989 18.65 6.26989 18.25L2.12989 6.66999C1.53989 5.00999 2.22989 4.49999 3.64989 5.51999L7.54989 8.30998C8.19989 8.75998 8.93989 8.52999 9.21989 7.79999L10.9799 3.10999C11.5399 1.60999 12.4699 1.60999 13.0299 3.10999L14.7899 7.79999C15.0699 8.52999 15.8099 8.75998 16.4499 8.30998L20.1099 5.69998C21.6699 4.57998 22.4199 5.14999 21.7799 6.95999L17.7399 18.27C17.5899 18.65 17.1199 18.98 16.6999 18.98Z" stroke="white" stroke-linecap="round" stroke-linejoin="round"/>
<path d="M6.49988 22H17.4999" stroke="white" stroke-linecap="round" stroke-linejoin="round"/>
<path d="M9.49988 14H14.4999" stroke="white" stroke-linecap="round" stroke-linejoin="round"/>
</svg>
