<svg width="32" height="32" viewBox="0 0 32 32" fill="none" xmlns="http://www.w3.org/2000/svg">
<path d="M6.66699 13.3334H9.33366C12.0003 13.3334 13.3337 12.0001 13.3337 9.33341V6.66675C13.3337 4.00008 12.0003 2.66675 9.33366 2.66675H6.66699C4.00033 2.66675 2.66699 4.00008 2.66699 6.66675V9.33341C2.66699 12.0001 4.00033 13.3334 6.66699 13.3334Z" stroke="#CEC7BF" stroke-width="1.5" stroke-miterlimit="10" stroke-linecap="round" stroke-linejoin="round"/>
<path d="M22.667 13.3334H25.3337C28.0003 13.3334 29.3337 12.0001 29.3337 9.33341V6.66675C29.3337 4.00008 28.0003 2.66675 25.3337 2.66675H22.667C20.0003 2.66675 18.667 4.00008 18.667 6.66675V9.33341C18.667 12.0001 20.0003 13.3334 22.667 13.3334Z" stroke="#CEC7BF" stroke-width="1.5" stroke-miterlimit="10" stroke-linecap="round" stroke-linejoin="round"/>
<path d="M22.667 29.3334H25.3337C28.0003 29.3334 29.3337 28.0001 29.3337 25.3334V22.6667C29.3337 20.0001 28.0003 18.6667 25.3337 18.6667H22.667C20.0003 18.6667 18.667 20.0001 18.667 22.6667V25.3334C18.667 28.0001 20.0003 29.3334 22.667 29.3334Z" stroke="#CEC7BF" stroke-width="1.5" stroke-miterlimit="10" stroke-linecap="round" stroke-linejoin="round"/>
<path d="M6.66699 29.3334H9.33366C12.0003 29.3334 13.3337 28.0001 13.3337 25.3334V22.6667C13.3337 20.0001 12.0003 18.6667 9.33366 18.6667H6.66699C4.00033 18.6667 2.66699 20.0001 2.66699 22.6667V25.3334C2.66699 28.0001 4.00033 29.3334 6.66699 29.3334Z" stroke="#CEC7BF" stroke-width="1.5" stroke-miterlimit="10" stroke-linecap="round" stroke-linejoin="round"/>
</svg>
