<svg width="32" height="32" viewBox="0 0 32 32" fill="none" xmlns="http://www.w3.org/2000/svg">
<path d="M29.6555 21.224C29.5998 21.0334 29.4709 20.8726 29.2971 20.7767C29.1232 20.6808 28.9185 20.6575 28.7275 20.712L26.8395 21.248L24.4395 12.84L24.6075 12.792C24.795 12.7336 24.9544 12.6083 25.0555 12.44C25.1031 12.3542 25.1333 12.2599 25.1442 12.1624C25.1552 12.0649 25.1468 11.9662 25.1195 11.872L22.3995 2.14399C22.378 2.04188 22.335 1.94553 22.2734 1.8613C22.2118 1.77708 22.133 1.70692 22.0422 1.65548C21.9514 1.60403 21.8507 1.57248 21.7468 1.56291C21.6429 1.55335 21.5382 1.56598 21.4395 1.59999L11.2795 4.50399C11.1847 4.53129 11.0963 4.57718 11.0194 4.63898C10.9424 4.70079 10.8786 4.77727 10.8315 4.86399C10.7383 5.03795 10.7126 5.24025 10.7595 5.43199L13.3115 14.4L13.1435 14.448C12.9518 14.5066 12.789 14.6351 12.6875 14.808C12.6399 14.8938 12.6098 14.9881 12.5988 15.0856C12.5878 15.1831 12.5962 15.2818 12.6235 15.376L15.2395 24.504L14.1035 24.824C14.0635 24.8303 14.0226 24.8225 13.9876 24.8021C13.9526 24.7817 13.9258 24.7499 13.9115 24.712L7.59952 2.46399C7.5506 2.28657 7.43765 2.13359 7.28251 2.03459C7.12737 1.9356 6.94104 1.89762 6.75952 1.92799L2.95152 2.53599C2.75953 2.57818 2.58979 2.68959 2.4747 2.84895C2.35961 3.00831 2.30722 3.20446 2.32752 3.39999C2.36446 3.59473 2.47679 3.76702 2.64008 3.87938C2.80338 3.99175 3.00444 4.03509 3.19952 3.99999L6.39952 3.49599L12.3435 24.472C11.8454 24.34 11.3216 24.34 10.8235 24.472C10.2507 24.6322 9.7384 24.9591 9.35178 25.4112C8.96516 25.8633 8.72165 26.42 8.6522 27.0108C8.58275 27.6016 8.69048 28.1997 8.96172 28.7291C9.23296 29.2584 9.65546 29.6953 10.1755 29.984C10.6221 30.2364 11.1265 30.3687 11.6395 30.368C11.9098 30.3641 12.1786 30.3265 12.4395 30.256C13.2048 30.0363 13.8517 29.5223 14.2386 28.8265C14.6255 28.1307 14.7207 27.3099 14.5035 26.544C14.4758 26.4534 14.4411 26.3651 14.3995 26.28H14.5435L16.3995 25.752L26.5595 22.872L29.1675 22.136C29.3501 22.0753 29.5024 21.9469 29.5932 21.7772C29.684 21.6076 29.7063 21.4096 29.6555 21.224ZM11.9995 28.848C11.6149 28.9519 11.205 28.9032 10.8555 28.712C10.5969 28.5638 10.3878 28.3426 10.2546 28.0759C10.1214 27.8093 10.0699 27.5093 10.1066 27.2135C10.1434 26.9178 10.2668 26.6395 10.4612 26.4136C10.6556 26.1877 10.9125 26.0243 11.1995 25.944C11.3321 25.9058 11.4695 25.8869 11.6075 25.888C11.9682 25.8943 12.3147 26.0293 12.5845 26.2687C12.8543 26.5081 13.0296 26.836 13.0789 27.1933C13.1281 27.5506 13.048 27.9137 12.853 28.2172C12.658 28.5206 12.361 28.7443 12.0155 28.848H11.9995ZM21.1355 3.24799L23.4795 11.536L14.7595 14L12.4075 5.74399L21.1355 3.24799ZM16.6795 24.128L14.2795 15.72L22.9995 13.248L25.3995 21.656L19.5035 23.328L16.6795 24.128Z" fill="#CEC7BF"/>
</svg>
